<?xml version="1.0" encoding="UTF-8"?>
<svg id="Lager_1" data-name="Lager 1" xmlns="http://www.w3.org/2000/svg" viewBox="0 0 315.99 155.78">
  <defs>
    <style>
      .cls-1 {
        fill: #1d1d1b;
      }
    </style>
  </defs>
  <path class="cls-1" d="M73.77,132.25l-6-6.99c-.18-.21-.28-.48-.27-.75l.81-69.46c0-.31-.12-.6-.34-.82l-25.33-25.33c-.44-.45-1.16-.45-1.61-.01l-26.74,26.29c-.22.21-.34.51-.34.82v69.05c0,.28-.11.55-.29.76l-6.54,7.35c-.41.47-.38,1.17.07,1.6l14.94,14.09c.45.42,1.15.41,1.59-.01l14.67-14.19c.45-.44.46-1.17.02-1.62l-5.7-5.85c-.21-.22-.33-.5-.33-.8v-14.88c0-.63.52-1.14,1.15-1.14h13.82c.62,0,1.12.49,1.14,1.11l.42,13.78c.01.29-.09.57-.27.78l-6.1,7.14c-.39.46-.36,1.15.08,1.57l14.72,14.08c.45.43,1.16.42,1.6-.03l14.78-14.99c.42-.42.44-1.1.05-1.55ZM49.29,89.95h-16.3v-41.5l16.3,16.55v24.95Z"/>
  <path class="cls-1" d="M271.66,44.02h-16.46c-.51,0-.98.3-1.19.76l-20.2,44.57c-.32.7.18,1.49.95,1.54l13.61.79-15.22,44.21,43.51-58.88c.55-.75,0-1.8-.94-1.8h-15.12l12.13-29.62c.31-.75-.26-1.57-1.08-1.57Z"/>
  <path class="cls-1" d="M87.69,56.04l27.4-27.11c.46-.45,1.2-.44,1.65.03l24.21,25.49c.21.22.33.52.33.82v70.25l6.73,6.78c.46.46.46,1.21,0,1.67l-14.45,14.74c-.48.49-1.26.49-1.74,0l-14.06-14.29c-.47-.48-.49-1.24-.04-1.73l5.67-6.37.53-60.4-18.38-17.47v78.39l6.67,6c.5.45.52,1.23.04,1.71l-14.32,14.25c-.44.44-1.16.44-1.6,0l-14.75-14.75c-.5-.51-.47-1.34.09-1.79l6.32-5.21-.68-70.09c0-.35.13-.68.38-.92Z"/>
  <path class="cls-1" d="M161.73,126.24l-.61-68.7c0-.3.11-.59.32-.8l27.11-27.78c.47-.48,1.23-.48,1.7,0l24.42,24.52c.21.22.34.51.34.81v70.98l6.11,6.37c.42.44.43,1.12.03,1.58l-13.59,15.38c-.47.54-1.31.54-1.79.02l-13.78-14.99c-.48-.52-.47-1.33.02-1.84l5.9-6.19-.46-60.47-16.38-16.67-1.49,77.11,6.4,6.67c.42.44.43,1.12.03,1.58l-13.06,14.85c-.45.51-1.23.53-1.71.06l-14.96-14.84c-.45-.45-.47-1.18-.04-1.65l5.49-5.99Z"/>
</svg>