<?xml version="1.0" encoding="UTF-8"?>
<svg id="Lager_1" data-name="Lager 1" xmlns="http://www.w3.org/2000/svg" viewBox="0 0 310.66 155.78">
  <defs>
    <style>
      .cls-1 {
        fill: none;
        stroke: #fff;
        stroke-miterlimit: 10;
        stroke-width: 3px;
      }
    </style>
  </defs>
  <path class="cls-1" d="M37.31,28.9l25.33,25.33c.22.22.34.51.34.82l-.81,69.45c0,.28.09.55.28.76l6,6.99c.39.45.36,1.13-.05,1.55l-14.78,14.99c-.44.45-1.15.46-1.61.02l-14.71-14.07c-.44-.42-.47-1.11-.08-1.57l6.09-7.14c.18-.22.28-.49.27-.78l-.42-13.79c-.02-.62-.53-1.11-1.14-1.11h-13.82c-.63,0-1.14.51-1.14,1.14v14.88c0,.3.12.58.32.8l5.7,5.85c.44.45.43,1.18-.02,1.62l-14.67,14.19c-.44.43-1.14.43-1.58.01l-14.94-14.09c-.45-.42-.48-1.13-.07-1.59l6.54-7.35c.19-.21.29-.48.29-.76V55.99c0-.31.12-.6.34-.82l26.74-26.29c.45-.44,1.17-.44,1.61,0Z"/>
  <polygon class="cls-1" points="27.65 48.45 27.65 89.95 43.96 89.95 43.96 65 27.65 48.45"/>
  <path class="cls-1" d="M82.35,56.04l27.4-27.11c.46-.45,1.2-.44,1.65.03l24.21,25.49c.21.22.33.52.33.82v70.25l6.73,6.78c.46.46.46,1.21,0,1.67l-14.45,14.74c-.48.49-1.26.49-1.74,0l-14.06-14.29c-.47-.48-.49-1.24-.04-1.73l5.67-6.37.53-60.4-18.38-17.47v78.39l6.67,6c.5.45.52,1.23.04,1.71l-14.32,14.25c-.44.44-1.16.44-1.6,0l-14.75-14.75c-.5-.51-.47-1.34.09-1.79l6.32-5.21-.68-70.09c0-.35.13-.68.38-.92Z"/>
  <path class="cls-1" d="M156.39,126.24l-.61-68.7c0-.3.11-.59.32-.8l27.11-27.78c.47-.48,1.23-.48,1.7,0l24.42,24.52c.21.22.34.51.34.81v70.98l6.11,6.37c.42.44.43,1.12.03,1.58l-13.59,15.38c-.47.54-1.31.54-1.79.02l-13.78-14.99c-.48-.52-.47-1.33.02-1.84l5.9-6.19-.46-60.47-16.38-16.67-1.49,77.11,6.4,6.67c.42.44.43,1.12.03,1.58l-13.06,14.85c-.45.51-1.23.53-1.71.06l-14.96-14.84c-.45-.45-.47-1.18-.04-1.65l5.49-5.99Z"/>
  <path class="cls-1" d="M264.56,48.45h-15.18c-.47,0-.9.28-1.09.71l-18.64,41.9c-.29.66.16,1.4.88,1.44l12.56.74-14.04,41.56,40.14-55.35c.51-.71,0-1.69-.86-1.69h-13.95l11.19-27.84c.28-.71-.24-1.48-1-1.48Z"/>
</svg>