<?xml version="1.0" encoding="UTF-8"?>
<svg id="Lager_1" data-name="Lager 1" xmlns="http://www.w3.org/2000/svg" viewBox="0 0 684.72 390.74">
  <defs>
    <style>
      .cls-1, .cls-2, .cls-3 {
        fill: #1d1d1b;
      }

      .cls-2 {
        stroke: #1d1d1b;
        stroke-miterlimit: 10;
        stroke-width: 4px;
      }

      .cls-3 {
        font-family: Chorine-Large, Chorine;
        font-size: 12px;
      }

      .cls-4 {
        letter-spacing: -.06em;
      }

      .cls-5 {
        letter-spacing: -.01em;
      }
    </style>
  </defs>
  <text class="cls-3" transform="translate(0 133.75)"><tspan x="0" y="0">Lo</tspan><tspan class="cls-4" x="9.84" y="0">r</tspan><tspan x="13.04" y="0">em i</tspan><tspan class="cls-5" x="31.74" y="0">p</tspan><tspan x="37.22" y="0">sum</tspan></text>
  <g>
    <path class="cls-1" d="M465.9,76.77l-22.71-41.12c-.3-.55.08-1.24.96-1.73l17.75-9.8c18.82-10.4,28.01-10.11,31.33-4.11,3.18,5.76-1.98,12.77-6.77,16.54-.71.55-.9.9-.84,1.02.07.12.53.03,1.47-.33,8.35-3.09,12.14-3.59,14.07-.1l8.53,15.44c.3.55-.08,1.24-.96,1.73l-15.21,8.4c-.88.48-1.67.44-1.97-.11l-8.73-15.81c-1.05-1.9-3.86-.99-6,.2-1.46.81-2.21,1.54-1.87,2.15l9.58,17.34c.3.55-.08,1.24-.96,1.73l-15.7,8.67c-.88.48-1.67.44-1.97-.11ZM471.21,39.61c2.54-1.4,7.29-5.7,5.22-9.44-1.79-3.25-7.24-1.6-9.88-.14-.98.54-1.59,1.04-1.45,1.28l4.77,8.64c.1.18.66.04,1.34-.34Z"/>
    <path class="cls-1" d="M508.47,36.63c-2.78-19.54,6.19-34.04,22.41-36.34,15.88-2.25,27.58,8.81,30.43,28.84,1.54,10.81-6.9,17.95-24,20.38-16.99,2.41-27.32-2.2-28.84-12.88ZM539.19,16.08c-.76-5.34-3.98-8.98-7.29-8.51-4.19.59-6.4,4.87-5.62,10.34.4,2.84,3.43,4.32,7.62,3.73,3.42-.49,5.69-2.72,5.29-5.56Z"/>
    <path class="cls-1" d="M566.71,26.91c2.11-10.5,8.83-28.71,32.1-24.04,7.21,1.45,17.46,5.86,15.13,17.46v.07c-.14.62-.88.9-1.86.7l-10.49-2.1c-.98-.2-1.56-.74-1.43-1.36.99-4.94.34-6.79-2.5-7.36-4.04-.81-8.25,2.06-9.33,7.41-.92,4.6.86,7.03,4.9,7.84,2.18.44,4.7.37,5.24-2.31v-.07c.14-.62.88-.9,1.86-.7l11.36,2.28c.98.2,1.56.74,1.43,1.36l-5.58,27.8c-.12.62-1.08.85-2.72.53l-12.45-2.5c-17.04-3.42-29.2-7.36-25.66-25Z"/>
    <path class="cls-1" d="M610.81,54.49l24.38-40.07c.33-.54,1.4-.38,2.64.38l13.61,8.28c1.24.75,1.88,1.63,1.55,2.17l-7.93,13.04c-.22.36.11.89.68,1.24.48.29,1.16.46,1.53.27l16.48-8c.74-.37,2.07.03,3.4.84l11.71,7.12c1.24.75,1.59,1.46.88,1.77l-23.04,9.58c-.34.12-.58.3-.69.48-.15.24-.06.53.51.88,5.23,3.19,9.37,7.75,7.26,11.22l-10.23,16.8c-.33.54-1.4.38-2.64-.38l-13.99-8.51c-1.33-.81-1.88-1.63-1.55-2.17l9.39-15.43c1.13-1.85-.96-3.78-3.05-5.05-1.43-.87-2.43-1.15-2.79-.55l-10.3,16.92c-.33.54-1.4.38-2.64-.38l-13.61-8.28c-1.24-.75-1.88-1.63-1.55-2.17Z"/>
  </g>
  <g>
    <path class="cls-2" d="M455.76,361.27l18.87-43.01c.25-.58,1.03-.69,1.95-.29l18.57,8.15c19.69,8.64,25.05,16.11,22.29,22.39-2.64,6.03-11.35,6.18-17.25,4.66-.87-.23-1.26-.17-1.32-.04-.06.13.3.43,1.16.97,7.52,4.75,10.23,7.47,8.62,11.12l-7.09,16.15c-.25.58-1.03.69-1.95.29l-15.92-6.98c-.92-.4-1.36-1.06-1.11-1.63l7.26-16.54c.87-1.99-1.56-3.66-3.8-4.65-1.53-.67-2.56-.82-2.84-.18l-7.96,18.14c-.25.58-1.03.69-1.95.29l-16.43-7.21c-.92-.4-1.36-1.06-1.11-1.63ZM488.51,342.92c2.65,1.16,8.96,2.32,10.67-1.59,1.49-3.4-3.13-6.73-5.89-7.93-1.02-.45-1.79-.63-1.9-.38l-3.97,9.04c-.08.19.37.54,1.08.86Z"/>
    <path class="cls-2" d="M516.97,369.76c1.5-19.68,13.38-31.9,29.71-30.66,16,1.22,25.04,14.54,23.5,34.71-.83,10.89-10.61,16.04-27.82,14.73-17.11-1.3-26.2-8.04-25.39-18.78ZM551.4,356.31c.41-5.37-1.95-9.63-5.28-9.88-4.22-.32-7.3,3.38-7.72,8.89-.22,2.86,2.42,4.96,6.64,5.28,3.44.26,6.14-1.43,6.36-4.29Z"/>
    <path class="cls-2" d="M580.07,378.76l-7.82-37.7c-.13-.62.44-1.16,1.42-1.37l17.56-3.65c.98-.2,1.72.07,1.85.69l4.25,20.49c.13.62.87.89,1.85.69l8.29-1.72c.98-.2,1.72.07,1.85.69l4.85,23.37c.13.62-.44,1.16-1.42,1.37l-15.71,3.26c-9.49,1.97-15.72-.1-16.97-6.13Z"/>
    <path class="cls-2" d="M623.05,368.42l-16.43-34.82c-.27-.57.16-1.24,1.06-1.66l16.22-7.66c.91-.43,1.69-.33,1.96.24l8.93,18.93c.27.57,1.05.66,1.96.24l7.66-3.62c.91-.43,1.69-.33,1.96.24l10.19,21.59c.27.57-.16,1.23-1.06,1.66l-14.51,6.85c-8.76,4.14-15.31,3.59-17.93-1.98Z"/>
  </g>
  <g>
    <path class="cls-1" d="M450.13,243.71c-.36-6.9-1.87-8.39-4.06-9.96-3.99-2.85-5.86-4.37-9.3-7.58-2.2-2.05-3.25-1.6-4.01,1.68-.92,4.01-1.38,5.92-2.29,9.52-1.34,5.06-3.43,5.95-8.62-8.66-2.7-7.6-4.95-18.3-4.33-21.4.18-.9.55-1.08.99-1.3.51-.25,3.31-.71,7.49-12.97,3.31-9.68,6.19-20.06,7.25-30.13.87-8.36-2.37-5.02-1.68-10.25,2.03-15.39,10.47-32.54,18.95-45.12,15.26-22.64,22.47,7.62,23.43,19.28,3.83,38.14,7.68,76.27,11.61,114.4,1.46,13.12,8.83,24.84,8.95,37.67.14,13.7-11.31,27.22-24.68,17.25-15.38-11.47-18.77-34.47-19.71-52.45ZM445.64,203.41c1.64.48,2.6-1.41,2.74-4.34.03-.53.05-1.06-.03-1.88-.68-9.68-1.35-19.36-2.01-29.04-.2-2.41-.33-4.31-1.21-3.97-.77.3-1.2,2.36-1.66,4.84-1.96,11.19-2.93,16.44-4.85,26.18-.15.64-.17,1.08-.2,1.53-.17,2.66.54,4.52,1.83,4.96,2.06.71,3.14,1.05,5.38,1.72Z"/>
    <path class="cls-1" d="M585.66,316.35c-11.84,3.03-17.53-11.01-19.46-19.99-11.06-38.69-21.55-77.53-31.86-116.43-1.05-3.73-2.11-4.13-3-4.12-.89.01-2.14,1.68-2.16,5.39-.23,38.31,1.32,77.16,1.79,115,.12,9.63-3.59,21.86-15.91,18.22-11.59-3.42-15.65-13.92-15.36-25.29,1.26-48.2,5.78-96.53,6.87-144.69.37-16.27-7.1-30.62-7.13-46.41-.02-14.73,9.38-32.28,24.44-36.05,24.94-6.25,32.02,35.45,36.27,50.93,4.73,18.49,9.51,36.98,14.36,55.44.73,2.91,1.61,3.34,2.84,3.36.7.01,1.75-1.61,1.71-5.32-.25-28.08-4.08-56.14-4.65-84.09-.18-8.9,2.4-22.23,14.51-18.37,11.07,3.53,14.49,14.28,14.55,24.95.19,32.6-.76,65.4-.61,97.99.15,33.22.6,67.2,1.84,99.84.44,11.56-4.41,25.3-16.5,29.04-1.01.25-1.52.36-2.54.59Z"/>
    <path class="cls-1" d="M678.32,239.28c-4.28,10.41-7.53,12.23-10.6,6.73-11.21-20.18-17.83-42.87-24.74-64.77-.91-2.82-1.74-3.21-2.42-3.25-.68-.04-1.61,1.19-1.51,4.08,1.07,29.29,3.9,58.63,5.09,87.92.43,10.65-3.36,20.2-12.24,26.31-10.39,7.15-14.42,1.5-14.61-11.1-.71-45.69,2.07-91.9,1.22-137.9-.31-16.74-8.05-31.95-8.51-48.18-.34-11.8,8.41-25.07,20.9-14.9,16.53,13.46,22.38,38.9,27.5,58.77,2.97,11.4,6.14,22.75,9.74,33.97.46,1.5.93,1.77,1.53,1.9.35.08.8-.56.66-2.23-1.18-13.67-3.88-27.44-5.02-41.06-.56-6.71,1.45-7.39,5.88,5.43,4.43,12.82,5.1,19.1,5.65,22.1.56,3.01,1.82,11.51,3.49,22.41,1.2,7.86,3.76,22.12,4.23,24.95.54,3.22.13,12.44-5.12,26.03-.43,1.12-.65,1.67-1.1,2.77Z"/>
  </g>
</svg>