<svg width="61" height="61" viewBox="0 0 61 61" fill="none" xmlns="http://www.w3.org/2000/svg">
<g clip-path="url(#clip0_19_285)">
<path d="M30.4924 4.50134C16.137 4.50134 4.49875 16.1371 4.49875 30.4924C4.49875 44.8478 16.1345 56.4835 30.4898 56.4835C44.8426 56.4835 56.4809 44.8478 56.4809 30.4924C56.4809 16.1396 44.8452 4.50388 30.4924 4.50134ZM30.9956 10.2252C31.9731 10.2252 32.9105 10.6135 33.6016 11.3046C34.2928 11.9958 34.681 12.9332 34.681 13.9106C34.681 14.888 34.2928 15.8254 33.6016 16.5166C32.9105 17.2077 31.9731 17.596 30.9956 17.596C30.0182 17.596 29.0808 17.2077 28.3896 16.5166C27.6985 15.8254 27.3102 14.888 27.3102 13.9106C27.3102 12.9332 27.6985 11.9958 28.3896 11.3046C29.0808 10.6135 30.0182 10.2252 30.9956 10.2252ZM44.4842 19.548C44.2609 19.8496 43.9292 20.0528 43.5591 20.1148H43.5515L34.7954 21.4619C34.759 21.4635 34.7233 21.473 34.6908 21.4897C34.6584 21.5064 34.6299 21.5298 34.6073 21.5585C34.5616 21.6144 35.4791 32.4215 35.4791 32.4215L40.4557 45.9864C40.6964 46.4444 40.7459 46.979 40.5935 47.4734C40.4411 47.9678 40.0991 48.3817 39.6424 48.6247L39.6322 48.6298C39.4302 48.7208 39.2108 48.7668 38.9892 48.7645H38.9841C38.5836 48.7454 38.1969 48.6126 37.8692 48.3817C37.5415 48.1508 37.2864 47.8313 37.1337 47.4606L37.1287 47.4453C37.1287 47.4453 30.7542 32.9807 30.7186 32.8714C30.6981 32.8119 30.6598 32.7602 30.6089 32.7234C30.5579 32.6865 30.4968 32.6663 30.4339 32.6655C30.3762 32.666 30.3201 32.6844 30.2732 32.7181C30.2263 32.7517 30.191 32.7991 30.1721 32.8536V32.8562C30.1365 32.9604 23.762 47.4301 23.762 47.4301C23.6115 47.8028 23.3576 48.1247 23.0302 48.3579C22.7029 48.5912 22.3157 48.7261 21.9142 48.7467H21.9041C21.6797 48.7493 21.4576 48.7025 21.2534 48.6094L21.2636 48.6145C21.0443 48.5156 20.8486 48.3714 20.6891 48.1913C20.5296 48.0112 20.4101 47.7995 20.3384 47.5699L20.3359 47.5572C20.1684 47.0273 20.2065 46.4538 20.4426 45.9508L20.4375 45.9635C20.4375 45.9635 25.2921 32.8358 25.2947 32.813L26.197 21.7237V21.6983C26.1961 21.6327 26.1721 21.5696 26.1294 21.5198C26.0866 21.4701 26.0278 21.437 25.9631 21.4263L17.4206 20.1046C17.2324 20.0791 17.0513 20.0162 16.8878 19.9198C16.7243 19.8233 16.5817 19.6951 16.4683 19.5428C16.355 19.3905 16.2733 19.2171 16.2279 19.0327C16.1825 18.8484 16.1743 18.6568 16.2039 18.4693C16.2336 18.2817 16.3003 18.102 16.4003 17.9406C16.5004 17.7792 16.6316 17.6395 16.7863 17.5295C16.9411 17.4195 17.1163 17.3415 17.3015 17.3001C17.4868 17.2587 17.6785 17.2548 17.8654 17.2885H17.8577L26.0495 18.5542H34.7446C34.7846 18.5641 34.8265 18.5641 34.8666 18.5542L43.1092 17.291C43.4802 17.2391 43.8569 17.333 44.1602 17.5529C44.4635 17.7728 44.6698 18.1016 44.7359 18.4703V18.478C44.7663 18.6634 44.759 18.853 44.7144 19.0356C44.6699 19.2181 44.589 19.3898 44.4766 19.5404L44.4792 19.5353L44.4842 19.548Z" fill="black"/>
<path d="M30.5 0C13.6564 0 0 13.6564 0 30.5C0 47.3436 13.6564 61 30.5 61C47.3436 61 61 47.3436 61 30.5C61 13.6564 47.3436 0 30.5 0ZM30.5 58.3948H30.4898C15.0772 58.3948 2.58487 45.9 2.58487 30.4898C2.58487 15.0797 15.0797 2.58487 30.4898 2.58487C45.9025 2.58487 58.3948 15.0797 58.3948 30.4898V30.5C58.3897 45.905 45.9025 58.3897 30.5 58.3948Z" fill="black"/>
</g>
<defs>
<clipPath id="clip0_19_285">
<rect width="61" height="61" fill="white"/>
</clipPath>
</defs>
</svg>
