<svg width="53" height="42" viewBox="0 0 53 42" fill="none" xmlns="http://www.w3.org/2000/svg">
<path d="M33.7504 0.167955C35.1284 0.692955 35.8359 2.28108 35.3351 3.71958L22.6469 40.1756C22.1434 41.6141 20.6249 42.3543 19.2496 41.832C17.8716 41.307 17.164 39.7188 17.6649 38.2803L30.3531 1.82433C30.8566 0.38583 32.375 -0.35442 33.7504 0.167955ZM6.3971 21.672L15.7675 31.4737C16.801 32.5552 16.801 34.3087 15.7675 35.3902C15.5286 35.6461 15.2388 35.8503 14.9164 35.99C14.5939 36.1296 14.2458 36.2017 13.8939 36.2017C13.5421 36.2017 13.194 36.1296 12.8715 35.99C12.5491 35.8503 12.2593 35.6461 12.0204 35.3902L0.776448 23.6328C0.278811 23.0993 0.00244141 22.3996 0.00244141 21.6733C0.00244141 20.9469 0.278811 20.2472 0.776448 19.7137L12.0204 7.9537C12.2593 7.69779 12.5491 7.49359 12.8715 7.35393C13.194 7.21428 13.5421 7.14219 13.8939 7.14219C14.2458 7.14219 14.5939 7.21428 14.9164 7.35393C15.2388 7.49359 15.5286 7.69779 15.7675 7.9537C16.2659 8.48735 16.5427 9.18759 16.5427 9.91458C16.5427 10.6416 16.2659 11.3418 15.7675 11.8755L6.3971 21.672ZM46.6029 21.672L37.2325 11.8755C36.7349 11.342 36.4585 10.6423 36.4585 9.91589C36.4585 9.18952 36.7349 8.48983 37.2325 7.95633C37.4714 7.70041 37.7612 7.49622 38.0836 7.35656C38.4061 7.2169 38.7541 7.14481 39.106 7.14481C39.4579 7.14481 39.806 7.2169 40.1285 7.35656C40.4509 7.49622 40.7407 7.70041 40.9796 7.95633L52.2236 19.7137C53.2571 20.7952 53.2571 22.5487 52.2236 23.6328L40.9796 35.3876C40.7407 35.6435 40.4509 35.8477 40.1285 35.9874C39.806 36.127 39.4579 36.1991 39.106 36.1991C38.7541 36.1991 38.4061 36.127 38.0836 35.9874C37.7612 35.8477 37.4714 35.6435 37.2325 35.3876C36.7356 34.8542 36.4597 34.1551 36.4597 33.4293C36.4597 32.7036 36.7356 32.0044 37.2325 31.4711L46.6029 21.672Z" fill="black"/>
</svg>
