<svg width="53" height="53" viewBox="0 0 53 53" fill="none" xmlns="http://www.w3.org/2000/svg">
<path d="M2.20834 46.375V41.9583H50.7917V46.375H2.20834ZM8.83334 39.75C7.61875 39.75 6.57936 39.3179 5.71517 38.4537C4.85097 37.5895 4.41814 36.5494 4.41667 35.3333V11.0417C4.41667 9.82708 4.8495 8.78769 5.71517 7.9235C6.58084 7.05931 7.62022 6.62647 8.83334 6.625H44.1667C45.3813 6.625 46.4214 7.05783 47.287 7.9235C48.1527 8.78917 48.5848 9.82856 48.5833 11.0417V35.3333C48.5833 36.5479 48.1512 37.588 47.287 38.4537C46.4228 39.3194 45.3827 39.7515 44.1667 39.75H8.83334ZM8.83334 35.3333H44.1667V11.0417H8.83334V35.3333Z" fill="black"/>
</svg>
