<svg width="20" height="20" viewBox="0 0 20 20" fill="none" xmlns="http://www.w3.org/2000/svg">
<path fill-rule="evenodd" clip-rule="evenodd" d="M0.17158 0.24999C0.23864 0.171589 0.32189 0.108646 0.4156 0.065491C0.50931 0.0223359 0.611258 -6.76637e-06 0.714428 2.10821e-08H19.2856C19.3888 -2.50599e-05 19.4908 0.0223289 19.5846 0.065522C19.6783 0.108715 19.7616 0.171721 19.8287 0.250199C19.8958 0.328677 19.945 0.420761 19.9731 0.52011C20.0012 0.619458 20.0074 0.723709 19.9913 0.825681L17.8484 14.3966C17.8336 14.4914 17.7997 14.5823 17.7489 14.6638C17.6981 14.7453 17.6314 14.8157 17.5527 14.8708L10.41 19.8706C10.2899 19.9548 10.1467 20 9.99999 20C9.85328 20 9.71013 19.9548 9.59 19.8706L2.44726 14.8708C2.36862 14.8157 2.3019 14.7453 2.25109 14.6638C2.20028 14.5823 2.16642 14.4914 2.15155 14.3966L0.00872514 0.825681C-0.00737014 0.723654 -0.00114545 0.619351 0.02697 0.519963C0.0550854 0.420575 0.104423 0.328467 0.17158 0.24999ZM6.00006 3.51843C5.76326 3.51843 5.53616 3.61249 5.36872 3.77993C5.20128 3.94737 5.10721 4.17446 5.10721 4.41125C5.10721 4.64804 5.20128 4.87513 5.36872 5.04257C5.53616 5.21 5.76326 5.30407 6.00006 5.30407H10.8857L7.12861 7.65254C6.96423 7.75528 6.83775 7.90871 6.76828 8.08967C6.69881 8.27063 6.69012 8.46929 6.74352 8.65562C6.79692 8.84196 6.90951 9.00585 7.06429 9.12255C7.21907 9.23924 7.40762 9.3024 7.60146 9.30248H12.3085V11.9638L9.99999 13.6923L7.33575 11.6967C7.14631 11.5546 6.90819 11.4936 6.67378 11.5271C6.43936 11.5606 6.22785 11.6858 6.08577 11.8752C5.94369 12.0647 5.88269 12.3028 5.91617 12.5372C5.94966 12.7716 6.0749 12.9831 6.26434 13.1252L9.46428 15.5251C9.61883 15.641 9.8068 15.7036 9.99999 15.7036C10.1932 15.7036 10.3811 15.641 10.5357 15.5251L13.7356 13.1252C13.8461 13.0416 13.9358 12.9337 13.9978 12.8098C14.0597 12.6859 14.0922 12.5494 14.0928 12.4109V8.41109C14.0924 8.17454 13.9982 7.94782 13.8308 7.78069C13.6634 7.61356 13.4365 7.51969 13.1999 7.51969H10.7143L14.4713 5.16979C14.6356 5.06712 14.762 4.91381 14.8315 4.73299C14.901 4.55218 14.9099 4.35366 14.8566 4.1674C14.8034 3.98114 14.6911 3.81724 14.5365 3.70043C14.382 3.58362 14.1936 3.52024 13.9999 3.51986L6.00006 3.51843Z" fill="white"/>
</svg>
