<svg width="40" height="45" viewBox="0 0 40 45" fill="none" xmlns="http://www.w3.org/2000/svg">
<path fill-rule="evenodd" clip-rule="evenodd" d="M0.625 0.416748V4.83397C2.95338 4.83397 4.86096 6.63586 5.02959 8.92149L5.0417 9.25119L5.02959 40.1716L20.5 40.1667V35.7544H9.4583V9.25119C9.4583 7.95745 9.18026 6.72872 8.68069 5.62141L8.45316 5.15445L8.27687 4.83397H29.3333C31.6617 4.83397 33.5693 6.63586 33.7379 8.92149L33.75 9.25119V20.5701C35.4864 21.0169 37.0159 21.9783 38.1667 23.282V9.25119C38.1667 4.5199 34.4479 0.657318 29.7742 0.427514L29.3333 0.416748H0.625ZM29.3333 18.0855V20.5699C27.964 20.9223 26.7232 21.5947 25.6953 22.5027H13.875V18.0855H29.3333ZM13.875 26.92L22.9863 26.9173C22.8012 27.6385 22.7077 28.3803 22.7083 29.1249C22.7078 29.8701 22.8013 30.6124 22.9868 31.3341L13.875 31.3372V26.92ZM13.875 9.25005V13.6673H24.9167V9.25005H13.875ZM31.5413 22.5C35.201 22.5 38.1667 25.4661 38.1667 29.1249C38.1667 32.7842 35.2009 35.75 31.5413 35.75C27.8823 35.75 24.9167 32.7842 24.9167 29.1249C24.9167 25.4661 27.8822 22.5 31.5413 22.5ZM23.469 42.4919L26.167 36.1361C27.3283 37.0276 28.7176 37.6371 30.2324 37.8622L27.5346 44.2176L23.469 42.4919ZM36.9164 36.1357C35.7551 37.0273 34.3659 37.6369 32.8511 37.862L35.5488 44.2174L39.6144 42.4917L36.9164 36.1357ZM33.75 29.125C33.75 27.9054 32.7614 26.9167 31.5415 26.9167C30.3219 26.9167 29.3333 27.9054 29.3333 29.125C29.3333 30.3448 30.3219 31.3335 31.5415 31.3335C32.7614 31.3335 33.75 30.3448 33.75 29.125Z" fill="black"/>
</svg>
