<svg width="15" height="35" viewBox="0 0 15 35" fill="none" xmlns="http://www.w3.org/2000/svg">
<path fill-rule="evenodd" clip-rule="evenodd" d="M8.13443 34.1078L8.12158 34.111L8.04553 34.1672L8.02411 34.1736L8.00911 34.1672L7.93306 34.1094C7.92164 34.1051 7.91307 34.1083 7.90735 34.119L7.90307 34.1351L7.88486 34.8218L7.89022 34.8539L7.90093 34.8747L8.01232 34.9935L8.02839 34.9999L8.04124 34.9935L8.15264 34.8747L8.1655 34.8491L8.16978 34.8218L8.15157 34.1367C8.14871 34.1196 8.143 34.1099 8.13443 34.1078ZM8.41721 33.9265L8.40221 33.9297L8.20513 34.0789L8.19442 34.095L8.1912 34.1126L8.21048 34.8025L8.21584 34.8218L8.22441 34.8346L8.4397 34.9822C8.45327 34.9876 8.46363 34.9833 8.47077 34.9694L8.47505 34.9469L8.43863 33.9618C8.43506 33.9415 8.42792 33.9297 8.41721 33.9265ZM7.65135 33.9297C7.64663 33.9254 7.64099 33.924 7.63561 33.9258C7.63022 33.9276 7.6255 33.9324 7.62243 33.9393L7.61601 33.9618L7.57959 34.9469C7.5803 34.9662 7.58637 34.979 7.5978 34.9854L7.61387 34.9822L7.82916 34.833L7.83987 34.8202L7.84309 34.8025L7.86237 34.1126L7.85915 34.0934L7.84844 34.0773L7.65135 33.9297Z" fill="white"/>
<path fill-rule="evenodd" clip-rule="evenodd" d="M10.7115 1.24111e-08C11.5818 -8.10413e-05 12.4315 0.396845 13.1475 1.13796C13.8635 1.87907 14.4118 2.92922 14.7195 4.14865C15.0273 5.36809 15.0798 6.69899 14.8701 7.96424C14.6604 9.22948 14.1985 10.3691 13.5457 11.2314C14.3441 12.2836 14.8527 13.743 14.9726 15.3257C15.0926 16.9085 14.8153 18.5015 14.1948 19.795C13.5742 21.0885 12.6546 21.9902 11.6149 22.3246C10.5752 22.659 9.48965 22.4022 8.56928 21.6043V25.6717C8.56924 26.7441 8.3898 27.7994 8.04736 28.7412C7.70491 29.6829 7.21038 30.4812 6.60894 31.0629C6.00751 31.6446 5.31834 31.9914 4.60441 32.0714C3.89048 32.1514 3.17455 31.9621 2.52202 31.5209C1.86949 31.0797 1.30118 30.4006 0.869 29.5456C0.436821 28.6906 0.154556 27.6871 0.0479942 26.6266C-0.0585678 25.5661 0.013971 24.4826 0.258983 23.4749C0.503994 22.4673 0.913667 21.5676 1.45057 20.8582C0.994721 20.2559 0.629644 19.5152 0.379591 18.6853C0.129538 17.8554 0.000234035 16.9553 0.000267365 16.0448C0.000234035 15.1343 0.129538 14.2342 0.379591 13.4043C0.629644 12.5744 0.994721 11.8337 1.45057 11.2314C0.79785 10.3691 0.335907 9.22948 0.12622 7.96424C-0.0834674 6.69899 -0.0309563 5.36809 0.276765 4.14865C0.584487 2.92922 1.13283 1.87907 1.84881 1.13796C2.5648 0.396845 3.41448 -8.10413e-05 4.28477 1.24111e-08H10.7115ZM6.42703 22.4627H4.28477C3.86107 22.4627 3.44689 22.6509 3.0946 23.0035C2.74231 23.3561 2.46773 23.8573 2.30559 24.4437C2.14345 25.03 2.10102 25.6752 2.18368 26.2977C2.26634 26.9202 2.47037 27.492 2.76997 27.9407C3.06957 28.3895 3.45128 28.6952 3.86684 28.819C4.2824 28.9428 4.71313 28.8792 5.10458 28.6364C5.49602 28.3935 5.8306 27.9822 6.06599 27.4545C6.30138 26.9268 6.42703 26.3063 6.42703 25.6717V22.4627ZM6.42703 12.8358H4.28477C3.71661 12.8358 3.17172 13.1739 2.76997 13.7757C2.36822 14.3775 2.14252 15.1937 2.14252 16.0448C2.14252 16.8959 2.36822 17.7121 2.76997 18.3139C3.17172 18.9157 3.71661 19.2538 4.28477 19.2538H6.42703V12.8358ZM10.7115 12.8358C10.1434 12.8358 9.59848 13.1739 9.19673 13.7757C8.79498 14.3775 8.56928 15.1937 8.56928 16.0448C8.56928 16.8959 8.79498 17.7121 9.19673 18.3139C9.59848 18.9157 10.1434 19.2538 10.7115 19.2538C11.2797 19.2538 11.8246 18.9157 12.2263 18.3139C12.6281 17.7121 12.8538 16.8959 12.8538 16.0448C12.8538 15.1937 12.6281 14.3775 12.2263 13.7757C11.8246 13.1739 11.2797 12.8358 10.7115 12.8358ZM10.7115 3.20896H8.56928V9.62688H10.7115C11.2674 9.6306 11.8025 9.3105 12.2038 8.73418C12.605 8.15786 12.841 7.37047 12.8619 6.53835C12.8827 5.70623 12.6868 4.89455 12.3156 4.27479C11.9443 3.65502 11.4267 3.27571 10.8722 3.21698L10.7115 3.20896ZM6.42703 3.20896H4.28477C3.71661 3.20896 3.17172 3.54704 2.76997 4.14884C2.36822 4.75064 2.14252 5.56685 2.14252 6.41792C2.14252 7.26899 2.36822 8.0852 2.76997 8.687C3.17172 9.28879 3.71661 9.62688 4.28477 9.62688H6.42703V3.20896Z" fill="white"/>
</svg>
