<svg width="29" height="30" viewBox="0 0 29 30" fill="none" xmlns="http://www.w3.org/2000/svg">
<path d="M14.5 0C12.5958 0 10.7103 0.397619 8.95109 1.17015C7.19187 1.94269 5.5934 3.07501 4.24695 4.50247C1.52767 7.38536 0 11.2954 0 15.3724C0 22.167 4.1615 27.9317 9.918 29.9762C10.643 30.0992 10.875 29.6226 10.875 29.2076V26.6096C6.8585 27.532 6.003 24.5497 6.003 24.5497C5.336 22.7665 4.3935 22.29 4.3935 22.29C3.074 21.3369 4.495 21.3676 4.495 21.3676C5.945 21.4752 6.7135 22.951 6.7135 22.951C7.975 25.2876 10.1065 24.5958 10.933 24.2269C11.0635 23.2277 11.4405 22.5513 11.8465 22.167C8.6275 21.7827 5.249 20.4607 5.249 14.6038C5.249 12.8974 5.8 11.5293 6.7425 10.4379C6.5975 10.0536 6.09 8.45482 6.8875 6.37955C6.8875 6.37955 8.1055 5.96449 10.875 7.94753C12.0205 7.60934 13.2675 7.44024 14.5 7.44024C15.7325 7.44024 16.9795 7.60934 18.125 7.94753C20.8945 5.96449 22.1125 6.37955 22.1125 6.37955C22.91 8.45482 22.4025 10.0536 22.2575 10.4379C23.2 11.5293 23.751 12.8974 23.751 14.6038C23.751 20.476 20.358 21.7673 17.1245 22.1516C17.6465 22.6282 18.125 23.5659 18.125 24.9955V29.2076C18.125 29.6226 18.357 30.1145 19.0965 29.9762C24.853 27.9163 29 22.167 29 15.3724C29 13.3537 28.6249 11.3547 27.8963 9.48964C27.1676 7.62457 26.0995 5.92993 24.753 4.50247C23.4066 3.07501 21.8081 1.94269 20.0489 1.17015C18.2897 0.397619 16.4042 0 14.5 0Z" fill="white"/>
</svg>
