<?xml version="1.0" encoding="UTF-8"?>
<svg id="Lager_1" data-name="Lager 1" xmlns="http://www.w3.org/2000/svg" viewBox="0 0 279.48 52.19">
  <defs>
    <style>
      .cls-1 {
        fill: #1d1d1b;
      }
    </style>
  </defs>
  <path class="cls-1" d="M3.75,47.52c-.14-.05-.24-.14-.38-.24-.1.19-.24.43-.48.29-.19-.24-.1-.58.05-.82.05-.19.05-.43.14-.58.05-.19.14-.34.24-.48.14-.24.29-.48.34-.72,0-.14.1-.43.19-.67,0-.29.1-.62.19-.91l-.14-.82c-.34-.77-.77-1.06-.58-1.92v-.14c-.1-.38,0-.82-.19-1.15-.14,0-.24.05-.34.14,0,.29-.1.53-.24.72v.05c-.05.24-.24.43-.34.62-.1.24-.14.53-.1.91,0,.29.19.53.29.82.05.29,0,.53-.05.77-.1.29-.34.48-.58.62-.05.05-.14.14-.19.24.05.29.05.62.05.91s-.05.62-.1.91c0,.19-.19.91-.43.91-.05,0-.05-.05-.1-.05-.48-.58-.38-1.44-.34-2.16,0-.53.19-1.1,0-1.63-.05-.14-.14-.29-.29-.43-.14-.14-.34-.24-.38-.48-.05-.34.14-.58.24-.86.05-.48.24-.91.38-1.39.05-.38.14-.77.19-1.1.1-.34,0-.62.05-.91.05-.38.14-.77.05-1.1-.62-.82-.24-1.2.1-1.97-.29-.43-.29-1.06-.05-1.49.05-.05.1-.1.1-.19.05-.43-.24-.82-.29-1.25-.05-.62.1-1.25.05-1.92-.1-.62-.05-1.3-.1-1.92-.05-.72-.14-1.44-.14-2.11,0-.43.05-.86.19-1.3.14-.38.34-.82.29-1.25-.05-.43-.24-.86-.29-1.3,0-.48.14-.96.14-1.44-.1-.48-.34-1.01-.14-1.54.24-.53.58-.67.86-.1.38.53.34,1.15.38,1.73,0,.34.14.62.34.86.24-.53,0-1.1-.1-1.63-.05-.38-.1-.77-.29-1.1s-.53-.53-.77-.77c-.05-.14-.05-.34-.19-.48-.24-.43-.05-.96-.1-1.44-.05-.29-.1-.53-.1-.82-.05-.43.05-.86,0-1.3-.19-.53-.05-1.1-.05-1.68-.05-.38-.19-1.44.38-1.49.19.05.29.24.43.34.14.14.38.14.53.14-.1-.38-.29-.67-.58-.91-.19-.14-.43-.19-.53-.38-.14-.19-.05-.48-.05-.67-.1-.67.05-1.25.1-1.87,0-.29-.14-.48-.19-.72-.1-.43-.05-.86-.14-1.25,0-.24,0-.43.1-.62.1-.24.29-.53.14-.82-.19-.29-.34-.67-.19-1.01.05-.19.19-.43.14-.67-.05-.29-.24-.48-.38-.72-.1-.38,0-.82.48-.77.14,0,.24.05.34.1.38.1.77.1,1.2.1.19.05.38-.05.53-.1.29-.1.72.05.77.38.05.62.1,1.25.38,1.82.24-.34.14-.77.05-1.15-.1-.24-.29-.62.05-.86.19-.14.43-.24.67-.19.14.05.29.05.43,0h.24c.14.05.29,0,.43-.05.19-.05.38-.1.53,0,.29.14.62.34.82.58.05.05.05.1.14.14.29.1.67.05.96-.14.24-.24.53-.53.91-.58.24,0,.48,0,.72.1.1.05.14.05.19.05.14-.05.34-.05.48,0,.14.14.1.34.14.53,0,.38.05.72,0,1.1-.05.34-.19.67-.24,1.01-.1.43-.05.86-.14,1.3-.14.53-.1,1.06.05,1.54.05.43.24.82.29,1.2-.05.48-.05.96-.05,1.39-.14.58-.34,1.1-.34,1.68,0,.34.38.53.43.86,0,.38-.1.86-.14,1.3-.05.29,0,.62,0,.91.77.1.48.29.82.82.1.1.24.24.38.14.19-.19.29-.38.43-.58.19-.19.48-.34.72-.24h.24s.1-.05.19,0c.05-.14.34-.05.43.05.29.14.53.72.82.29.34-.38.24-.53.77-.43.1-.29-.05-.53-.1-.82,0-.53.14-1.06.48-1.44-.29-.34-.58-.77-.34-1.2.14-.29.29-.77.62-.77.1-.53-.43-.82-.58-1.25-.14-.29-.05-.67-.1-.96-.05-.43-.1-.91,0-1.39.05-.34.19-.67.34-1.01,0-.1.19-.24.14-.38-.14-.24-.34-.38-.48-.62-.19-.29-.14-.62-.05-.96.1-.19.24-.38.29-.58,0-.05-.05-.05-.05-.1-.1-.19-.19-.34-.24-.58-.19-.53.14-1.1.77-1.06.38.1.77.05,1.15,0,.29,0,.58-.05.86,0,.34.1.67.29,1.06.19.77-.1,1.58-.19,2.35-.05.19.05.34.19.58.24.1,0,.19-.05.29-.05.29-.05.58-.05.86-.19.14-.1.29-.19.43-.14.38.1.67,0,1.06-.05.34-.05.77.19.67.58-.1.77-.24,1.54-.19,2.35l.14.14c.1.14.1.29.14.48.1.24-.05.53-.05.77-.05.19.05.38.05.58s-.05.38.05.58.19.43.24.62c.29.53-.14.77-.29,1.25,0,.38.14.77-.05,1.15-.14.29-.48.48-.53.82-.05.38.05.77.19,1.1.05.29.14.53.29.77.19.1.19.38.19.58.1.38,0,.86-.05,1.25-.05.77.1,1.58-.19,2.35-.19.43.24.77.24,1.2.05.53-.34.96-.53,1.39,0,.05,0,.14-.05.24-.24.38-.34.82-.19,1.25l.34.62.29.38c.14.53-.19,1.06-.19,1.58,0,.43.1.86.1,1.3,0,1.01.1,1.97.19,2.93.14.53.05,1.06-.1,1.58-.1.72-.29,1.39-.38,2.11,0,.43-.14.86-.19,1.3-.05.58.38,1.01.62,1.44.14.43.14.91.14,1.34.05.58-.1,1.15-.14,1.73,0,.34,0,.72-.05,1.1,0,.19-.05.38,0,.53l.14.34c.1.29.05.67-.24.86,0,.14.1.29.1.43.05.34.1.72-.14,1.01-.14.14-.29.1-.34-.1,0-.24-.05-.48-.19-.67-.05-.1-.14-.24-.24-.34-.29-.24-.29-.67-.58-.86.24.77.53,1.01.1,1.82-.05.14,0,.29.05.38.14.62,1.1.91.91,1.63-.14.34-.14.53-.05.67.1.1.19.19.29.24.05,0,.1.05.14.1.29.29.24.77.48,1.1.24.24.53.48.67.86.05.24-.14.34-.34.29-.43-.05-.96-.05-1.15-.48-.1-.24-.1-.53-.19-.77-.05-.24-.19-.43-.34-.58-.1-.14-.14-.24-.19-.38-.05-.14-.14-.34-.24-.48-.58-.43-.43-.82-.58-1.49-.19-.72-.96-.14-1.2-.67-.1-.24,0-.53,0-.82-.05-.24-.1-.48-.19-.67-.19-.29-.48-.58-.67-.91-.14-.43-.38-.62-.86-.43,0,.05-.05.05-.1.1v.05s-.05.14-.05.14c-.14.29-.43.48-.72.53-.19.1-.43.05-.58.19-.05.29.1.53.19.77.1.24.14.53.05.77l-.14.19v.1c.05.24.24.29.43.34.14,0,.29.05.43.1.38.05.77.29.91.62,0,.05.05.1.05.14.1.14.14.29.14.48v.05c.1.29.14.86-.19.86-.1-.05-.14-.14-.19-.19-.05-.05-.14-.1-.24-.14,0,.19.05.43-.1.62-.05.1-.19,0-.29-.1-.14-.14-.29-.38-.38-.58,0-.19-.1-.38-.24-.48h-.29v-.05c-.14.05-.24.1-.38.1-.05,0,0,.05,0,.05.19.72.43,1.34-.34,1.73-.29.24-.62.62-1.01.53-.24-.1-.24-.43-.1-.62.14-.24.58-.29.62-.58,0-.14-.1-.29-.14-.38-.24-.58.05-1.2,0-1.78-.24-.58-.38-.62-.14-1.25.14-.34-.24-.53-.38-.82-.19-.43,0-.96-.29-1.34-.19.1-.19.34-.34.53s-.34.29-.53.43c-.1.24.05.53-.14.77-.1.14-.24.29-.43.38-.1.05-.29.1-.24.24.14.24.19.53.34.72.14.38.05.82,0,1.2-.05.24,0,.58-.19.77-.24.29-.43.58-.72.77-.38.29-.72.19-.58-.38.14-.43.48-.77.58-1.25.19-.62-.29-.86-.48-1.39-.05-.14,0-.34.1-.48.1-.29.24-.58.29-.86.19-.82.82-1.49.77-2.35.05-.14.1-.34.1-.48-.05-.29-.14-.58-.19-.91-.05-.24-.05-.53-.1-.77-.1-.14-.24-.29-.24-.53,0-.14.05-.29.1-.43.1-.29.1-.62.19-.91,0-.29-.05-.62-.05-.91-.1-.29-.1-.58-.29-.77-.19-.43.29-.77.43-1.1,0-.19-.1-.38-.1-.58-.1-.62-.19-1.3-.05-1.97.1-.29-.14-.62.1-.91.34-.34.38-.86.43-1.34-.05-.67-1.2-.72-.96-1.49.05-.19.77-1.44.29-1.15-.1.1-.24.29-.38.24-.19,0-.38-.14-.43-.29-.19-.14-.38-.05-.53.1-.14.19-.24.43-.43.62-.1.1-.29.19-.34.38,0,.1-.05.19-.1.34,0,.1.05.24,0,.34,0,.19-.14.38-.14.58,0,.38,0,.77-.05,1.15-.05.34.05.72-.14,1.01-.38.34-.67-.82-.67-1.06.05-.53.14-1.06.1-1.54-.05-.29-.24-.48-.24-.72.05-.29.19-.53.14-.77,0-.19-.1-.43-.19-.58,0-.05,0-.1-.05-.1-.38,0-.82.14-.96.48-.05.19,0,.34,0,.53,0,.53-.58.86-.58,1.39-.05.34.19.67.24,1.01.1.58-.1,1.1-.1,1.68.05.29.14.58.14.91.05.38,0,.77-.05,1.15,0,.34,0,.67-.14.96-.19.38-.38.77-.38,1.15.05.38.1.82.29,1.2.29.53.48,1.1.43,1.73,0,.62-.24,1.2-.24,1.78,0,.29.14.53.29.77.14.43.1.86-.05,1.25-.05.34,0,.67-.05,1.06-.05.24-.05,1.3-.48.96-.29-.29-.53-.72-.53-1.1.05-.53.24-1.15-.24-1.54-.34.29-.34,1.34-.96,1.25-.1.34.05.67.24.96.1.19.14.43.14.67.05.19,0,.34,0,.53.1.19.19.43.34.58.14.05.29.05.43.1.38.14.58.53.72.86.1.24.38,1.01.1,1.2-.38.1-.53-.24-.72-.58-.19-.34-.38-.67-.96-.58.14.34.53.67.43,1.06-.05.1-.1.14-.14.14-.14.05-.24-.1-.29-.14-.1-.19-.14-.38-.29-.58-.19-.34-.53-.48-.77-.77-.14-.34-.05-.77,0-1.15.05-.96-.48-1.3-1.3-1.68-.34-.29.14-.72.19-1.06.14-.29,0-1.25-.48-.82-.05.1.05.29.05.38,0,.29-.19.53-.38.67-.1.14-.29.19-.43.19-.05.05-.1,0-.14,0-.1,0-.19,0-.24.05-.1.19-.14.38-.29.58-.05.1-.14.1-.19.19-.1.29,0,.58.1.86.19.43.34.91.24,1.39-.05.34-.14.86-.29,1.3,0,.29-.05.62-.1.86-.05.14-.14.29-.19.38-.1.24-.19.48-.34.67-.1.43.38.77.43,1.2.05.29-.29.53-.58.43-.1,0-.14-.1-.24-.14ZM4.42,39.32s.14-.05.19-.1c0-.05.05-.1.05-.19.05-.05.05-.1.05-.14v-.05s.05,0,.05-.05c.05-.05.05-.14,0-.19-.05-.05-.1-.05-.14-.05h-.05s-.1.1-.14.19l-.1.14v.1s-.05.05-.05.1v.1s.05.1.1.14h.05ZM6.2,43.78c-.24-.24-.24-.67-.19-1.01,0-.1.1-.38.19-.67.05-.14.14-.29.24-.43,0-.24.24-.43.38-.14.14.38.24,1.58-.05,2.11-.1.19-.24.34-.43.24h-.05s-.05-.05-.1-.1ZM9.51,25.3s.05-.1.05-.14c.05-.1.05-.19.1-.34v-.19s0-.1-.05-.19v-.19c-.05-.1,0-.14-.05-.19,0-.05,0-.1-.05-.14v-.1s-.1-.1-.19-.1c-.05,0-.05.05-.1.05-.05.05-.1.14-.05.19,0,.05-.05.1-.05.1,0,.1.05.19.1.19v.38l-.1.24c-.05.1-.05.19,0,.29.05.1.1.14.14.19s.05.05.1.05.1-.05.14-.1ZM11.1,42.44c-.34.1-.34-1.2,0-1.1.24,0,.34,1.1.05,1.15l-.05-.05ZM16.57,43.49c.14-.29.29-.62.48-.91.05-.05.1-.1.1-.14l.1-.1h.1c.24-.19.34.19.29.43-.05.24-.05.53-.14.82-.05.24-.58.82-.82.62h-.05c-.29-.1-.14-.53-.05-.72ZM18.2,46.28c-.19-.19-.1-.67.24-.67.05,0,.1,0,.14.05.1.05.19.14.19.24.1.19.05.72-.24.53v.05c-.1-.1-.24-.1-.34-.19ZM19.79,42.63s.1-.05.14-.05c.05-.05.14-.05.19-.14.05-.05,0-.19-.1-.19h-.1v-.05h-.05s-.05-.05-.1-.05c0-.05-.05-.05-.05-.05h-.19s-.14.1-.14.14t-.05.1s.05.14.1.14.05.05.05.05h.05s0,.05.05.05c.05.05.1.05.14.05h.05ZM23.39,39.65s.1-.05.14-.1c.05-.05.1-.19.1-.34t-.05-.1s-.05-.1-.05-.14v-.05c0-.1,0-.24-.1-.34h-.1s-.05-.05-.05-.05h-.19c-.1.05-.14.14-.19.24-.05.05-.05.1-.05.14-.05.05-.05.1-.05.14s.05.1.05.1c0,.05,0,.1.05.1v.14s.05.1.05.14c.05,0,.05.05.05.05.05.05.1.05.1.05.05.05.1.05.14.05s.1,0,.14-.05ZM24.01,7.1s.1,0,.1-.05c0,0,.05,0,.05-.05t.1-.05s0-.05.05-.1v-.14s.05-.14.05-.19v-.43c0-.1-.05-.14-.05-.19-.05-.1-.05-.24-.1-.34.05-.05.05-.1.05-.14.05-.1,0-.19-.05-.29-.05-.05-.14-.1-.19-.19l-.19-.14c-.1-.05-.19-.1-.29-.1-.05,0-.1-.05-.14-.05s-.1-.05-.14-.05-.1,0-.14.05c-.05.1-.05.14-.05.19.05.1.1.19.14.24.1.1.19.19.34.29l.1.1s.05.05.05.1v.24c0,.1-.05.24-.05.38-.05.14-.05.29,0,.38,0,.14.1.29.19.38.05.05.1.14.14.14h.05Z"/>
  <path class="cls-1" d="M34.95,47.33c0-.34-.05-.67,0-1.06.05-.34.19-.67.24-1.06l.1-.96c.1-.29.1-.72-.14-.96-.48-.14-.62.48-.77.82-.14.19-.24.38-.29.58-.14.24-.1,1.44-.53,1.15-.24-.34-.38-.77-.34-1.15.05-.24-.14-.34-.29-.38-.58-.48.14-1.15.43-1.54l.91-1.3c.14-.24.24-.53.24-.77-.29.1-.53.38-.86.38-.24.05-.38-.19-.38-.38-.05-.43.19-.82.43-1.15.1-.29.05-.58.1-.86.05-.38.29-.72.38-1.06.05-.14.05-.29,0-.43-.14-.29-.38-.58-.67-.72-.29-.1-.67-1.39-.38-1.58-.19-.48-.77-.67-1.06-1.06-.05.05-.1.05-.14.05-.38-.19-.77-.53-.82-.96,0-.19-.19-.72-.29-1.15-.19-.24-.24-.58-.14-.91l.14-.34c-.1-.48-.53-.62-.86-.91-.48-.48-.91-1.06-.91-1.78-.1-.67-.34-1.3-.48-1.97-.24-.62-.19-1.25-.29-1.87-.1-.82.05-1.63-.05-2.45-.1-.62,0-1.3-.05-1.92-.05-.38-.1-.72-.1-1.1,0-.43.1-.91.05-1.34,0-.05,0-.1-.05-.14,0-.24.14-.43.29-.58.29-.34.72-.77.43-1.25-.14-.38-.38-.72-.43-1.15,0-.38,0-.82.19-1.2.19-.48.58-.91.86-1.34.14-.14.1-.38.1-.58-.1-.43-.05-.91.14-1.3.19-.58.62-.96,1.1-1.3.24-.19.48-.38.53-.67.05-.24,0-.48.1-.72.14-.34.43-.58.53-.96.19-.77.96-1.49,1.78-1.39.19.05.38.19.58.29.19.05.38.1.53.24.14.05.29.19.43.1.1-.1.1-.24.1-.34,0-.43-.05-.86.14-1.25.1-.38.53-.58.72-.86.05-.1-.05-.14-.05-.24-.19-.29.05-.58.29-.72.34-.1.58-.29.91-.43.29-.19.62-.19.96-.29.24-.1.48-.24.72-.34.19-.05.43,0,.67.1.24.1.38.34.62.48.29,0,.62.1.91,0,.14-.48.34-.72.82-.86.38-.19.77,0,1.15,0,.29.05.62-.05.91.05.91-.05,1.68.53,2.54.77.38.14.77.34,1.1.53.34.24.67.53,1.01.72.86.48,1.73,1.1,2.4,1.82.19.29.43.53.67.77.34.29.53.67.82,1.01s.62.67.72,1.1c.05.19.1.29.1.48.05.34.05.72.19,1.01.14.24.24.48.43.67.24.24.62.24.67.62.05.29.05.62.19.91.05.19.14.34.14.58.1.48.38.91.38,1.39.05.34.05.62.05.96t-.05.1h-.05c0,.34,0,.67-.05.96-.05.24.1.48.19.67.24.38.48.72.53,1.2.19.91.19,1.82.19,2.74.05.58.05,1.15-.1,1.73-.1.38-.24.77-.19,1.15.1.38.14.91-.34,1.01-.24.05-.53-.05-.77.1-.1.1-.1.29-.14.43s-.19.24-.19.38c0,.19,0,.43.05.62.05.14.24.19.34.24.1-.14,0-.34.05-.48-.05-.29,0-.82.43-.82.48,0,.62.58.48.96-.1.43-.14.86-.24,1.3-.05.43,0,.86-.19,1.25-.14.62-.24,1.25-.67,1.73-.67.43-.24,1.15-.58,1.78,0,.05-.05.1-.1.14t.05.1c-.05.58-.19,1.2-.53,1.63-.1.14-.29.19-.29.38-.05.62-.05,1.25-.14,1.87-.19,1.15-1.3.38-1.39,1.34-.05.58.72.96.58,1.58-.05.19-.24.34-.24.58.1.67.14,1.3.38,1.92.14.43.48.82.48,1.3s0,1.01-.29,1.44c-.19.29-.38.82-.77.62-.29-.05-.34-.38-.34-.62v-.1c0-.34.05-.62.14-.91.1-.19.19-.38.14-.58-.05-.24-.05-.48-.14-.72-.1-.24-.14-.48-.19-.72,0-.14-.1-.29-.24-.38,0-.05-.05-.1-.1-.14-.24-.1-.38,0-.53.19,0,.1-.05.19-.05.24-.05.19,0,.38.05.58-.05.62-.1,1.2-.1,1.82-.05.38-.19,2.11-.82,1.97-.62-.48-.38-1.44-.24-2.06.1-.38.34-.67.53-.96v-.24c-.14-.29-.34-.53-.38-.86-.05-.29.05-.58.05-.86-.19-.29-.48.05-.62.19l-.14.14c-.34.43-.58.96-1.1,1.2-.14.05-.29.05-.43,0-.34.1-.58.43-.86.62-.14.14-.38.14-.58.19-.05.24-.14.67-.48.62-.38-.05-.29-.34-.38-.62-.05-.24-.14-.48-.34-.67,0,0-.05-.05-.1-.05-.29,0-.48.38-.77.53-.24.24-.34.62-.58.86-.24.24-.72.19-.77.58-.1.72-.14,1.54-.53,2.21-.1.14-.34.29-.43.1-.1-.24-.05-.58-.1-.82-.05-.43-.14-.86-.05-1.25.05-.19.19-.38.24-.58-.43-.43.1-.91.48-1.15.1-.1,0-.29,0-.38-.05-.24-.1-.43-.05-.67.1-.34.34-.96.77-.96.34.05.62.29.91.48.24-.1.38-.34.58-.53l-.29-.24c-.24-.1-.48-.24-.77-.24-.29-.05-.58.14-.82,0-.24-.1-.24-.29-.24-.53-.05,0-.05-.1-.05-.1-.14.05-.24.05-.34.1-.34.19-.29.67-.34.96-.05.58-.34,1.1-.72,1.49-.91.62-.62.67-.62,1.68,0,.24-.19,1.25-.62.86-.1-.14-.1-.38-.24-.53-.1,0-.19-.05-.29-.1-.24-.24-.1-.53-.19-.82-.14-.19-.19-.43-.38-.62-.1.29-.19.53-.19.82v.29c.1.43,0,.82.05,1.25.05.43.19.91.05,1.39-.1.34-.34.67-.38,1.01-.19.48-.14,1.2-.67,1.44-.1.05-.24-.05-.24-.14-.14-.38.05-.77.1-1.1.1-.43.19-.82.24-1.2.1-.53.1-1.01,0-1.49-.05-.43,0-.91-.14-1.34-.19-.29-.38-.62-.43-1.01-.05-.24.05-.58-.19-.72-.05-.05-.14-.24-.24-.14-.14.19-.14.43-.24.67-.05.14-.19.24-.24.34.19.58.29.82,0,1.39-.05.1-.05.14-.05.19.1.24.19.43.24.67.05.34-.05.67-.1,1.01-.05.82-.34,1.58-.43,2.4-.14.24.19,1.97-.29,1.73-.24-.48-.43-1.01-.43-1.54ZM37.35,19.97c.14-.1.24-.19.29-.38.14-.19.24-.77-.14-.72.05,0,.05.1-.05.14-.1,0-.14.1-.24.14-.14.1-.34.14-.43.24-.1.29.1.53.1.77,0,.19-.1.34-.14.48.05.1.14.24.24.24.43-.1.19-.62.38-.91ZM37.78,38.02c.1-.14.29-.34.19-.53-.1-.19-.24-.38-.48-.38-.05,0-.14.1-.24.05-.34.29,0,.43.05.77,0,.19-.05.34-.1.53,0,.1,0,.19.1.19.29-.1.38-.38.48-.62ZM43.78,29.91c.1-.34.14-.72.29-1.06.1-.29.29-.58.48-.82.14-.19.24-.43.53-.43.05-.38-.1-.82,0-1.2.1-.58.34-1.1.43-1.68l.19-.82c.05-.24.05-.43.1-.62l.43-.67s.05-.1,0-.14c-.1-.53-.34-1.06-.38-1.58-.05-1.3.1-2.64-.19-3.89-.1-.29-.14-.58-.14-.91-.05-.58-.14-1.1-.24-1.68-.1-.38-.1-.77-.24-1.15-.14-.24-.29-.43-.34-.67-.1-.34,0-.67,0-.96-.05-.29-.05-.62-.24-.86-.05.05-.1.05-.1.05-.1.05-.05.19-.1.24-.05.19-.19.34-.19.48-.1.34.19.67-.1.96.05.29.1.58.19.86.14.29.24.77-.1.96-.14.05-.34.05-.48-.1-.19-.1-.19-.34-.24-.53-.1-.43-.34-.82-.29-1.25-.05-.67.43-1.34.1-1.97-.1-.1-.19-.38-.34-.19-.1.05-.1.14-.14.24-.05.38,0,.77-.19,1.1-.29.43-.67-.05-.62-.38,0-.34.1-.67,0-.96-.05-.1-.19-.05-.24,0-.14.1-.14.24-.1.38.1.43.05.86-.1,1.25.05.67-.1,1.34-.19,2.02-.05.24.1.48.24.62.38.34.62.82.48,1.34,0,.34.38.53.48.86.05.29-.14.62-.38.82-.14.1-.29-.05-.48-.1-.38-.19-.77-.48-.86-.91-.14-.34-.53-.53-.58-.91,0-.14.1-.34.19-.43s.14-.19.14-.29c0-.05,0-.14-.05-.24-.05-.14-.19-.29-.24-.48,0-.24.05-.48.1-.72.05-.43.29-.86.24-1.3-.05-.19-.05-1.39-.34-1.25-.14.19-.19.48-.34.72,0,.24.05.53,0,.77,0,.14-.1.34-.19.48-.1.19-.1.38-.19.58l-.29.38c-.19.24-.34.48-.58.62-.1.05-.29.05-.34.19-.05.34-.14.62-.1.91.1.24.19.48.19.72s-.19.38-.1.62c.1.34.48.48.58.82.14.43.1.86.05,1.25-.05.43-.29.82-.29,1.25-.1,1.06.19,2.11.05,3.17-.05.29-.05.58-.19.86-.05.14-.14.24-.14.38.05.48.38.82.53,1.25.24.58.38,1.15.82,1.63.19.24.24.58.43.86.29.34.62.58,1.01.77.19.1.38.14.58.14.14-.05.29-.05.38,0,.24.14.38.34.62.38.24.05.34.43.62.43.19-.05.34-.1.48-.24ZM39.85,24.19c-.05-.34.19-.53.29-.82.05-.05,0-.14,0-.19,0-.1,0-.19.05-.29-.05-.19-.29-.34-.29-.53-.05-.24,0-.67.24-.72.1-.14.29-.1.38,0,.24.19.34.48.43.77,0,.1,0,.19.05.29.24.14.53.38.48.72-.05.19-.24.43-.43.38l-.38-.14c0,.1-.05.19-.05.29.05.34.38.48.53.77s-.19.72-.53.53c-.34-.24-.67-.62-.77-1.06ZM40.76,21.07c-.38-.29-.67-.72-.53-1.2,0-.1.05-.19.05-.29-.1-.19-.19-.38-.19-.58-.05-.29.1-.58.19-.86.05-.14.14-.29.29-.34.38-.1.67.29.82.62.05.19,0,.43-.1.62,0,.14-.1.34-.19.48-.05.14-.19.34-.05.43.29.19.58.53.53.91,0,.24-.14.53-.43.58-.19-.05-.24-.29-.38-.38ZM47.34,39.75c.19-.29.34-.58.58-.82.14-.14.38-.24.58-.38s.34-.34.38-.58c.1-.38-.29-.43-.48-.62-1.01-.34-.43.05-.91.62-.14.14-.34.14-.48.19-.14.05-.29.19-.34.38,0,.14-.05.34,0,.48.05.19.14.34.14.53s0,.38.24.38c.14,0,.19-.1.29-.19ZM50.79,36.77c-.29.43-.1.43.05.82.05.19-.05.72.19.72.38-.1.14-1.68-.24-1.54ZM51.9,47.52c-.19-.29-.62-.43-.67-.86-.05-.19.05-.43.1-.62.1-.29.29-.53.48-.72-.1-.24-.24-.58,0-.82.14-.14.34-.34.53-.24.38-.05.48.38.53.62,0,.29.19.53.29.72.14.34.24.82-.05,1.1l-.19.14c-.14.29-.1.58-.19.86-.05.29-.14.72-.53.67-.38-.1-.14-.58-.29-.86Z"/>
  <path class="cls-1" d="M76.52,50.45c-.14-.05-.14-.29-.24-.38-.1-.19-.38-.86-.29-1.2-.1-.67-.1-1.34.1-1.97.14-.29.24-.62.34-.91-.14-.29-.48-.38-.48-.72-.05-.62.72-1.15.1-1.73-.05-.14-.05-.29,0-.43.14-.29.24-.62.24-.91,0-.24-.1-.38-.1-.58,0-.24.1-.53-.05-.72-.19-.14-.48-.14-.67-.29-.82-.62.48-1.39.58-2.06-.05-.19-.24-.14-.38-.05-.14.19-.38.48-.67.29-.14.19-.24.38-.24.62-.05.24-.19.48-.34.67l-.34.43c-.05.24,0,.48-.05.72,0,.24-.14.48-.29.67s-.34.34-.34.58c-.05.19-.05.53-.24.58-.24.05-.24-.29-.34-.48-.1-.29.05-.62.14-.96.19-.67.58-1.25.77-1.87.05-.14.05-.24,0-.34-.1-.24-.34-.48-.19-.72.19-.34.58-.53.82-.86.05-.1.14-.19.1-.29-.1-.24-.34-.43-.38-.67,0-.14,0-.34.14-.38.14-.1.24-.24.1-.38s-.29-.1-.48-.14c-.1,0-.19,0-.24-.05-.19-.19-.19-.48-.34-.67-.19,0-.34.05-.48.05-.48,0-.53-.34-.14-.96.19-.48-.43-.82-.34-1.25.05-.19.14-.38.14-.58-.1-.34-.43-.58-.43-.91,0-.19.1-.38.14-.58-.1-.38-.72-.53-.72-1.01,0-.14.05-.86-.24-.67-.05,0-.05.05-.05.1.05.34-.05.67-.05.96s0,.67-.34.82c-.53.05-.05-.86-.24-1.15-.19-.58-.29-1.15-.29-1.73-.05-.38.14-.77.1-1.15-.05-.24-.19-.43-.29-.67-.05-.24-.1-.53-.05-.82.34-.82.38-.53-.34-1.01-.53-.43-.29-1.2-.19-1.78.05-.24-.05-.48-.29-.58-.19,0-.43.14-.58.29.05.58.05,1.1-.1,1.63-.05.24-.19.48-.19.77.1.67.48.86-.05,1.58h-.05c-.05.14-.05.24,0,.38.1.24.19.48.19.77.05.38-.19.77-.05,1.1.82.34.43,1.3.29,1.92-.05.29-.34.53-.29.86,0,.05,0,.14.05.14.24.19.29.43.29.72.14.53-.1.96-.29,1.44-.1.34-.14.67-.05,1.01.14.29.29.53.34.82.24.53.72,1.06.43,1.63-.14.24-.43.43-.38.77,0,.05.05.1.14.14.43.19.38.1.48.58.14.19.29.43.53.58.29.1.72.24.62.62-.05.34-.43.67-.72.43-.24-.29-.58-.43-.82-.72-.53-.53-1.1-.24-1.25-1.2-.05-.19-.1-.77-.38-.58-.1.1,0,.24,0,.38.05.19,0,.43-.14.58-.05.1-.19.19-.24.29-.1.29-.1.53-.24.82,0,.14-.05.34-.14.43-.1.1-.24.05-.34-.05-.19-.34-.14-.77-.1-1.1.05-.24.14-.53.14-.77-.05-.29-.38-.34-.53-.53-.19-.29,0-.72-.05-1.01,0-.1-.14-.1-.19-.1-.14.05-.29.14-.34.24-.1.19-.14.43-.29.58-.14.19-.38.29-.53.48-.05.19.05.38.14.48.1.1.14.1.24.1.14,0,.29.05.43.14.19.19.14.62.05.86-.1.14-.19.24-.24.43-.05.1-.1.19-.05.29.1.29.34.53.43.82.29.48-.14,1.01-.34,1.44-.1.24-.14.58.05.77.1.05.24.05.29.14.1.05.14.19.24.29.19.34.96.19.77.72-.29.34-.86.29-1.2.05-.1-.05-.14-.19-.24-.19-.24.14-.58.38-.86.19-.34-.48.24-.91.14-1.39-.1-.53-.24-1.06-.53-1.49-.1-.14-.29-.19-.34-.38-.1-.24.1-.58-.14-.72-.43.05-.38.58-.62.82-.14.19-.43.29-.53.48,0,.24.05.43.1.67.1.19.29.34.34.53s0,.34-.1.48c-.14.24-.1.58.05.82.14.19.19.38.34.58.14.24.14.58,0,.82-.14.14-.38.1-.53,0-.43-.24-.58-.77-.62-1.2,0-.48-.48-.72-.67-1.1-.05-.24.1-.48.14-.67,0-.48-.48-.67-.67-1.06-.29-.48.19-.91.43-1.25.19-.38.62-.62.72-1.06.05-.34-.43-.43-.53-.72-.1-.24,0-.43-.05-.67-.1-.34-.67.19-.77.34,0,.29-.05.53-.29.72-.1.05-.19.1-.24.14s-.05.14-.05.24c0,.29.05.58-.1.82-.24.29-.62.43-.86.67-.19.19-.29.43-.43.67-.14.19-.34.38-.58.53-.19.1-.43.24-.53.43-.14.24-.19.53-.43.62-.14.05-.34,0-.38-.14-.05-.19.1-.43.19-.62.24-.38.48-.77.77-1.15.14-.29.43-.48.62-.72.19-.58-.05-1.25.19-1.82.19-.43.58-.77.72-1.2.05-.38-.14-.72-.1-1.1-.05-.34.1-.67.14-.96-.14-.38-.05-.82.19-1.1.05-.05.05-.14.05-.24s-.05-.24-.14-.34c-.19-.1-.29-.29-.29-.53v-.34l-.1-.82c-.1-.62.24-1.15.58-1.68.14-.29.43-.67.1-.96-.14-.14-.34-.24-.48-.34-.38-.34-.05-.91,0-1.34,0-.38-.14-.82-.14-1.2.05-.53.29-1.01.62-1.39.14-.14.24-.34.34-.53.1-.48-.05-.96-.48-1.25-.77-.62-.29-1.97-.29-2.83-.05-.34-.14-.67-.24-1.01-.1-.29-.05-.58,0-.86.05-.29.19-1.44.58-1.06.1.14.1.29.24.43.1-.43-.1-.86-.24-1.3-.1-.29.1-.53.34-.72.24-.29.62-.58.72-1.01-.05-.05-.05-.1-.1-.05-.62.67-1.15.53-1.2-.38l-.14-.53c-.1-.1-.19-.19-.24-.34-.14-.43.19-.91.19-1.39,0-.38-.1-.77.1-1.1s.58-.58.96-.58c-.05-.34,0-.77-.24-1.1-.1-.14-.34-.14-.48-.19-.38-.1-.38-.43-.43-.77l-.05-.48c-.05-.34.1-.62.14-.96-.05-.48-.19-.96-.05-1.44.19-.29.48-.24.82-.19.14.05.34.05.43.05.34-.05.67-.14,1.01-.05s.67,0,1.06,0c.19,0,.38-.05.58-.05h.14c.14,0,.34,0,.43-.14,0-.1-.19-.19-.29-.19-.14,0-.29.05-.48.1-.24.05-.53.14-.77,0-.43-.34-1.01-.48-1.54-.38-.14.05-.29.1-.43.1-.19-.05-.38-.19-.53-.34-.24-.19-.48-.38-.43-.77,0-.43.05-.91,0-1.34-.14-.53-.29-1.1-.14-1.63.05-.19.19-.43.43-.34.34.19.34.67.53.91.1,0,.29,0,.34-.1.1-.38-.05-.91.58-.91.38-.1.72.05,1.1.19.24-.29.72-.1,1.01.05.34.1.58.38.91.38.29-.05.43-.24.62-.38.48-.34,1.1-.24,1.63-.1.29.05.62,0,.96,0,.72-.1,1.87-.48,2.06.53.05.19-.1.38,0,.58.1.24.48-.34.58-.43.29-.53.43-.82,1.06-.72.1,0,.19,0,.29.05h.1c.1,0,.19.1.29.1.14,0,.24,0,.34.05.29.14.58.14.91.19.14,0,.29.1.43.19.24.24.29.53.34.86.1.19.05.43.24.58.19-.24.38-.67.77-.62l.82.1c.48.05.91.1,1.34.1.24,0,.53.05.77.1h.91c.53,0,.58.48.86.82.38.29.96.38,1.3.86.1.19.19.43.34.62.14.24.53.19.77.38.19.14.29.38.34.58.1.34.19.67.24,1.01.05.58.05,1.25.43,1.73.1.14.29.24.34.43l.14.43s.1.1.14.1c.29.14.48.38.48.67,0,.62-.05,1.25.14,1.82l.19.62c.1.24.1.43,0,.67l-.29.86c-.1.29-.24.58-.24.91.1.53.34,1.15.05,1.63-.14.29-.38.48-.38.77-.05.1,0,.24.05.38.05.24,0,.48,0,.72,0,.19,0,.38-.05.58-.1.19-.34.38-.43.1-.05-.1-.05-.24-.1-.34-.19.1-.29.24-.43.38-.19.24-.53.43-.48.77,0,.38.29.62.38.96.05.24-.19.48-.34.62s-.43.24-.48.48c0,.14.05.29.05.43.05.34-.1.72-.14,1.06-.05.19-.1.38-.19.53-.1.29-.38.19-.43-.1-.19-.48.24-1.01,0-1.49-.1-.1-.19-.19-.24-.34-.1-.19-.05-.48-.19-.72-.05-.05-.14,0-.24,0-.58.14-1.01.53-1.39.96-.24.19,0,.48,0,.77,0,.19-.1.34-.14.48,0,.1.05.14.1.19.05.05.14.05.24.05.05,0,.1.05.14.1.19.34.43.67.53,1.01.05.19,0,.53-.24.58-.1.29-.43.43-.72.62.14,0,.38,0,.58-.05.43-.05.96-.1,1.06.34.1.14.14.38.24.53.05.14.14.24.19.38.14.29.24.53.43.82.14.34.29.72.34,1.15.1.62-.1,1.39.29,1.97.05.1.14.14.24.19.34.05.62,0,.96.1.19.1.29.34.29.53.1.43.14.86.29,1.25l.14.24c.53.38.58.43.62,1.1.05.38-.14.77-.1,1.15.1.24.19.48.43.62.19.14.43.14.62.24.53.24.77.91.77,1.44.05.14.05.34.14.43.1.14.19.24.24.38.14.24.14.53.14.82l-.29,1.3c-.05.19-.05.43,0,.62.1.43.29.86.05,1.3-.05.29-.24.53-.29.82.05.43.24.91.05,1.39-.1.14-.24.34-.43.29-.38-.24-.14-1.44-.38-1.87-.1-.24-.29-.43-.34-.72-.1-.24,0-.58-.05-.86-.05-.24-.24-.43-.34-.72-.19-.38.05-.77.19-1.15v-.05c-.24-.1-.14-.43-.14-.62t.05-.1c-.1-.29-.19-.58-.14-.86.05-.1.14-.1.14-.24,0-.05,0-.1-.05-.14-.19,0-.38.05-.58.1-.1.1-.14.24-.24.38-.05.14-.1.29-.05.43.05.1.14.14.19.24.14.43.24,1.1-.24,1.39-.24.05-.38-.29-.43-.48-.1-.14.05-.29,0-.48,0-.05-.05-.1-.1-.1-.14-.05-.29-.1-.38-.19-.1-.14-.1-.29-.14-.38-.05-.1-.1-.24-.1-.34.05-.24.14-.48.05-.77-.05-.1-.19-.14-.29-.1-.14.1-.19.19-.24.34-.19.38-.1.77-.05,1.15.05.29-.24.48-.43.67-.05.05-.14.14-.14.24,0,.14.19.29.34.34.53.34,1.73.29,1.49,1.2-.14.34-.53.53-.86.38-.19-.05-.34-.19-.48-.34-.34-.24-.72-.38-1.06-.58-.14-.05-.29-.19-.48-.14-.19.29-.34.67-.58.96v.24c0,.29-.14.58-.14.86.1.58.43,1.1.24,1.73-.1.19-.34.38-.53.24-.48-.38-.38-1.1-.43-1.63-.1-.34-.19-.67-.1-1.01-.19-.53.43-.72.67-1.1v-.19c-.29-.53,0-1.01.14-1.54-.29-.14-.48-.43-.48-.77,0-.05,0-.14-.05-.19-.34-.05-.19.67-.38.91-.19.34-.58.48-.91.67-.24.1-.38.29-.34.53.05.24.24.34.34.48.19.19.24.43.24.67.05.34-.1.67-.19,1.01-.1.72-.24,1.49,0,2.16.05.1.14.19.14.29,0,.34-.24.62-.24.91v.14c0,.19.1.38.1.58-.05.38-.14.77-.24,1.2-.05.19-.05.38-.05.58.1.43.24.82.24,1.25,0,.19-.05.67-.34.62-.14-.1-.24-.24-.34-.34ZM61.88,38.07c.1,0,.14-.05.19-.1.05-.05.1-.1.1-.19.05-.05.05-.14.05-.24v-.14s.05-.1.05-.14c0-.1-.05-.14-.14-.19h-.24s-.05.1-.1.1c0,.05-.05.1-.05.14s-.05.05-.05.1v.24s0,.05.05.1v.05s0,.05-.05.1c0,.05.05.14.14.19h.05ZM62.21,47.38c.14-.72.67-.48.82.1,0,.29-.19.53-.29.77-.1.14-.24.43-.43.24-.24-.24-.34-.91-.1-1.1ZM62.41,39.99c.53-.19.96-.58,1.49-.19.1,0,.1-.05.14-.1v-.1c-.14-.1-.29-.14-.38-.24-.14-.19-.29-.38-.53-.43-.19.24-.43.43-.67.62-.19.05-.14.29-.1.43h.05ZM68.31,38.31v-.34s-.05-.1-.14-.1-.14,0-.14.05c-.05.1-.05.19-.05.24v.14s.1.1.19.1c.05,0,.14-.05.14-.1ZM68.5,39.99c.1.1.1.24.1.34.05.24.24.91-.19.86-.38-.19-.62-1.68.1-1.2ZM69.75,18c.29-.24.72-.34,1.1-.19.1,0,.19.1.24,0,.24-.19.29-.53.53-.67.34-.05.53-.38.86-.38.1.05.14.19.14.29.05.24.29.38.38.58.05-.62-.48-1.34-.05-1.92.05-.14.19-.29.24-.48.1-.24.1-.53.14-.77.05-.24.14-.43.14-.62.05-.19.05-.43.24-.58.05-.05.14-.05.24-.05.1-.1.14-.24.19-.34.05-.53-.62-.48-.82-.86-.14-.14-.19-.38-.19-.58-.05-.29-.19-.53-.48-.67-.05.19-.14.43-.34.34-.38-.24-.14-.82-.19-1.15-.05-.1-.19-.14-.24-.19-.19-.1-.38-.1-.53-.05-.19.05-.34.19-.43.34-.05.05,0,.19,0,.24.05.24-.05.53-.19.72-.05.05-.1.1-.1.14,0,.14.14.24.24.34.19.24.19.53.19.77.05.24.05.48.05.72,0,.29-.38.96-.67.48-.1-.29.05-.62.1-.91.05-.1-.05-.58-.19-.43-.34.48-.72.38-.77-.19-.1-.34-.24-.62-.19-.96,0-.53.29-1.06.05-1.54-.1-.14-.19-.24-.34-.24-.1,0-.14,0-.19.05-.1.34-.14.67-.19,1.01,0,.29-.1.48-.14.77,0,.58.1,1.34-.48,1.73.48.43.72,1.2.38,1.78-.05.14-.24.34-.14.53.48.29.67.77.62,1.3-.05.58-.34,1.06-.48,1.58v.14c.14.1.34.19.48.19.24-.1.48-.19.77-.24ZM69.99,14.5c.1-.14.24-.34.43-.24.29.19.05,1.06-.38.91-.29-.1-.19-.48-.05-.67ZM74.31,42.77c.19-.38.48-.24.38.1-.05.34-.24.58-.48.82-.05.05-.1.14-.19.14-.05,0-.1.05-.19.05-.29-.24.24-1.01.48-1.1ZM75.7,15.65c.19-.34.19-.72.34-1.06.05-.19.29-.34.34-.53,0-.19.1-.34,0-.48,0-.1-.05-.14-.14-.19-.05,0-.1-.05-.1-.1-.05,0-.1,0-.1.05-.24.38-.19.86-.34,1.3-.05.29-.29.53-.43.77-.1.14-.34.58.05.62.19-.05.29-.24.38-.38ZM78.92,28.9c-.05-.1-.14-.14-.24-.14s-.19.05-.24.19c-.05.1-.05.19-.14.29-.14.19.05.48.1.72.24-.14.72-.82.53-1.06ZM79.98,39.12c.34-.19.34-1.2.14-1.49-.14,0-.48.29-.43.48.1.29.14.58.19.86,0,.05,0,.14.05.14h.05ZM81.66,44.02c-.05-.19-.14-.34-.1-.53,0-.48.29-.58.58-.14.24.38.38.96.14,1.39-.05.14-.19.19-.29.05-.14-.24-.24-.53-.34-.77ZM85.11,47.96c-.1-.29-.05-.67.05-.96.24-.43.53-.14.72.19,0,.05.05.1.05.14.1.19.14.48.14.62,0,.38-.43.77-.82.48-.14-.1-.14-.29-.14-.48Z"/>
  <path class="cls-1" d="M91.97,46.85c.05-.19.1-.34,0-.53-.05-.19-.14-.38-.34-.38h-.1l-.29.19c-.34.1-.43.53-.82.53-.29,0-.24-.29-.1-.48.05-.29.34-.43.58-.53,0-.1.05-.19.05-.29-.05-.14-.1-.24-.1-.38,0-.19.24-.34.29-.53-.19-.24-.14-.58.14-.72,0-.05,0-.1-.05-.1-.14-.24-.14-.43.05-.62.38-.38,1.25-1.39,1.1-1.92-.1-.24-.29-.34-.43-.53-.14-.19-.19-.48-.24-.72-.05-.14-.05-.34,0-.53,0-.24.19-.43.19-.72-.05-.19-.24-.24-.38-.34-.29-.14-.67-.24-.86.05v.19c.05.14.14.29.14.43l-.14.38c.29.43.05.77-.05,1.2,0,.14,0,.34-.05.48,0,.14-.14.19-.14.29,0,.38-.05.91-.48.43-.14-.19-.14-.43-.1-.67,0-.34.14-.67.14-1.01-.1-.24-.29-.53-.19-.82.05-.14.19-.29.1-.43-.34-.19-.05-.58-.05-.86,0-.1-.14-.1-.24-.14-.14-.05-.34-.14-.48-.14-.19.05-.29.38-.29.53,0,.29-.05.53-.14.77,0,.05,0,.1.05.14.14.34.29.67.19,1.01-.05.24-.14.43-.14.67.1.24.29.48.29.77,0,.24-.05.53,0,.77.05.24.1.48.1.77v.24c0,.34.05.82-.38.82-.29.05-.38-.19-.34-.43,0-.19,0-.34-.05-.48,0-.05-.05-.1-.05-.14-.77-.48.19-.91-.19-1.49-.14.1-.34-.05-.53.1-.24.19-.24.58-.29.82,0,.43-.05.77-.1,1.15,0,.1,0,.14.05.19.19.14.38.43.34.72-.1.29-.29.67-.67.67-.24,0-.43.24-.48.48.05.24.05.43-.05.62-.1.14-.19.19-.24.34s0,.34-.1.48c-.14.19-.43.19-.53-.05-.1-.19.05-.43.14-.62-.19-.34-.29-.77-.05-1.06.14-.14.29-.24.38-.38.1-.48.38-.91.43-1.39,0-.05,0-.1-.05-.1-.43-.48-.1-.91.1-1.34,0-.24.05-.43.05-.67-.1-.29-.1-.62.05-.91.05-.24.24-.53.14-.82-.1-.14-.19-.24-.19-.38-.05-.24.1-.38.14-.58.05-.29.1-.58.19-.86-.1-.19-.19-.38-.24-.58-.05-.19,0-.43.05-.62-.05-.34-.05-.72.1-1.06.05-.19-.05-.38-.1-.53,0-.29.14-.53.34-.77-.62-.72.1-1.06-.14-1.78-.14-.38-.29-.82-.24-1.2t-.05-.1c0-.24,0-.53.1-.77.05-.19.19-.34.19-.53-.1-.34,0-.72.14-1.06.05-.14.14-.29.14-.43-.05-.58-.53-1.1-.38-1.68-.05-.58.05-1.2.05-1.78-.1-.53-.05-1.06,0-1.63,0-.48-.1-1.01-.05-1.49-.05-.38-.19-.77-.14-1.15-.05-.29.19-1.25.58-.72.14.34.14.72.29,1.1.14.29.24.82.62.82.05,0,.05-.05.05-.05-.14-.29-.38-.53-.38-.82,0-.24.1-.48-.05-.72-.05-.14-.24-.19-.34-.34-.1-.29.19-.58.34-.82-1.15-1.01-.91-1.15-.86-2.59-.1-.62-.19-1.25-.1-1.87.14-.48.34-.96.34-1.49-.1-.34-.24-.67-.29-1.06-.05-.38.1-.86.05-1.3,0-.24-.1-.43-.14-.67,0-.24,0-.43-.05-.67,0-.29.19-.77.53-.67.14-.29,0-.58.14-.86-.34-.29-.67-.67-.67-1.1,0-.29.14-.48.19-.72-.14-.58.05-1.15,0-1.68-.1-.58-.19-1.15-.24-1.73.05-.43,0-1.73.67-1.58.58.1,1.15-.19,1.73.05.1.1.24.14.38.19.1,0,.19-.05.29,0,.19,0,.29.1.48.1.24-.1.38-.34.62-.38.34,0,.67,0,1.01-.1.38.05.82.05,1.2.05.43.05.82.05,1.2.1.29.05.53.19.82.24.14,0,.29-.05.43-.05.38,0,.72.24,1.06.34.29.05.58-.29.82-.38.24-.14.48-.24.77-.24.38,0,.77.1,1.15.14.14.05.53,0,.82.05,0-.05.05-.05.05-.05.62.1,1.25-.05,1.82.19.14.05.29.14.43.24.05,0,.1.05.14.05h.05l1.2.43c.48.19.96.34,1.34.67.48.38.82.86,1.39,1.2.43.14.77.58,1.2.72l.67.24c.38.14.62.53.91.82.29.48.58,1.01.82,1.49.19.38.24.77.43,1.1.1.14.24.24.29.34.05.14,0,.29-.05.43-.05.29,0,.58.1.86.05.19.24.34.29.58,0,.24.14.72,0,.96v.43c0,.24-.19.53-.1.77.1.19.24.34.24.53.05.34.05.62.1.91,0,.24,0,.43.05.67.1.38-.05.72-.05,1.1-.05.1.05.19.1.24.05.14.1.29.1.38-.1.38.14,2.5-.38,2.4-.05-.05-.05-.1-.05-.19-.05-.34.05-.72-.1-1.06-.24-.38.05-.86-.14-1.3-.1.24-.29.43-.43.62-.1.53-.1,1.06-.19,1.58-.05.29-.29.53-.43.77-.05.19-.05.34,0,.48,0,.24.1.43.14.62.05.29-.1.58,0,.86.05.38.1.77.05,1.15-.19.58-.72.53-.77-.1,0-.38.19-.77.29-1.2.1-.48-.34-.91-.38-1.39-.05-.05-.1-.05-.1-.05-.24.1-.38.34-.53.53-.1.19-.24.34-.29.53,0,.24.14.48.14.72l-.14.43c0,.34.05.72-.1,1.01,0,.14,0,.24.05.34.05.24.14.53.14.77-.05.19-.05.72-.34.58-.29-.24-.19-.67-.29-1.01,0-.14-.1-.29-.1-.43-.05-.43.1-.82,0-1.2,0-.1-.05-.34-.19-.29-.29,0-.53.1-.72.29l-.29.43c-.14.14-.34.29-.48.38-.05.14-.14.24-.19.38.29.43.58.96.67,1.49-.05.24-.1.43-.05.67.05.24.19.53.48.43.34-.05.43.34.48.58.05.24.24.43.24.72,0,.14-.05.29-.05.43.05.14.14.24.24.38.19.29.43.58.67.82.14.1.24.24.34.38.24.29.34.67.43,1.06.14.19.29.43.29.67.05.24.05.53-.24.48-.05.05-.1.05-.14.05l-.19.19c-.14.14-.38.19-.53.24-.1.05-.14.14-.19.19-.1.14-.24.29-.43.34.24,0,.48.05.72-.05.24-.1.48-.29.77-.29.43-.05.86.1,1.15.38.1.1.1.29.14.38.1.24.24.43.38.62.14.14.19.29.24.48.19.24.29.53.34.86.1.29.29.62.14.91-.19.38-.19.62.14.86.14.14.24.29.43.38.19.1.43.1.58.24.1.14.58,1.2.38,1.34v.05c.1.05.19.1.29.19.05.1,0,.19,0,.29.1.05.24.1.29.19.19.14.1.58-.14.53-.24,0-.38-.24-.48-.43-.05-.05-.05-.1-.1-.1s-.1,0-.14-.05c-.19,0-.19.14-.14.24.05.24.29.38.34.62.05.34-.29.53-.43.72.05.14.14.24.19.38.1.14.05.48-.19.38-.1,0-.14-.1-.19-.14l-.14-.19c-.24-.14-.34-.48-.24-.72.05-.19.1-.34.1-.48.05-.24-.1-.43-.05-.67,0-.1.1-.24.1-.34,0-.05-.05-.05-.05-.1-.34-.1-.34-.34-.29-.62,0-.1.05-.24-.1-.24-.1,0-.24.05-.29.1,0,.05-.05.1-.05.14.24.58-.38.38-.53.77.05.34.05.67.14,1.01.05.1.14.14.14.29.05.14-.05.29-.05.43.1.24.19.43.1.67-.05.1-.14.19-.14.34.05.14.14.29.14.43,0,.29-.24.53-.38.77-.1.14.1.29.1.43.05.19,0,.53-.29.53-.29-.05-.43-.43-.38-.72.05-.29.24-.58.29-.86.05-.14-.05-.24-.1-.38s.1-.29.1-.43c.14-.43,0-.82-.19-1.2-.1-.24,0-.48-.05-.67-.1-.19-.05-.34-.05-.48-.05-.1-.1-.14-.14-.19-.05-.1-.05-.19-.1-.24-.05-.14-.14-.14-.29-.1-.29,0-.58.24-.77.48,0,.1-.05.19,0,.24,0,.1.05.19.05.29-.05.24-.1.48-.29.67,0,.05-.05.1-.1.14l-.14.38c.05.19.14.34.14.53t.05.1c.24.19.29.29.14.62.1.1.24.19.29.38.05.19-.14.38-.34.34s-.34-.19-.34-.38c0-.14.05-.34-.05-.53-.05,0-.1,0-.14-.05-.1,0-.14-.05-.14-.1-.1-.19-.05-.43-.14-.58-.14-.29-.29-.53-.58-.67,0-.05-.05-.05-.05-.05-.24.14-.38.38-.58.53-.24.29-.48.19-.53-.14-.1-.53.48-.72.72-1.01.24-.24.43-.53.58-.77,0-.05,0-.1-.05-.14-.05-.1-.05-.19-.1-.29-.19-.05-.38-.19-.43-.43-.05-.19-.24-.1-.38-.1-.05,0-.1.05-.14.1l.05.19c.14.29-.1.34-.29.48-.19.1-.14.24-.14.38.05.24.05.43-.1.58-.1.24-.43.24-.53-.05-.1-.14,0-.34-.05-.53,0-.19,0-.38-.05-.58-.19,0-.34-.14-.38-.29s-.1-.38-.24-.48c-.38-.14-.19.53-.14.72.05.19.14.38.05.58-.1.29-.43.48-.48.82.05.19.1.38.1.58,0,.24-.14.38-.19.58-.05.38-.19.77-.34,1.1-.1.38.19.67.19,1.06,0,.1-.05.24,0,.38.05.19.19.34.14.53,0,.29-.29.53-.24.82,0,.29.29.58.19.86-.1.19-.34.29-.53.29-.48-.1-.62-.72-.53-1.15.05-.34.38-.53.48-.82.1-.29.14-.62.05-.91-.14-.19-.19-.43-.19-.67,0-.19-.1-.34-.1-.48-.05-.34.34-.62.24-.96-.05-.1-.19-.19-.24-.34-.1-.14-.05-.29-.05-.43l-.1-.82c0-.1,0-.24-.14-.34,0,0-.05-.05-.1-.05,0,.1-.05.14-.1.24-.05.1-.05.24-.1.34-.05.14-.1.29-.24.38-.05.05-.1.1-.1.14-.05.24-.14.38-.34.53-.05.05-.05.14-.1.24-.05.19-.14.38-.24.58.19.67.1.62-.38,1.01-.1.1-.48.48-.58.29-.1-.19.1-.34.19-.48.1-.1.05-.24.1-.34,0-.24.19-.38.29-.58.1-.43.29-.86.48-1.25,0-.1.05-.14.05-.24-.24-.29-.14-.48-.05-.77-.1.05-.14.05-.19.1-.29.19-.34.96-.82.77-.19-.1-.19-.34-.05-.48.1-.05.19,0,.29,0,.1-.05.1-.14.1-.24,0,0-.05.05-.1.05-.1-.1-.1-.24-.05-.34.05-.14.19-.24.38-.29.24-.14.53-.24.72-.43v-.05c0-.14.1-.34.19-.53,0-.19-.19-.38-.24-.58-.14-.24-.05-.53-.14-.77-.05-.19-.24-.24-.34-.38-.19-.19-.24-.43-.19-.72,0-.19-.05-.38-.05-.58-.05-.05-.05-.14-.05-.24.05-.05.1-.14.1-.24-.19-.14-.43-.14-.62-.29-.24-.14-.05-.48-.05-.72l-.19-.19c-.14-.14-.05-.24-.05-.38.05-.24-.05-.48-.05-.77-.1-.24-.14-.53-.29-.67-.34-.19-.34.58-.38.72-.05.24-.24.38-.24.62s.14.48.19.77c.29,1.25-1.34,1.25-.82,0,.1-.24.38-.48.34-.77-.05-.1-.14-.14-.14-.24-.05-.19-.05-.34.05-.48.1-.05.14-.1.19-.19.14-.29.1-.72.19-1.01,0-.14.05-.24,0-.38-.14-.19-.24-.43-.24-.72,0-.38.19-.77-.19-1.06-.19-.24-.1-.58-.14-.86-.05-.1-.29-.05-.29.1,0,.19-.19.34-.19.48v.05c0,.19,0,.38.05.58.05.1.1.14.1.19.05.19,0,.29,0,.43-.1.34,0,1.06-.34,1.2-.34-.05-.14-.62-.24-.86-.05-.1-.14-.19-.24-.34-.14-.24-.1-.53-.05-.82,0-.43.24-.82.24-1.2-.1-.62-.43-.96-.1-1.63v-.05c-.14-.43-.48-.77-.53-1.2-.05-.14,0-.34,0-.48,0-.1-.05-.19-.1-.29-.05-.24.05-.58-.19-.77-.1-.05-.24-.05-.34.05-.05.19-.05.43-.14.62-.05.1-.1.19-.1.29,0,.29.05.58,0,.86l-.14.58c.1.38.14.77.29,1.15.1.19.19.38.14.58,0,.19-.05.38-.1.53,0,.14.05.29.05.43-.05.38-.14.72-.14,1.06,0,.19-.05.34,0,.53.05.19.19.38.19.62,0,.29-.14.53-.29.77-.1.14-.24.19-.38.29.53.43.77.77.62,1.44-.05.24.1.48,0,.72-.05.14-.19.24-.29.38-.1.14-.1.34-.1.48h.05s.1.14.05.19c0,.14-.05.24,0,.38,0,.24.14.38.14.62.05.19-.1.38-.1.58,0,.14.1.24.14.38.14.29-.05.58-.24.82-.05.29.19.48.38.67.19.1.38.14.48.34.14.14.24.67-.05.72-.14,0-.24-.14-.34-.19.05.19.14.58-.14.72-.14,0-.38.14-.34.34.58.43.77-.05,1.06.86.19.29.53.43.82.72.05,0,.14-.1.19-.05.1,0,.19,0,.29.05.05.05.14.14.24.19.05.1.05.19.1.29.58.38.14,1.2-.48.58-.1-.05-.14-.19-.24-.29-.14-.1-.29,0-.29.14l.19.29c.1.1.1.24.1.34,0,.24.05.48-.1.67.1.19.29.43.14.62-.34.24-.53-.05-.62-.34-.05-.1-.1-.1-.19-.14-.29-.19-.19-.58-.14-.82.05-.14,0-.24-.05-.34l-.29-.29s-.1-.05-.14-.14c-.1-.24,0-.58-.19-.82-.48-.38-1.25.14-1.63-.38-.14-.19-.24-.48-.19-.72.29-.67.38-1.54-.24-1.97-.19-.05-.34-.19-.43-.34-.14-.24-.48-.58-.67-.24-.05.05-.1.14-.1.24.05.14.19.24.24.38,0,.24-.05.43.05.62.1.38.29.82.1,1.15-.05.14-.14.24-.24.38-.1.24-.05.48.05.67.24.19.48.43.43.77,0,.14-.14.29-.34.38-.1.05-.24.05-.34.19l-.43.96c-.19.24-.24.62,0,.86l.48.43c.19.1.19.34.34.48.05.1.19.1.24.19.14.29.53.62.38.96-.05.05-.1.1-.19.1-.34-.1-.38-.48-.72-.58-.05-.05-.14,0-.24,0-.24-.05-.34-.38-.58-.53-.05.1-.1.19-.19.29l.19.29c.1.19.1.43.14.62.05.29-.14.67-.48.58-.24-.14-.48-.43-.43-.77ZM87.99,39.75v-.14c0-.14-.1-.29-.1-.43-.05-.19,0-.34-.05-.48-.14,0-.14.19-.29.19-.05.19.1.38.1.62,0,.1-.05.24-.1.38-.05.19.05.34.19.48.1-.19.14-.43.24-.62ZM88.76,45.12c-.14.05-.24.1-.38,0-.1-.1-.24-.43-.1-.53.1-.58.82-.24,1.1,0,.14.14.29.29.34.48.1.29-.1.58-.43.48-.24-.05-.34-.34-.53-.43ZM90.82,41c.1-.19.19-.53.48-.58.53.19.29.96-.1,1.2-.05.1-.14.24-.29.14-.24-.19-.19-.53-.1-.77ZM94.28,39.99c.05-.1.05-.24.05-.34h.05c-.1-.24.14-.53.34-.29.14.19-.05,1.06-.34.91-.1-.05-.1-.19-.1-.29ZM96.49,44.6s-.14-.05-.24-.1c-.14-.05-.19-.24-.24-.38-.05-.19-.05-.38,0-.58,0-.24.05-.48.19-.67.1-.1.24-.1.38,0,.38.14.34.62.19.96-.05.19.19.38.24.58.14.19.14.86-.19.77-.19-.1-.19-.38-.34-.58ZM98.98,18.29s.05.05.05,0c.34-.34.82-.53,1.15-.86.14-.1.29-.14.48-.1.1,0,.19.1.29.05.24-.38.19-.86.19-1.34,0-.43.19-.91.38-1.3.1-.24,0-.43,0-.67.05-.29.24-.58.48-.77-.24-.67-.86-1.2-.91-1.92-.05-.34,0-.72-.34-.91h-.19c-.14,0-.29,0-.38.14.1.29.05.62-.1.91-.14.19-.38-.05-.43-.19-.1-.24.1-.48.05-.72-.1-.24-.14-.48-.05-.77,0-.05,0-.14-.05-.19-.1-.1-.19-.19-.34-.24l-.24.29-.29.14c-.05.24.05.48.05.72-.14.34-.29.72-.29,1.1,0,.29.1.53.05.82,0,.19.1.43.05.62,0,.19-.14.29-.19.48-.05.1-.05.24-.1.38-.14.24-.29.05-.38-.14-.19-.48.05-1.06-.19-1.58-.05-.34.14-.62.14-.96-.05-.14-.14-.29-.19-.48-.05-.14,0-.29,0-.43.05-.24-.19-.43-.19-.67-.24,0-.48,0-.67.05.05.14-.05.29-.05.43,0,.38-.1.77-.05,1.15,0,.24.14.38.19.58.05.24,0,.48-.05.77-.05.14,0,.29,0,.48.05.14,0,.34-.05.53,0,.24.14.48.1.77-.1.29-.24.58-.38.82-.14.19-.24.34-.29.48.43.34.24.91.43,1.39.1.1.24.24.29.43.05.24-.05.53.1.82.19.19.58.14.86.14.38,0,.67-.38,1.06-.24ZM99.13,12.96c0-.19-.05-.34.05-.48,0-.24.34-.38.53-.38.14.1.34.24.38.48,0,.29-.24.58-.43.77-.14.1-.24.43-.48.29-.19-.19-.1-.48-.05-.67ZM103.93,38.55l-.34-.34s-.14-.05-.24-.05c-.05.05-.1.1-.14.05,0,.1.1.14.14.19.1.14.19.34.24.53,0,.1.1.19.14.19.29-.05.29-.38.19-.58ZM107.53,32.59c-.1,0-.24-.05-.29,0-.05.05-.1.05-.1.1.14-.05.24-.1.38-.1ZM108.63,38.93c.05-.14.34-.24.29-.43-.05-.05-.1-.1-.14-.1s-.1,0-.14-.05c0,.05-.05.05-.1.05l-.14.34c-.05.34-.29.62-.14.96.19-.24.19-.53.38-.77Z"/>
  <path class="cls-1" d="M126.2,46.71c-.1-.14-.24-.34-.24-.53,0-.29.19-.58.24-.91.05-.67-.19-1.34-.24-2.02-.05-.48.14-.96.1-1.44-.58-.43-.24-.72-.05-1.2.05-.43.05-.96-.24-1.3-.34.24-.19.67-.24,1.01-.1.38-.53.62-.86.58-.19,0-.43-.05-.58.05,0,.24-.05.43-.14.67-.1.1-.19.24-.14.43,0,.34.1.62.1.96-.05.29-.48.38-.72.29-.34-.19-.48-.62-.53-.96-.05-.29-.29-.53-.29-.82s.05-.62-.1-.91c-.24,0-.48,0-.67.14-.1.1-.14.24-.19.38-.19.19-.29.43-.38.67-.1.24-.34.38-.53.58.29.24.34.67.62.96.1.05.24.05.34.1.1.1.1.34-.05.38-.05,0-.14,0-.19.05-.05.14-.14.24-.24.29-.19.19,0,.48.05.67.05.67-.58,1.25-1.15.62-.14-.24.1-.58-.1-.82-.05-.14-.24-.24-.29-.38-.19-.58.29-1.15.14-1.73,0-.05-.05-.1-.05-.14-.14.19-.29.38-.48.48-.05.05-.1.05-.14.14-.14.19-.29.53-.58.58-.14-.05-.29-.1-.43-.05-.34.34-.67,1.06-1.3.67-.34-.24-.34-.86-.14-1.2l.62-.43c.29-.1.58-.05.86-.14.43-.05.29-.53.53-.82.05-.19.24-.24.43-.34.1-.1.19-.14.34-.24.05-.05.14-.14.19-.24h.05c.14-.19.24-.38.38-.53.24-.29.43-.72.43-1.1-.77-.34-1.15-.34-.96-1.3.05-.14-.1-.24-.14-.38-.24-.38-.34-.82-.58-1.25-.05.29-.24.48-.34.72,0,.19.14.38.19.58.1.19.05.43.05.67v.05c.14.05.19.14.24.24.14.29.1.67,0,.96-.1.24-.29.43-.53.43-.19-.05-.43-.05-.58-.24-.1-.48.19-1.01.05-1.49-.05-.24-.19-.38-.29-.58-.14-.29-.05-.58-.1-.86-.05-.14-.14-.29-.24-.38-.05-.14-.1-.34-.1-.53-.05-.24-.14-.53-.1-.82.05-.24.14-.53.05-.77,0-.19-.14-.34-.19-.53-.05-.19-.05-.38-.05-.58.05-.24,0-.48-.24-.67l-.05.05c-.14-.05-.19-.14-.29-.24-.14-.1-.19-.24-.24-.38-.1-.38-.29-.72-.34-1.1,0-.19-.1-.43,0-.58,0-.05.05-.1.05-.1,0-.05,0-.1.05-.1,0-.1.05-.19.14-.24.05-.24-.1-.29-.53-.34-.29-.05-.53-.29-.53-.58s.1-.58.05-.86c-.05-.14-.29-.19-.38-.34-.24-.1-.38-.34-.43-.58-.1-.24-.1-.58-.1-.82-.05-.43-.1-.82.1-1.2.05-.14.24-.19.29-.34.14-.29.53-.34.82-.38.34-.1.67.43.96.14.05-.05.1-.1.1-.14,0-.14-.05-.29-.05-.43-.05-.43-.43.1-.67.1s-.48-.05-.72-.1c-.34,0-.62-.1-.91-.29-.43-.43-.43-1.15-.14-1.63.05-.1.05-.14.05-.19.05-.14-.1-.29-.14-.43-.38-.53-.38-1.1-.14-1.73.29-.72.48-1.54.24-2.3-.05-.29-.1-.58-.19-.82-.14-.38-.38-.72-.34-1.15.24-.43.43-.91.48-1.39.05-.62.05-1.15.14-1.78.1-.43.24-.86.48-1.25.14-.24.43-.38.48-.67.05-.29,0-.62.14-.86.05-.19.19-.29.29-.38l.53-.67c.1-.1.24-.14.38-.19.29-.19.48-.48.77-.72-.34-.43-.48-1.06-.24-1.58.19-.34.48-.62.72-.91.24-.24.53-.29.77-.43.19-.14.38-.34.38-.62,0-.43.38-.67.67-.96.24-.24.53-.43.86-.62.34-.14.62-.38.96-.53.38-.1.77-.19,1.06-.43.43-.34.86-.53,1.39-.72.19-.1.38-.29.62-.34.43.1.86.29,1.34.43.1.05.19,0,.29-.05.48-.24.96-.62,1.49-.67.34,0,.67,0,.96.05.1,0,.29,0,.34.1.19,0,.29-.05.48,0,.38.1.82.05,1.25.14.58.19,1.15.48,1.78.58.24,0,.48-.1.67.05.58.43,1.39,1.78,2.11,1.78.29-.05.62-.14.86.05.34.29.48.77.67,1.15.24.34.53.62.82.86.1.05.19.1.29.1.14,0,.29,0,.38.1.38.43.72,1.01.53,1.63v.14c.14.14.34.24.48.38.1.1.14.24.19.34.38.24.62.72.77,1.15.14.72-.43,1.73.29,2.26.24.1.58.24.62.53.1.24.05.53.14.72.1.29.14.58.05.82-.1.34-.43.53-.72.48-.34.05-.62.24-.77.53-.05.29.58.34.77.38.38.14.91,0,1.15.38.24.58.05,1.15-.05,1.73-.05.24-.1.48-.19.67-.05.29-.29.62-.14.91.14.1.34.14.48.24.34.29.43.77.24,1.15-.1.19-.29.38-.43.62-.19.38-.29.86-.1,1.25.14.24.43.29.53.53.1.19,0,.43-.1.62-.1.24-.19.48-.24.77-.05.38,0,.77-.1,1.15,0,.1,0,.19-.05.24,0,.1,0,.19.05.24.1.34.1.72-.05,1.01-.14.19-.34.29-.43.43-.14.14-.19.38-.34.53-.1.24-.34.48-.34.72.48.86.29,1.73-.34,2.45-.19.24-.48.38-.62.67-.05.14,0,.34-.05.48v.77c.1.53-.34,1.06-.86,1.1-.19.72-.14,1.49-.34,2.21-.1.34-.43.62-.58.1-.1-.34-.05-.72-.05-1.1,0-.05-.05-.14-.05-.24v-.48c-.05-.29-.19-.58-.29-.86-.1-.38-.05-.72-.29-1.01-.1-.14-.1-.34-.1-.48.05-.24.14-.43.05-.62,0-.05-.05-.1-.05-.05-.29.29-.34.67-.29,1.06,0,.62.19,1.15.38,1.73,0,.29.05.58-.1.82-.05.1-.05.19-.05.29-.05.34,0,.72,0,1.06,0,.58-.24.96-.77,1.2,0,0-.05.05-.05.1-.19.34,0,.67-.1,1.01-.1.67-.48,1.44-.14,2.06.29.43.62.91.86,1.34.19.24.48.48.53.77.05.58-.1,1.2-.24,1.73-.1.24-.14.53-.29.77-.19.34-.58.62-.58,1.06.1.29.14.58,0,.91-.14.29-.29.62-.48.91-.19.14-.29-.29-.34-.38-.1-.24-.19-.48-.1-.72.14-.34.14-.72-.05-1.06-.24-.14-.48-.24-.67-.43-.38-.34-.62-.82-.91-1.2-.14-.14-.29-.29-.38-.48-.14-.43-.14-.96-.14-1.39-.05-.38-.14-.72-.1-1.1,0-.1-.05-.19-.1-.29-.34-.58-.48-.19-.86.05-.19.1-.43,0-.62,0-.19.24-.38.38-.58.62-.1.38-.24.72-.34,1.1-.1.58.1,1.06.24,1.58.05.58.05,1.1.05,1.68,0,.1-.1.34-.24.24-.34-.24-.43-.72-.62-1.06-.1-.19-.34-.29-.43-.48-.14-.14-.14-.34-.14-.53,0-.34,0-.67-.1-.96-.14-.1-.34-.19-.53-.19-.24.14-.19.53-.43.67-.14.1-.38,0-.58,0l-.14.19-.14.62c.05.19.1.34.1.53s-.05.38-.05.58c.05.24.1.43.1.67-.05.48-.19.96-.29,1.39,0,.19-.1.34-.05.48v.24c-.05.1-.19.1-.24,0-.05-.34-.14-.62-.29-.91ZM116.31,20.02c-.05-.48-.1-1.01.14-1.44.67-.91-.1-.82.05-1.58.1-.43.58-.67.58-1.15,0-.38-.29-.67-.43-1.01-.14-.1-.14-.24-.29-.34-.1-.05-.19-.05-.24-.1-.1.38-.38.72-.48,1.06-.14.53.14,1.1,0,1.63-.29.67-.43,1.15-.1,1.78.1.86.14,1.68.58,2.45,0,0,0,.05.05.05,0-.43.1-.91.14-1.34ZM118.76,8.5c.24-.05.53-.14.58-.43-.05-.1-.1-.24-.1-.34-.14.05-.29.05-.38.1-.19.24-.34.48-.53.67-.19.1-.38.1-.53.19.05.1.14.24.29.24.24-.1.38-.34.67-.43ZM128.22,30.43s.1,0,.14-.05c.24-.14.34-.34.53-.48.19-.24.48-.48.62-.77.29-.43.34-.91.58-1.34.19-.43.72-.72.82-1.2.24-.62-.05-1.25-.1-1.92-.05-.53.19-1.01.24-1.49-.38-1.3-.53-1.58.19-2.74.05-.34-.14-.67-.29-.96-.14-.34-.19-.77.05-1.06.14-.14.34-.29.43-.48,0-.19-.1-.29-.19-.43-.19-.34-.38-.82-.24-1.25.14-.29.43-.48.38-.86,0-.34-.19-.67-.38-.96-.43-.43-.82-.96-.67-1.58.1-.29.19-.53.05-.77-.1-.48-.48-.82-.67-1.3-.24.38.14.77.1,1.2,0,.24-.14.43-.29.58-.05.29-.05.58-.14.82-.1.24-.29.34-.38.1-.29-.29-.48-.67-.43-1.06,0-.38.34-.96-.05-1.25-.1-.1-.14-.29-.19-.43-.1-.43.05-1.01-.34-1.34-.19-.05-.43,0-.62-.1-.1.14-.19.24-.29.34-.1.29-.14.62-.29.86-.05.1-.1.14-.1.19.14.58.58,1.3.1,1.82-.14.19-.34.38-.34.62.58,1.15-.38,1.25-.24,2.3.05.34.29.67.14.96-.1.19-.34.19-.53.14-.14-.05-.24-.24-.29-.43-.1-.24-.14-.53-.19-.77v-1.01c0-.24-.05-.48,0-.72.05-.38.24-.77.19-1.15-.1-.34-.19-.67-.14-1.01,0-.29.14-.67-.1-.86h-.1s-.05,0-.05.05c-.05.05-.1.1-.14.19-.29.58-.91,1.01-1.01,1.68,0,.34.24,1.1-.14,1.2,0,.72.1,1.49-.34,2.11-.14.24-.48.43-.48.72-.05.58.34,1.01.48,1.49.1.29.05.58,0,.82-.14.58.1,1.2.19,1.73.14.53.1,1.06.24,1.54.38.82.1,1.68.05,2.54,0,.53-.29,1.06-.05,1.58.24.34.72.34.96.72.34.53.58,1.1.62,1.78-.05.34-.19.62-.14.96.1.67.86.91,1.44.91.43-.1.91-.62,1.39-.19ZM123.51,39.65h.05l.24-.14c.19,0,.67-.05.53-.34-.05-.1-.19-.1-.29-.14-.1,0-.14-.1-.24-.14-.05,0-.1.05-.1.05t-.05.05s0,.05-.05.05c0,0,0,.05-.05.05,0,.05-.05.1-.1.1,0,.05-.05.1-.1.14,0,.14-.05.29.05.43,0-.05.05-.1.1-.1ZM128.31,15.03c.1-.19.14-.34.34-.43.53-.19.77.53.53.91-.05.14-.19.19-.29.34-.14.14-.29.43-.53.38-.58-.19-.29-.86-.05-1.2ZM129.75,40.08c-.14-.24.05-.58-.14-.77-.1-.1-.19-.24-.34-.24h-.05c-.1.14-.29.29-.29.48,0,.05.05.1.05.1,0,.05.05.05.05.1s.05.1.05.14c.05.14.19.19.29.34.05,0,.1.1.1.14.1-.1.24-.14.29-.29ZM135.22,43.2s.19,0,.24-.1c.05-.19.1-.48.05-.67-.34-.1-.53-.38-.58-.67-.1-.34-.14-.67-.43-.91-.1-.05-.19-.24-.29-.14-.05.19-.24.29-.29.43-.1.19.1.29.19.38.1.19-.1.38-.14.53.1.24.19.53.19.77.05.19.05.38.05.53.1.1.24.1.34.24.14.19.05.43.43.48.05-.29-.14-.82.24-.86Z"/>
  <path class="cls-1" d="M149.38,46.85c.05-.19.1-.34,0-.53-.05-.19-.14-.38-.34-.38h-.1l-.29.19c-.34.1-.43.53-.82.53-.29,0-.24-.29-.1-.48.05-.29.34-.43.58-.53,0-.1.05-.19.05-.29-.05-.14-.1-.24-.1-.38,0-.19.24-.34.29-.53-.19-.24-.14-.58.14-.72,0-.05,0-.1-.05-.1-.14-.24-.14-.43.05-.62.38-.38,1.25-1.39,1.1-1.92-.1-.24-.29-.34-.43-.53-.14-.19-.19-.48-.24-.72-.05-.14-.05-.34,0-.53,0-.24.19-.43.19-.72-.05-.19-.24-.24-.38-.34-.29-.14-.67-.24-.86.05v.19c.05.14.14.29.14.43l-.14.38c.29.43.05.77-.05,1.2,0,.14,0,.34-.05.48,0,.14-.14.19-.14.29,0,.38-.05.91-.48.43-.14-.19-.14-.43-.1-.67,0-.34.14-.67.14-1.01-.1-.24-.29-.53-.19-.82.05-.14.19-.29.1-.43-.34-.19-.05-.58-.05-.86,0-.1-.14-.1-.24-.14-.14-.05-.34-.14-.48-.14-.19.05-.29.38-.29.53,0,.29-.05.53-.14.77,0,.05,0,.1.05.14.14.34.29.67.19,1.01-.05.24-.14.43-.14.67.1.24.29.48.29.77,0,.24-.05.53,0,.77.05.24.1.48.1.77v.24c0,.34.05.82-.38.82-.29.05-.38-.19-.34-.43,0-.19,0-.34-.05-.48,0-.05-.05-.1-.05-.14-.77-.48.19-.91-.19-1.49-.14.1-.34-.05-.53.1-.24.19-.24.58-.29.82,0,.43-.05.77-.1,1.15,0,.1,0,.14.05.19.19.14.38.43.34.72-.1.29-.29.67-.67.67-.24,0-.43.24-.48.48.05.24.05.43-.05.62-.1.14-.19.19-.24.34s0,.34-.1.48c-.14.19-.43.19-.53-.05-.1-.19.05-.43.14-.62-.19-.34-.29-.77-.05-1.06.14-.14.29-.24.38-.38.1-.48.38-.91.43-1.39,0-.05,0-.1-.05-.1-.43-.48-.1-.91.1-1.34,0-.24.05-.43.05-.67-.1-.29-.1-.62.05-.91.05-.24.24-.53.14-.82-.1-.14-.19-.24-.19-.38-.05-.24.1-.38.14-.58.05-.29.1-.58.19-.86-.1-.19-.19-.38-.24-.58-.05-.19,0-.43.05-.62-.05-.34-.05-.72.1-1.06.05-.19-.05-.38-.1-.53,0-.29.14-.53.34-.77-.62-.72.1-1.06-.14-1.78-.14-.38-.29-.82-.24-1.2t-.05-.1c0-.24,0-.53.1-.77.05-.19.19-.34.19-.53-.1-.34,0-.72.14-1.06.05-.14.14-.29.14-.43-.05-.58-.53-1.1-.38-1.68-.05-.58.05-1.2.05-1.78-.1-.53-.05-1.06,0-1.63,0-.48-.1-1.01-.05-1.49-.05-.38-.19-.77-.14-1.15-.05-.29.19-1.25.58-.72.14.34.14.72.29,1.1.14.29.24.82.62.82.05,0,.05-.05.05-.05-.14-.29-.38-.53-.38-.82,0-.24.1-.48-.05-.72-.05-.14-.24-.19-.34-.34-.1-.29.19-.58.34-.82-1.15-1.01-.91-1.15-.86-2.59-.1-.62-.19-1.25-.1-1.87.14-.48.34-.96.34-1.49-.1-.34-.24-.67-.29-1.06-.05-.38.1-.86.05-1.3,0-.24-.1-.43-.14-.67,0-.24,0-.43-.05-.67,0-.29.19-.77.53-.67.14-.29,0-.58.14-.86-.34-.29-.67-.67-.67-1.1,0-.29.14-.48.19-.72-.14-.58.05-1.15,0-1.68-.1-.58-.19-1.15-.24-1.73.05-.43,0-1.73.67-1.58.58.1,1.15-.19,1.73.05.1.1.24.14.38.19.1,0,.19-.05.29,0,.19,0,.29.1.48.1.24-.1.38-.34.62-.38.34,0,.67,0,1.01-.1.38.05.82.05,1.2.05.43.05.82.05,1.2.1.29.05.53.19.82.24.14,0,.29-.05.43-.05.38,0,.72.24,1.06.34.29.05.58-.29.82-.38.24-.14.48-.24.77-.24.38,0,.77.1,1.15.14.14.05.53,0,.82.05,0-.05.05-.05.05-.05.62.1,1.25-.05,1.82.19.14.05.29.14.43.24.05,0,.1.05.14.05h.05l1.2.43c.48.19.96.34,1.34.67.48.38.82.86,1.39,1.2.43.14.77.58,1.2.72l.67.24c.38.14.62.53.91.82.29.48.58,1.01.82,1.49.19.38.24.77.43,1.1.1.14.24.24.29.34.05.14,0,.29-.05.43-.05.29,0,.58.1.86.05.19.24.34.29.58,0,.24.14.72,0,.96v.43c0,.24-.19.53-.1.77.1.19.24.34.24.53.05.34.05.62.1.91,0,.24,0,.43.05.67.1.38-.05.72-.05,1.1-.05.1.05.19.1.24.05.14.1.29.1.38-.1.38.14,2.5-.38,2.4-.05-.05-.05-.1-.05-.19-.05-.34.05-.72-.1-1.06-.24-.38.05-.86-.14-1.3-.1.24-.29.43-.43.62-.1.53-.1,1.06-.19,1.58-.05.29-.29.53-.43.77-.05.19-.05.34,0,.48,0,.24.1.43.14.62.05.29-.1.58,0,.86.05.38.1.77.05,1.15-.19.58-.72.53-.77-.1,0-.38.19-.77.29-1.2.1-.48-.34-.91-.38-1.39-.05-.05-.1-.05-.1-.05-.24.1-.38.34-.53.53-.1.19-.24.34-.29.53,0,.24.14.48.14.72l-.14.43c0,.34.05.72-.1,1.01,0,.14,0,.24.05.34.05.24.14.53.14.77-.05.19-.05.72-.34.58-.29-.24-.19-.67-.29-1.01,0-.14-.1-.29-.1-.43-.05-.43.1-.82,0-1.2,0-.1-.05-.34-.19-.29-.29,0-.53.1-.72.29l-.29.43c-.14.14-.34.29-.48.38-.05.14-.14.24-.19.38.29.43.58.96.67,1.49-.05.24-.1.43-.05.67.05.24.19.53.48.43.34-.05.43.34.48.58.05.24.24.43.24.72,0,.14-.05.29-.05.43.05.14.14.24.24.38.19.29.43.58.67.82.14.1.24.24.34.38.24.29.34.67.43,1.06.14.19.29.43.29.67.05.24.05.53-.24.48-.05.05-.1.05-.14.05l-.19.19c-.14.14-.38.19-.53.24-.1.05-.14.14-.19.19-.1.14-.24.29-.43.34.24,0,.48.05.72-.05.24-.1.48-.29.77-.29.43-.05.86.1,1.15.38.1.1.1.29.14.38.1.24.24.43.38.62.14.14.19.29.24.48.19.24.29.53.34.86.1.29.29.62.14.91-.19.38-.19.62.14.86.14.14.24.29.43.38.19.1.43.1.58.24.1.14.58,1.2.38,1.34v.05c.1.05.19.1.29.19.05.1,0,.19,0,.29.1.05.24.1.29.19.19.14.1.58-.14.53-.24,0-.38-.24-.48-.43-.05-.05-.05-.1-.1-.1s-.1,0-.14-.05c-.19,0-.19.14-.14.24.05.24.29.38.34.62.05.34-.29.53-.43.72.05.14.14.24.19.38.1.14.05.48-.19.38-.1,0-.14-.1-.19-.14l-.14-.19c-.24-.14-.34-.48-.24-.72.05-.19.1-.34.1-.48.05-.24-.1-.43-.05-.67,0-.1.1-.24.1-.34,0-.05-.05-.05-.05-.1-.34-.1-.34-.34-.29-.62,0-.1.05-.24-.1-.24-.1,0-.24.05-.29.1,0,.05-.05.1-.05.14.24.58-.38.38-.53.77.05.34.05.67.14,1.01.05.1.14.14.14.29.05.14-.05.29-.05.43.1.24.19.43.1.67-.05.1-.14.19-.14.34.05.14.14.29.14.43,0,.29-.24.53-.38.77-.1.14.1.29.1.43.05.19,0,.53-.29.53-.29-.05-.43-.43-.38-.72.05-.29.24-.58.29-.86.05-.14-.05-.24-.1-.38s.1-.29.1-.43c.14-.43,0-.82-.19-1.2-.1-.24,0-.48-.05-.67-.1-.19-.05-.34-.05-.48-.05-.1-.1-.14-.14-.19-.05-.1-.05-.19-.1-.24-.05-.14-.14-.14-.29-.1-.29,0-.58.24-.77.48,0,.1-.05.19,0,.24,0,.1.05.19.05.29-.05.24-.1.48-.29.67,0,.05-.05.1-.1.14l-.14.38c.05.19.14.34.14.53t.05.1c.24.19.29.29.14.62.1.1.24.19.29.38.05.19-.14.38-.34.34s-.34-.19-.34-.38c0-.14.05-.34-.05-.53-.05,0-.1,0-.14-.05-.1,0-.14-.05-.14-.1-.1-.19-.05-.43-.14-.58-.14-.29-.29-.53-.58-.67,0-.05-.05-.05-.05-.05-.24.14-.38.38-.58.53-.24.29-.48.19-.53-.14-.1-.53.48-.72.72-1.01.24-.24.43-.53.58-.77,0-.05,0-.1-.05-.14-.05-.1-.05-.19-.1-.29-.19-.05-.38-.19-.43-.43-.05-.19-.24-.1-.38-.1-.05,0-.1.05-.14.1l.05.19c.14.29-.1.34-.29.48-.19.1-.14.24-.14.38.05.24.05.43-.1.58-.1.24-.43.24-.53-.05-.1-.14,0-.34-.05-.53,0-.19,0-.38-.05-.58-.19,0-.34-.14-.38-.29s-.1-.38-.24-.48c-.38-.14-.19.53-.14.72.05.19.14.38.05.58-.1.29-.43.48-.48.82.05.19.1.38.1.58,0,.24-.14.38-.19.58-.05.38-.19.77-.34,1.1-.1.38.19.67.19,1.06,0,.1-.05.24,0,.38.05.19.19.34.14.53,0,.29-.29.53-.24.82,0,.29.29.58.19.86-.1.19-.34.29-.53.29-.48-.1-.62-.72-.53-1.15.05-.34.38-.53.48-.82.1-.29.14-.62.05-.91-.14-.19-.19-.43-.19-.67,0-.19-.1-.34-.1-.48-.05-.34.34-.62.24-.96-.05-.1-.19-.19-.24-.34-.1-.14-.05-.29-.05-.43l-.1-.82c0-.1,0-.24-.14-.34,0,0-.05-.05-.1-.05,0,.1-.05.14-.1.24-.05.1-.05.24-.1.34-.05.14-.1.29-.24.38-.05.05-.1.1-.1.14-.05.24-.14.38-.34.53-.05.05-.05.14-.1.24-.05.19-.14.38-.24.58.19.67.1.62-.38,1.01-.1.1-.48.48-.58.29-.1-.19.1-.34.19-.48.1-.1.05-.24.1-.34,0-.24.19-.38.29-.58.1-.43.29-.86.48-1.25,0-.1.05-.14.05-.24-.24-.29-.14-.48-.05-.77-.1.05-.14.05-.19.1-.29.19-.34.96-.82.77-.19-.1-.19-.34-.05-.48.1-.05.19,0,.29,0,.1-.05.1-.14.1-.24,0,0-.05.05-.1.05-.1-.1-.1-.24-.05-.34.05-.14.19-.24.38-.29.24-.14.53-.24.72-.43v-.05c0-.14.1-.34.19-.53,0-.19-.19-.38-.24-.58-.14-.24-.05-.53-.14-.77-.05-.19-.24-.24-.34-.38-.19-.19-.24-.43-.19-.72,0-.19-.05-.38-.05-.58-.05-.05-.05-.14-.05-.24.05-.05.1-.14.1-.24-.19-.14-.43-.14-.62-.29-.24-.14-.05-.48-.05-.72l-.19-.19c-.14-.14-.05-.24-.05-.38.05-.24-.05-.48-.05-.77-.1-.24-.14-.53-.29-.67-.34-.19-.34.58-.38.72-.05.24-.24.38-.24.62s.14.48.19.77c.29,1.25-1.34,1.25-.82,0,.1-.24.38-.48.34-.77-.05-.1-.14-.14-.14-.24-.05-.19-.05-.34.05-.48.1-.05.14-.1.19-.19.14-.29.1-.72.19-1.01,0-.14.05-.24,0-.38-.14-.19-.24-.43-.24-.72,0-.38.19-.77-.19-1.06-.19-.24-.1-.58-.14-.86-.05-.1-.29-.05-.29.1,0,.19-.19.34-.19.48v.05c0,.19,0,.38.05.58.05.1.1.14.1.19.05.19,0,.29,0,.43-.1.34,0,1.06-.34,1.2-.34-.05-.14-.62-.24-.86-.05-.1-.14-.19-.24-.34-.14-.24-.1-.53-.05-.82,0-.43.24-.82.24-1.2-.1-.62-.43-.96-.1-1.63v-.05c-.14-.43-.48-.77-.53-1.2-.05-.14,0-.34,0-.48,0-.1-.05-.19-.1-.29-.05-.24.05-.58-.19-.77-.1-.05-.24-.05-.34.05-.05.19-.05.43-.14.62-.05.1-.1.19-.1.29,0,.29.05.58,0,.86l-.14.58c.1.38.14.77.29,1.15.1.19.19.38.14.58,0,.19-.05.38-.1.53,0,.14.05.29.05.43-.05.38-.14.72-.14,1.06,0,.19-.05.34,0,.53.05.19.19.38.19.62,0,.29-.14.53-.29.77-.1.14-.24.19-.38.29.53.43.77.77.62,1.44-.05.24.1.48,0,.72-.05.14-.19.24-.29.38-.1.14-.1.34-.1.48h.05s.1.14.05.19c0,.14-.05.24,0,.38,0,.24.14.38.14.62.05.19-.1.38-.1.58,0,.14.1.24.14.38.14.29-.05.58-.24.82-.05.29.19.48.38.67.19.1.38.14.48.34.14.14.24.67-.05.72-.14,0-.24-.14-.34-.19.05.19.14.58-.14.72-.14,0-.38.14-.34.34.58.43.77-.05,1.06.86.19.29.53.43.82.72.05,0,.14-.1.19-.05.1,0,.19,0,.29.05.05.05.14.14.24.19.05.1.05.19.1.29.58.38.14,1.2-.48.58-.1-.05-.14-.19-.24-.29-.14-.1-.29,0-.29.14l.19.29c.1.1.1.24.1.34,0,.24.05.48-.1.67.1.19.29.43.14.62-.34.24-.53-.05-.62-.34-.05-.1-.1-.1-.19-.14-.29-.19-.19-.58-.14-.82.05-.14,0-.24-.05-.34l-.29-.29s-.1-.05-.14-.14c-.1-.24,0-.58-.19-.82-.48-.38-1.25.14-1.63-.38-.14-.19-.24-.48-.19-.72.29-.67.38-1.54-.24-1.97-.19-.05-.34-.19-.43-.34-.14-.24-.48-.58-.67-.24-.05.05-.1.14-.1.24.05.14.19.24.24.38,0,.24-.05.43.05.62.1.38.29.82.1,1.15-.05.14-.14.24-.24.38-.1.24-.05.48.05.67.24.19.48.43.43.77,0,.14-.14.29-.34.38-.1.05-.24.05-.34.19l-.43.96c-.19.24-.24.62,0,.86l.48.43c.19.1.19.34.34.48.05.1.19.1.24.19.14.29.53.62.38.96-.05.05-.1.1-.19.1-.34-.1-.38-.48-.72-.58-.05-.05-.14,0-.24,0-.24-.05-.34-.38-.58-.53-.05.1-.1.19-.19.29l.19.29c.1.19.1.43.14.62.05.29-.14.67-.48.58-.24-.14-.48-.43-.43-.77ZM145.4,39.75v-.14c0-.14-.1-.29-.1-.43-.05-.19,0-.34-.05-.48-.14,0-.14.19-.29.19-.05.19.1.38.1.62,0,.1-.05.24-.1.38-.05.19.05.34.19.48.1-.19.14-.43.24-.62ZM146.17,45.12c-.14.05-.24.1-.38,0-.1-.1-.24-.43-.1-.53.1-.58.82-.24,1.1,0,.14.14.29.29.34.48.1.29-.1.58-.43.48-.24-.05-.34-.34-.53-.43ZM148.23,41c.1-.19.19-.53.48-.58.53.19.29.96-.1,1.2-.05.1-.14.24-.29.14-.24-.19-.19-.53-.1-.77ZM151.69,39.99c.05-.1.05-.24.05-.34h.05c-.1-.24.14-.53.34-.29.14.19-.05,1.06-.34.91-.1-.05-.1-.19-.1-.29ZM153.89,44.6s-.14-.05-.24-.1c-.14-.05-.19-.24-.24-.38-.05-.19-.05-.38,0-.58,0-.24.05-.48.19-.67.1-.1.24-.1.38,0,.38.14.34.62.19.96-.05.19.19.38.24.58.14.19.14.86-.19.77-.19-.1-.19-.38-.34-.58ZM156.39,18.29s.05.05.05,0c.34-.34.82-.53,1.15-.86.14-.1.29-.14.48-.1.1,0,.19.1.29.05.24-.38.19-.86.19-1.34,0-.43.19-.91.38-1.3.1-.24,0-.43,0-.67.05-.29.24-.58.48-.77-.24-.67-.86-1.2-.91-1.92-.05-.34,0-.72-.34-.91h-.19c-.14,0-.29,0-.38.14.1.29.05.62-.1.91-.14.19-.38-.05-.43-.19-.1-.24.1-.48.05-.72-.1-.24-.14-.48-.05-.77,0-.05,0-.14-.05-.19-.1-.1-.19-.19-.34-.24l-.24.29-.29.14c-.05.24.05.48.05.72-.14.34-.29.72-.29,1.1,0,.29.1.53.05.82,0,.19.1.43.05.62,0,.19-.14.29-.19.48-.05.1-.05.24-.1.38-.14.24-.29.05-.38-.14-.19-.48.05-1.06-.19-1.58-.05-.34.14-.62.14-.96-.05-.14-.14-.29-.19-.48-.05-.14,0-.29,0-.43.05-.24-.19-.43-.19-.67-.24,0-.48,0-.67.05.05.14-.05.29-.05.43,0,.38-.1.77-.05,1.15,0,.24.14.38.19.58.05.24,0,.48-.05.77-.05.14,0,.29,0,.48.05.14,0,.34-.05.53,0,.24.14.48.1.77-.1.29-.24.58-.38.82-.14.19-.24.34-.29.48.43.34.24.91.43,1.39.1.1.24.24.29.43.05.24-.05.53.1.82.19.19.58.14.86.14.38,0,.67-.38,1.06-.24ZM156.53,12.96c0-.19-.05-.34.05-.48,0-.24.34-.38.53-.38.14.1.34.24.38.48,0,.29-.24.58-.43.77-.14.1-.24.43-.48.29-.19-.19-.1-.48-.05-.67ZM161.33,38.55l-.34-.34s-.14-.05-.24-.05c-.05.05-.1.1-.14.05,0,.1.1.14.14.19.1.14.19.34.24.53,0,.1.1.19.14.19.29-.05.29-.38.19-.58ZM164.94,32.59c-.1,0-.24-.05-.29,0-.05.05-.1.05-.1.1.14-.05.24-.1.38-.1ZM166.04,38.93c.05-.14.34-.24.29-.43-.05-.05-.1-.1-.14-.1s-.1,0-.14-.05c0,.05-.05.05-.1.05l-.14.34c-.05.34-.29.62-.14.96.19-.24.19-.53.38-.77Z"/>
  <path class="cls-1" d="M182.74,47.76c-.29-.34-.34-.77-.34-1.2,0-.29-.24-.53-.38-.77-.43-.48-.1-1.1-.29-1.68-.14-.24-.29-.48-.48-.72-.1-.19-.19-.38-.24-.58,0-.24.05-.48.05-.72,0-.82-.14-1.73-.86-2.21,0,.29,0,.58-.05.86-.05.19-.14.29-.19.43.05.53.1,1.1.1,1.63,0,.19.14.38.1.58-.1.86-.58,1.63-.86,2.5-.1.24-.19.48-.24.72-.05.1-.05.19-.1.24-.24.19-.43-.53-.43-.67,0-.24.05-.48,0-.72-.05-.24-.1-.43-.05-.67.1-.24.19-.43.19-.67.1-.43,0-.86.14-1.34,0-.29.24-.58.29-.86.05-.53-.1-1.06-.34-1.54-.14-.24-.05-.53-.1-.77-.05-.14-.14-.34-.24-.48-.24-.19-.62-.24-.91-.19-.34.29-.53.82-1.01.91-.43.29-.29.96-.34,1.39-.05.34-.05.72-.29.96-.1.05-.19.05-.24-.05-.1-.29-.1-.58-.24-.86-.43-.77-.77-.91-.38-1.87.05-.24-.05-.43-.14-.62-.24-.14-.58-.24-.86-.14-.53.29-.77.86-1.3,1.1-.34.24-.72.24-1.06.29l-.72.14c-.14,0-.43.1-.53-.14-.1-.34.24-.62.48-.86.24-.14.38-.29.58-.43.29-.24.58-.48.82-.72.34-.19.72-.38,1.01-.62.29-.34.58-.67.62-1.1,0-.14.05-.24.05-.38h-.05c-.19-.1.1-.53.14-.67-.48-.77-.14-1.87.62-2.3.19-.1.43-.1.62-.24.14-.1.24-.24.29-.29.19-.19.53-.77.82-.53.14.1.24.29.43.34-.14-.19-.29-.34-.48-.43-.1-.1-.19-.1-.24-.19-.05-.05-.05-.14,0-.19.1-.29.24-.62.24-.96-.24.05-.34.34-.53.53-.19.24-.48.34-.72.53-.1.19-.05.48-.24.67-.38.43-.77.38-.91-.19-.19-.53-.19-1.1-.1-1.63.05-.34.19-.62.24-.96-.1-.29-.29-.53-.38-.77-.14-.48-.1-.96-.1-1.39.05-.53.14-1.06.19-1.58.05-.48.1-.96.1-1.39,0-.29-.05-.53-.14-.77-.05-.43,0-.82.05-1.25.05-.29.14-1.25.53-.67.24.58.05,1.2.29,1.73.1-.91-.14-1.82-.24-2.74-.1-.29-.29-.48-.48-.67-.14-.05-.24-.14-.29-.24-.14-.82.14-1.63.38-2.4.1-.24.29-.53.29-.82-.05-.34-.14-.62-.14-.96,0-.14.05-.34,0-.53,0-.38,0-.77-.05-1.1-.24-.48-.48-.91-.53-1.44-.05-.24.05-.48.1-.72.1-.34.14-.72.19-1.1.05-.62.24-1.2.1-1.82-.1-.29-.19-.62-.43-.86-.1-.19-.1-.43-.1-.62-.05-.86,0-1.78.34-2.59.19-.24.38-.48.43-.77.1-.48-.24-.86-.29-1.3-.05-.48-.14-1.44.38-1.68.38-.1.77-.1,1.15.1.48.05,1.01-.05,1.49.05.19.1.38.24.62.24.34.05.62.24.96.29.1-.14,0-.29-.1-.43-.14-.1-.14-.29,0-.38.34-.29.82-.43,1.25-.34.38.19.77.38,1.2.43.19.05.34.1.48.1.19-.05.34-.1.53-.1.29,0,.62.05.91.1.14-.24.96-.29,1.01-.1.19.38.14.82-.14,1.1.34.43.34,1.06,0,1.49-.05.14-.14.24-.14.38.1.34.24.67.24,1.01-.05.19,0,.34-.05.48,0,.05-.05.1-.05.14.05.05.1.14,0,.24,0,.1-.05.19-.1.29v.34c0,.14-.14.29-.19.48-.05.24-.14.48-.34.67-.14.19-.29.34-.48.43-.14,0-.24,0-.34-.05-.19-.1-.38.05-.48.19-.19.34-.43.72-.82.86-.29.14-.43.43-.58.67-.1.14-.14.29-.19.48.14-.05.29-.1.38-.19.14-.14.24-.34.38-.48.19-.24.38-.62.72-.53.14.05.24-.1.34-.19.19-.14.48-.14.62.1.05.1.05.34.24.34.29-.14.19-.58.43-.72.1-.1.24.05.34.1.24.24.48.58.38.91-.14.53-.29,1.1-.14,1.63.05.38-.14.77-.29,1.1,0,.29.19.53.24.77.05.43-.24.82-.29,1.2,0,.34-.05.67,0,.96.1.19.19.34.24.53.14.67.05,1.3,0,1.97.05.48.1,1.06-.38,1.34-.58.38-1.06.67-.29,1.25.24.19.38.53.38.82,0,.58-.05,1.1-.05,1.68-.05.29-.14.53-.14.82.14.34.19.67.29,1.01.05.34.19.72.14,1.06-.05.29-.14.53-.14.82v.29s.05.05.05.1c.05.34.05.62.05.91,0,.38-.14.72-.19,1.06-.05.1,0,.19.1.29.14.14.19.38.38.53.38.19.67-.29,1.01-.38.34-.05.62-.19.91-.19.24,0,.38,0,.58-.05.19-.05.38.05.53.1.38.1.67.34.96.58.14.1.29.29.43.34.24-.05.38-.19.58-.29.62-.29,1.34-1.2,2.06-.67.14.1.24.24.24.38,0,.24-.14.38-.24.58-.05.24-.05.48-.1.67-.14.72.77.29.62,1.15,0,.34-.14.62-.19.96-.1.58-.1,1.1-.1,1.68,0,.14.14.29.19.43.1.24.05.48.1.72,0,.24.05.48-.05.72,0,.14-.1.24-.05.38,0,.19,0,.38-.05.53v.1s-.05.1-.05.14c0,0-.05.05-.05.1.05.05.05.1.05.14,0,.24,0,.48.05.67.1.53.34,1.06.24,1.58-.05.24-.24.43-.43.24-.1-.1-.14-.24-.14-.34-.1-.29-.05-.62-.14-.86-.19-.24-.24-.53-.29-.77,0-.1-.05-.24,0-.34-.14-.19-.34-.24-.53.1-.1.34-.14.67-.29.96-.05,0-.05.05-.1.05-.14.05-.24-.14-.34-.24-.24-.29-.38-.77-.77-.91,0,.24.1.48.19.67.19.48.1,1.06-.29,1.34-.14.1-.38.1-.29.34.05.48.05,1.01.14,1.49,0,.05.05.14.1.19.34.24.53.67.43,1.1-.1.48-.53.82-.67,1.25-.1.29-.24.58-.29.86-.05.62-.19,1.34-.77,1.68-.43.24-.91.1-.72-.43.1-.29.29-.53.48-.77.29-.62.62-1.3.48-1.97-.1-.29-.19-.48-.29-.72-.38-.62-.24-1.25-.19-1.92-.05-.48-.19-.91-.19-1.34-.05-.29-.05-.62-.24-.82t-.1.05c-.53.72-.72.24-.96-.34-.19.05-.1.29-.14.48,0,.24-.05.43-.1.67,0,.43.05,1.06-.43,1.25-.38.1-.38-.48-.38-.77,0-.77-.05-1.82-.86-2.21h-.24c-.24.1-.53.19-.72.38-.19.38-.24.77-.24,1.15.05.38.14.77.14,1.15.05.19,0,.43.05.62.1.62,0,1.3.14,1.97.14.82.43,1.63.53,2.5.14.48.24,1.01.14,1.54-.1.19-.1.77-.38.77-.1,0-.14-.14-.19-.19ZM184.9,41.62c.24,0,.14.53.14.67-.05.24-.05.67-.34.72-.38-.05-.1-1.34.19-1.39ZM190.9,41.86l.14-.48s.05-.14.1-.14c0-.05.05-.1.14-.1.14-.1.29.14.34.24.19.29.05.62-.14.86-.1.19-.05.43-.14.62-.05.19-.29.34-.38.05-.29-.34-.14-.72-.05-1.06Z"/>
  <path class="cls-1" d="M193.01,50.02c-.19-.53,0-1.15-.29-1.63-.14-.24-.29-.48-.24-.77.05-.29,0-.62.14-.91.1-.14.19-.29.34-.43.1-.29.24-.58.43-.82.1-.14.29-.24.34-.34.05-.43-.19-.77-.29-1.2-.05-.29.1-.62.38-.82.19-.1.43-.24.53-.43.1-.19.05-.43.05-.62,0-.38.34-.67.43-1.01v-.14c-.19-.29-.14-.62.05-.91.24-.29.58-.53.67-.86.1-.34-.24-.86-.58-.96-.19.19-.43.34-.58.58-.05.14-.05.34-.14.48-.1.19-.29.38-.43.58-.1.19-.1.43-.19.62-.1.29-.38.48-.58.72-.14.19-.14.38-.29.58-.14.34-.43.58-.72.72-.14.05-.34.1-.43.24-.14.24-.19.48-.29.72-.1.19-.19.38-.29.53-.19.19-.53.19-.62-.1-.05-.72.38-1.44.77-2.06.19-.34.72-.43.82-.82.14-.38.29-.77.24-1.2-.05-.38,0-.67.29-.91.1-.43-.19-.86-.1-1.34.05-.29.24-.48.38-.72.1-.14.19-.34.34-.48.1-.14.29-.19.43-.29.14-.05.24-.19.34-.34.1-.14.19-.24.38-.29.05-.05.14-.05.19-.1.05-.1.1-.24.1-.34.1-.29.34-.77.67-.53.05.05.1.14.19.14.14.05.34,0,.38-.14.05-.48-.62-1.1-1.01-.67-.1.19-.14.43-.29.58-.1.14-.29.19-.43.29-.1.05-.19.19-.29.29-.19.14-.43.05-.48-.19-.1-.34,0-.67,0-1.01.05-.43.1-.91.29-1.3.1-.29.38-.53.38-.82-.14-.58.1-1.1.29-1.63.14-.58.14-1.2.43-1.73.1-.29.24-.62.29-.91-.05-.43-.05-.86.24-1.15.05-.05.05-.1.05-.1v-.05c.1-.19.14-.38.19-.53.05-.38-.05-.77.1-1.1.1-.29.14-.62.43-.72.14-.05.19.14.24.24.14.38.38.67.62,1.01.38.82-.14,1.78.14,2.64.05.1.19.34.34.19.05-.38-.14-.77,0-1.15.05-.14.19-.24.29-.14.1.05.19.19.24.29.14.24.34.48.53.67,0,0,.05.05.05,0v-.05c0-.48-.05-.91-.34-1.3-.14-.34-.1-.72-.29-1.01-.1-.24-.38-.38-.58-.62-.1-.14-.14-.34-.29-.53-.24-.24-.48-.48-.53-.86-.05-.43.1-.86.34-1.2.05-.19.19-.29.14-.48-.1-.24-.34-.38-.29-.67.1-.43.34-.91.34-1.39,0-.67-.05-1.44.38-2.02.19-.19.34-.43.34-.67.14-1.1-.24-1.58.91-2.26.1-.14.14-.34.19-.53-.05-.29-.24-.53-.24-.82-.05-.34.05-.62.1-.96,0-.24,0-.53.1-.77.1-.48.43-.86.48-1.3,0-.38-.1-1.49.43-1.54.29.1.19.53.34.77.14.19.48.29.62.05.19-.53.19-1.1-.05-1.63-.14-.34-.34-.62-.34-1.01-.05-.38.05-.82.05-1.2,0-.29-.19-.53-.05-.82.14-.19.24-.38.43-.58.14-.1.29-.24.34-.43.19-.48-.38-.82-.24-1.3.05-.24.14-.48.34-.62.14-.14.34-.24.43-.38.1-.19.1-.38.14-.58,0-.14.24-.19.38-.14.24.05.43.24.67.34.43.05.96-.1,1.34.1.29.19.58.34.77.58.1.05.19.14.24.19h.1c.14-.19.24-.43.43-.58.24-.19.53-.24.82-.38.58-.14,1.15.29,1.63.53.34.19.72-.05,1.1.05.29.05.58.24.86.14.58-.19,1.25-.77,1.87-.67.14-.05.38-.05.48.05.19.1.43.05.62.14.19.05.34.19.43.38.14.14.14.34.19.48.1.24.19.43.19.67,0,.19-.1.38-.1.58,0,.34.05.62.14.91.29.67.72,1.25.91,1.97.1.58-.05,1.2.24,1.73.24.34.19.77.29,1.1.05.29.14.58.19.86.05.24,0,.48.05.72.14.48.34,1.1,0,1.58-.1.14-.34.14-.48.29-.05.05-.05.14,0,.24,0,.05.1.05.14.05.34.05.67.19.72.53.05.29.1.62.19.91,0,.43-.19.82-.14,1.2,0,.19.14.34.29.48.1,0,.14.1.19.19.05.29.14.58.24.82.24.48.67.91.48,1.49.05.05.05.19.05.24-.1.34-.19.58-.43.82l-.14.14c-.05.29,0,.58.19.77.1.14.24.24.34.38.14.24.29.53.53.72.43.53.19,1.25.38,1.87.1.43.29.77.38,1.2.1.43.24.91.38,1.34.14.53,0,1.06.1,1.58.05.19.19.34.29.53.1.14,0,.34,0,.53-.1.24-.14.48-.19.72-.34.86-1.39.29-.86,1.1.1.29.38.43.67.48.24.1.48.05.72.14.38.19.48.67.58,1.06.1.62-.05,1.25-.14,1.87-.05.43-.34,1.06,0,1.39.72.24.91.58,1.01,1.3.05.24.14.43.19.62.05.24-.05.43-.05.62,0,.1,0,.24.05.34.34.34.29.91.43,1.34.24.53.53,1.01.67,1.58.14.43.14,1.25-.48,1.06-.29-.05-.58-.19-.62-.53-.1-.29-.05-.58-.19-.86-.14-.19-.34-.29-.38-.48-.14-.29-.1-.62-.29-.86-.1-.19-.29-.29-.38-.43-.14-.19-.14-.43-.24-.62,0,0,0-.05-.05-.05-.48.1-.72-.62-1.2-.29-.24.14-.14.43-.14.67-.05.29-.24.53-.19.86.14.53.62.72.34,1.34-.19.82-.1,1.63,0,2.45.1.38.24.77.19,1.15.05.43-.43,1.15-.82.53-.29-.53-.19-1.15-.38-1.68-.05-.19-.24-.34-.29-.53-.05-.1,0-.24,0-.38.05-.05.05-.1.05-.14h-.05s0-.05.05-.1c-.05-.05-.05-.14-.1-.19-.1-.19-.29-.34-.29-.53,0-.24.14-.38.19-.58-.05-.1-.1-.19-.1-.29-.1-.29-.1-.58-.05-.86,0-.14,0-.34-.1-.43-.1.24-.29.48-.38.72-.24.58.19,1.2-.19,1.73-.1.05-.19.14-.24.24-.05.14.05.34,0,.48,0,.34-.24.96-.62.67-.05-.05-.14-.14-.19-.24-.1.05-.19-.05-.24-.1-.1.24,0,.48-.1.67-.1.24-.34.43-.43.67-.05.34,0,.72-.1,1.06-.14.58-.43,1.1-.67,1.63-.19.34-.62.38-.82.67-.24.29-.19.67-.34,1.01-.1.19-.19.38-.38.53-.1.1-.29.19-.43.1-.19-.19-.05-.53-.1-.77-.05-.29-.14-.53,0-.82.34-.53.62-1.06,1.01-1.54.19-.24.48-.48.48-.82-.05-.19-.05-.38,0-.62,0-.34.24-.58.24-.91,0-.19-.24-.29-.38-.43-.1-.1-.14-.1-.29-.1-.29-.05-.34-.43-.43-.67-.05-.05-.05-.1-.1-.1-.29.19-.19.58-.34.86.29.48.05,1.63-.62,1.58-.24-.05-.48-.19-.48-.43-.05-.43.24-.77.34-1.1.1-.62-.05-1.3.24-1.92.1-.29.34-.67.19-1.01-.14-.19-.29-.38-.34-.62-.1-.38.1-.72.05-1.1,0-.38-.19-.77-.19-1.15-.05-.19-.05-.43.05-.67.05-.14-.05-.29-.14-.38-.38-.34-.29-.67-.05-1.06t-.05-.1c-.14-.29-.43-.53-.34-.86.1-.34.43-.24.62-.1.19,0,.34.1.48.19.1.1.19,0,.24-.05.05-.1.14-.14.1-.24-.14,0-.29-.1-.43-.24-.19-.19-.48-.29-.77-.19-.29.05-.43-.14-.58-.34-.19-.1-.38,0-.58-.05-.05,0-.1,0-.1-.05-.19-.05-.34-.24-.34-.43,0-.05,0-.1-.05-.1-.14.1-.24.19-.38.24-.14,0-.29-.1-.34-.24-.1-.14-.05-.34-.14-.48-.05-.05-.14-.05-.19-.05l-.1.38c-.19.34-.38.62-.58.91-.14.24-.53.48-.77.24-.19-.24-.19-.53-.38-.72-.14-.14-.38-.1-.58-.19-.29-.05-.38-.34-.58-.53-.14-.14-.38-.24-.53-.1,0,.14.14.19.19.34.14.48.05,1.01-.58.91-.24-.05-.38-.34-.58-.34-.24.05-.34.34-.43.53-.1.48.05,1.01,0,1.49,0,.43-.19.86-.29,1.3,0,.29.05.62.14.91.1.58,0,1.15-.1,1.73l.14,1.01c.05.43-.24.82-.24,1.25-.05.53.1,1.06.1,1.63-.05.34-.29.67-.34,1.01,0,.29.05.58.05.86.1.43-.29.82-.14,1.25.05.38.29.72.19,1.15,0,.1-.14.24-.29.19-.24-.24-.58-.53-.67-.86-.05-.24,0-.53-.1-.82-.05-.24-.29-.43-.34-.67-.05-.29.1-.53.1-.77,0-.53.24-1.01.34-1.54.05-.34,0-.72.19-1.01.05-.19.19-.34.19-.53-.05-.29-.14-.53-.14-.82,0-.24.05-.53.05-.77-.05-.14-.14-.29-.19-.48-.19-.38.34-1.01-.14-1.3-.1-.05-.29,0-.34.05-.1.19-.05.43-.14.58-.1.29-.34.43-.53.62-.1.29-.1.62-.34.91-.14.14-.1.34-.1.53-.05.43-.14.86-.1,1.34.19.38.34.86.1,1.3-.05.14-.19.29-.14.43.1.43.24.82.24,1.2,0,.43-.19.77-.1,1.2,0,.48.29,1.97-.48,2.02-.43-.14-.38-.72-.24-1.1.05-.14.14-.24.14-.38-.14-.29-.34-.58-.43-.91,0-.48-.1-.91-.14-1.34,0-.24.1-.48.05-.77-.1-.34-.29-.62-.14-1.01,0-.24.1-.48,0-.67-.1-.14-.29-.34-.43-.24-.19.14-.19.43-.29.62-.05.29-.24.58-.34.82-.1.19-.19.34-.34.43-.19.1-.43,0-.62.1-.24.14-.38.43-.58.67-.14.19-.43.29-.58.05-.1-.29.1-.53.19-.77.14-.24.29-.43.48-.58.1-.05.19-.1.24-.19.1-.24.29-.43.43-.62.1-.29.14-.58.34-.77.1-.19.34-.29.38-.48-.05-.29-.62-.58-.91-.48-.24.14-.43.43-.58.67-.14.19-.29.38-.38.58-.1.24-.1.43-.19.62-.14.34-.43.53-.53.86-.14.43-.24.86-.38,1.3-.1.38-.05.77-.19,1.15-.14.34-.43.62-.58.91-.05.24-.1.48-.19.72-.19.48-.53.96-.29,1.44.24.48.48,1.1.14,1.58-.1.14-.34.34-.53.19-.14-.05-.14-.24-.19-.38ZM202.71,6.38c.14-.19.05-.53.14-.77.1-.29.34-.48.38-.72.1-.24-.1-.43-.24-.58-.1-.05-.19-.19-.34-.19t-.05.05s-.05,0-.1-.05v.77c0,.43-.43,1.34.1,1.54t.1-.05ZM208.9,26.5c.1-.43.24-.86.29-1.3,0-.1-.05-.14-.1-.19-.29-.48-.34-.67-.05-1.15,0-.05-.05-.1-.05-.14-.24-.38-.34-.91-.19-1.34-.38-.29-.29-.67-.19-1.1.05-.14.19-.24.29-.29.48-.14.48-.29.29-.72-.1-.34-.38-.62-.67-.82-.48-.29-.72-.67-.29-1.15-.14-.29-.14-.62-.05-.91.05-.29.19-.38.48-.38.1-.05.19-.1.19-.19-.05-.53-.19-1.06-.43-1.54-.1-.24-.14-.53-.38-.77s-.72-.43-.58-.86c0-.14.1-.24.14-.34-.1-.24-.14-.48-.05-.67.05-.29.29-.38.48-.53.14-.19.1-.48-.05-.67-.1-.1-.24-.19-.38-.29-.43-.29,0-.77,0-1.1,0-.14-.1-.29-.19-.29-.24,0-.43.19-.53.38.19,1.01.43,1.49-.29,2.35v.1c.24.67.34,1.39.38,2.11.05.29.19.53.24.82.05.29-.14.58-.14.86.05.29.19.82-.19.86-.34,0-.43-1.1-.38-1.34,0-.14,0-.29-.05-.38v-.05h-.1c0,.14,0,.29-.05.43-.1.38-.58.62-.43,1.06.05.14.24.29.29.43.05.34-.1.67-.19,1.01-.1.24-.38.38-.43.67-.05.19-.1.38-.05.53s.14.29.19.43c.14.38.05.82,0,1.2,0,.29,0,.62-.14.91-.05.19-.19.34-.19.53-.05.48-.1.96-.58,1.2l-.1.1c-.14.38.05.86.29,1.2.14.14.38.05.53.14.19.1.14.43.38.53.05,0,.1-.05.1-.05.24-.14.53-.24.77-.38.14-.1.24-.24.43-.34.29-.1.67-.14.91.1.34.38.29,1.01.77,1.34h.05ZM210.25,28.56c.24-.14.43-.29.62-.53-.58-.29-.62-.19-.62-.91-.05-.05-.14-.05-.19-.05-.29.05-.43.24-.43.48.05.1,0,.24.05.38v.48c0,.29-.34.62-.1.86,0,.05.05.05.1.05.29-.14.34-.53.58-.77ZM214.04,41.48c0-.19.14-.43.19-.62.05-.29.19-.53.29-.77.05-.19,0-.34-.1-.43-.14.1-.14.34-.34.43-.14.1-.38.1-.53.14-.34.19-.14.53,0,.77.05.19-.05.38,0,.58.1.29.24.53.34.86.29-.24.14-.62.14-.96ZM217.78,20.4l-.38-.58c-.05-.1.05-.19.05-.29s.05-.29.19-.19c.29-.38.77.05.86.38.1.34.38,1.1-.24,1.1-.24,0-.38-.24-.48-.43Z"/>
  <path class="cls-1" d="M251.29,50.74c-.19-.19-.34-.48-.48-.72-.19-.19-.34-.38-.43-.62-.1-.34,0-.67,0-1.01v-.05c0-.24,0-.48.05-.72,0-.24.1-.53-.05-.72-.19-.19-.38-.29-.58-.48-.1-.19-.1-.43-.1-.62s-.05-.34-.14-.48c-.1-.34-.48-.58-.58-.91l-.14-.53c-.05-.19-.14-.34-.29-.48-.1-.1-.19-.19-.24-.34-.24-.34-.19-.82-.24-1.2-.43-.67-.77-.34-1.06.38-.05.24-.1.48-.24.67-.14.19-.34.34-.43.53-.05.14,0,.29-.05.43-.05.19-.05.38-.05.53.05.24.19.43.24.67.05.29-.05.58,0,.91.1.34.29.67.43.96.1.24,0,.53-.24.62-.1.1-.29.14-.38.05-.38-.58-.38-1.3-.86-1.73-.14-.24-.14-.48-.19-.77-.05-.24-.14-.43-.24-.67-.29-.58.19-1.34-.29-1.92-.1.14-.29.24-.29.48,0,.53.1,1.06-.05,1.58-.05.1-.05.19,0,.29.1.29.29.58.24.91,0,.14-.05.34,0,.48.1.19.29.34.29.58.05.34-.05.77-.29.96-.29.1-.34-.53-.48-.67-.53-.48-.82-1.2-.86-1.92-.1-.38-.29-.77-.24-1.2,0-.24-.05-.48-.05-.72-.05-.19-.19-.29-.24-.38-.34-.53.14-1.3.29-1.82.05-.24-.05-.38-.1-.58,0-.38.05-.72.05-1.06-.38.48-.77,1.01-.91,1.58,0,.53-.43.91-.62,1.34-.14.34-.24.67-.29,1.06l-.14.34c-.24.24-.48.43-.67.67-.29.24-.58.48-.91.67-.19.14-.34.34-.48.48-.24.24-.72.19-.62-.19,0-.19.19-.38.24-.53.05-.14.1-.34.19-.48.14-.29.38-.53.58-.82.14-.29.34-.58.43-.86.1-.38.14-.77.19-1.15.05-.14-.1-.34-.05-.48.05-.34.34-.53.43-.82-.24-.38,0-.86.1-1.25.1-.1.1-.24.1-.38-.38-.24-.48-.62-.38-1.06,0-.05,0-.14-.05-.19-.14-.43-.29-.82-.38-1.25,0-.05,0-.1-.05-.19-.1-.19-.19-.38-.24-.62,0-.19,0-.38-.05-.53-.1-.1-.19-.19-.24-.29-.14-.19-.14-.43-.19-.67-.05-.34-.19-.67-.29-1.01,0,.43-.14.82-.19,1.25,0,.1.05.24.05.38-.05.19-.05.38-.1.58-.1.24-.1.53-.29.72-.14.14-.34.05-.38-.1-.19-.62-.14-1.3-.24-1.97-.05-.19-.05-.43-.14-.62-.48-.72-.34-1.63-.19-2.45,0-.34-.34-.58-.38-.91-.1-.48.14-1.1-.29-1.39-.14-.05-.29-.1-.43-.1-.24-.1-.34-.34-.34-.53s.05-.43.05-.62c0-.34-.14-.62-.19-.91-.05.29-.1.58-.29.82l-.24.29c-.14.38-.1.82-.14,1.2-.05.19-.1.38-.24.53-.1.14-.24.43-.43.29-.1-.1-.1-.19-.1-.29s-.05-.19-.05-.34c-.1-.77,0-1.58,0-2.4.05-.34.05-.67.05-1.01-.1-.43-.19-.86-.19-1.34,0-.24.05-.53.05-.77.05-.34.14-.62,0-.91-.05-.19-.05-.38,0-.62-.05-.14-.1-.34-.19-.48-.48-.62-.72-1.1-.67-1.92-.19-.58-.19-1.25-.38-1.87-.14.43-.19.91-.29,1.34-.1.43,0,.82,0,1.25-.05.38-.05.77-.05,1.15.05.05.05.19.05.29,0,.24-.1.48-.1.77,0,.38,0,.77.29,1.06.34.43,0,.96-.24,1.34-.1.29-.05.58.1.86.24.67.86.86.62,1.68-.05.48-.29.91-.34,1.34.05.43.14.86-.05,1.3-.1.58.29,1.15.29,1.73,0,.34-.05.67-.19.96-.24.53-.34,1.01.05,1.44.62.62.67,1.58,1.2,2.26.24.19.53.43.53.77.1.48.1,1.01.19,1.49,0,.24-.19.38-.29.1-.14-.34-.29-.62-.62-.82-.34-.24-.34-.72-.62-1.06-.1-.1-.24-.19-.38-.14-.05,0-.14.05-.14.1-.05.43.05.91-.05,1.34-.05.34-.1.62-.24.96-.1.34-.29.67-.14,1.06.14.29.43.43.62.67.1.14.1.29.14.38.05.19.19.34.34.48.19.38.24.82.34,1.25-.05.38.14.72.29,1.06.05.24.05.53,0,.77-.05.34-.05.72-.19,1.01-.38.58-.43-.34-.48-.62-.05-.24-.14-.48-.29-.72-.1-.14-.24-.24-.34-.34l-.29-.53c-.14-.14-.29-.24-.29-.48s-.1-.48-.24-.67c-.14-.1-.38-.19-.48-.38-.29-.38-.38-.91-.72-1.2-.14-.1-.29-.14-.38,0-.14.1.05.34.1.43l.14.34c.14.34.19.67.05,1.01.05.29.19.58.34.82.29.58-.19,1.15-.05,1.73.05.24.24.38.29.58.1.29-.1.58-.05.86l.29.82c.05.14.05.29-.05.38-.05.1-.1.14-.19.19-.14.05-.29,0-.38.1-.1.19.05.48-.05.67-.05.14-.19.19-.29.05-.34-.24-.24-.72-.34-1.06,0-.14,0-.24-.05-.38-.05-.38-.19-.72-.29-1.06-.1-.24-.1-.48-.1-.72s-.1-.43-.14-.67c-.05-.19-.24-.34-.29-.53-.05-.19-.05-.38-.14-.58-.1-.14-.24-.24-.29-.43-.1-.24-.05-.48-.19-.72-.48-.58-.67-1.01-.48-1.78,0-.05-.05-.14-.14-.14,0,.24-.14.48-.19.67-.1.34-.19.58-.29.86.05.24.05.48-.05.72-.1.24-.19.53-.05.82.1.14.29.34.24.53-.1.34.1.62.1.91,0,.43-.1.77,0,1.2,0,.19,0,.43-.1.62-.1.19-.29.34-.34.58-.1.38-.19.77-.48,1.06-.1.1-.29.24-.38.05-.14-.24,0-.53-.1-.82-.19-.58,0-1.2,0-1.82-.05-.38-.19-.72-.14-1.15-.1-.38-.05-.77,0-1.15-.05-.48-.05-.96.1-1.44,0-.05.05-.1.05-.14,0-.14-.05-.24-.1-.29-.19-.34-.43-.67-.38-1.06.05-.24.05-.43.05-.62-.1-.24-.14-.48-.14-.72,0-.19,0-.34-.1-.53-.19.19-.29.48-.48.72-.19.24-.43.38-.62.62-.1.29-.24.48-.48.62-.1.1-.1.24-.14.38-.05.19-.1.43-.29.58-.14.1-.29.1-.38,0-.05-.1-.05-.14-.05-.19,0-.29.05-.53,0-.77,0-.29-.29-.48-.29-.77l.14-.34c-.05-.24-.05-.48-.05-.67.05-.14.05-.29.14-.38.05-.05.14-.14.05-.24s-.14-.24-.19-.34c-.1-.29.05-.48.05-.72,0-.1-.05-.19-.05-.29-.14-.29-.1-.67.05-.96.1-.24.1-.48.14-.77.05-.14.1-.29.1-.48-.05-.19.05-.43.05-.67v-.24c0-.24-.05-.48-.05-.72-.24-.34-.29-.67-.34-1.06-.05-.19-.05-.43-.05-.62.1-.29.29-.53.34-.82l-.05-.48c-.05-.38.24-.77.19-1.2,0-.24-.1-.48,0-.72.1-.19.14-.48.29-.58.14-.1.24,0,.34.1.05.14.14.29.24.43.1.14.24.29.38.43.1.1.19.19.34.24s.29.05.43.14c.1-.19,0-.38-.05-.58,0-.19-.14-.43-.34-.53-.14-.05-.29-.05-.43-.1-.19-.05-.38-.14-.58-.29-.05-.05-.14-.05-.19-.05-.24-.1-.34-.29-.43-.48-.1-.58.29-1.2.86-1.3,0-.05-.05-.1-.1-.1-.19-.1-.34-.24-.48-.34-.38-.19-.58-.48-.43-.91.1-.24.19-.53.24-.86-.05-.19-.19-.38-.24-.58-.14-.29-.05-.62-.14-.96-.34-.96-.05-2.02.43-2.88.53-1.1-.29-.96-.24-1.82.05-.19.05-.34-.1-.53-.86-.96-.19-1.68-.14-2.74-.05-.24-.14-.43-.14-.62-.05-.29,0-.53,0-.77-.1-.48-.1-1.01.14-1.44.38-.72.72-.29,1.3-.48-.24-.29-.38-.62-.53-.96-.1-.19-.29-.58-.05-.72.34-.05.67.14,1.01,0-.29-.29-.62-.53-.91-.82-.29-.19-.58-.38-.72-.72-.05-.24-.1-.48-.19-.72-.14-.48.05-.96-.05-1.44-.14-.34-.14-.72-.1-1.06-.05-.19-.1-.43-.05-.62,0-.14.1-.29.1-.43-.1-.48.19-.86.34-1.3.05-.19-.24-.29-.34-.38-.14-.05-.29-.14-.24-.29.14-.38.96-.29,1.3-.34.58-.05,1.15.05,1.73.05.29,0,.53.05.77,0,.19,0,.38-.05.53-.05.62.1,1.2.34,1.78.58.1,0,.19.05.29.05.19-.1.29-.29.48-.38.19-.1.38-.14.58-.05.24-.1.48-.29.77-.29.38-.05.77.05,1.1.1.19.05.53.1.53.29.14.05.19.14.24.24.1.19.19.38.24.58.05.53.38.91.58,1.34l.43.96c.19.43.53.91.67,1.39.19.67.14,1.39.38,2.06.14.29.34.53.53.82.1.1.14.19.19.29.1.05.19.1.24.19.29.62.29,1.34.29,2.06-.05,1.06,1.06,1.63,1.34,2.59l.43,1.49c.1.24.19.43.38.58.62.43.67,1.25.67,1.92-.05.67.48,1.1.62,1.68.1.34.1.72.19,1.06,0,.05.05.05.05.1.67.62.19,1.73.72,2.4.19.14.19-.43.24-.48.1-.38.1-.72.05-1.1-.05-.34-.1-.67-.19-.96-.14-.38-.34-.72-.43-1.1v-.38c-.05-.19-.1-.34-.1-.53-.05-.58.48-.96.62-1.49-.24-.24-.43-.53-.67-.77-.29-.29-.34-.67-.29-1.06.05-.29.14-.62.05-.91-.29-.48-.38-1.06-.29-1.63.05-.34.19-.72.1-1.1-.29-1.1.05-.96.43-1.82-1.06-.34-1.01-1.06-.24-1.68.48-.43,1.34-.62,1.1-1.39-.19.19-.43.38-.67.43-.29-.05-.48-.24-.62-.48-.14-.43-.05-.86-.1-1.3-.05-.48-.14-.96-.24-1.44-.05-.43.05-.91-.05-1.3-.05-.58.05-1.2.48-1.58.14-.14.34-.1.53-.14.34-.05.86-.29.96.19.19.82.14,1.63.29,2.4.05.14.24,1.01.34.48v-.82c0-.19,0-.34.05-.48s0-.34,0-.48v-.38c0-.19.05-.38.14-.53.24-.48,1.06.1,1.39.29.05.05.14.1.24.14.14-.24.24-.48.48-.58.14-.05.29-.1.43,0,.19.1.34.24.53.34.29.14.62.24.91.1.38-.1.62-.48,1.06-.53.29-.1.62-.05.96-.1.24,0,.48-.1.72-.05.62,0,.72.77.67,1.25-.05.43-.24.77-.24,1.15-.05.77.24,1.54.1,2.35-.05.29-.14.58-.19.86-.05.29.05.58.1.91.05.38.1.72.1,1.1,0,.34-.05.67,0,1.01.05.48.29.91.14,1.39-.1.62-.72,1.2-.38,1.82,0,.1-.05.14-.05.19-.14.53.43.77.48,1.25.05.29,0,.58-.1.86-.58,1.2.62,1.25.24,2.78-.19.53-.82.96-.67,1.58.1.34.38.62.48.96.19.62-.19,1.25.1,1.82.14.29.43.67.29,1.06-.19.62-.43,1.15-.77,1.68-.05.24-.14.58-.19.67-.53,1.2-.24,1.58.24,2.69.29.62.62,1.34.53,2.06-.05.48-.24.91-.29,1.39-.05.48-.05.96-.1,1.44,0,.34-.05.67-.1,1.01-.1.48-.34.96-.19,1.44.29,1.3.72,1.68-.05,2.93-.14.29-.34.58-.29.91,0,.58.05,1.1.05,1.63,0,.29.19.53.29.82.14.67-.1,1.49.48,2.06.29.29.53.67.82,1.01.24.29.53.58.58.91s.05.62.14.91c.14.34.29.62.34.96.1.43.05.86.05,1.3,0,.48.67.67.67,1.1s.1.86,0,1.3c-.05.29-.29,1.15-.58.86-.29-.34-.05-1.1-.38-1.39ZM224.5,42.63c-.1-.19-.14-.43-.05-.67.05-.1.1-.14.1-.24.05-.14.05-.34.14-.53.05-.1.24-.34.38-.24.24.14.34.43.38.67.05.29-.05.53-.19.72-.05.19,0,.43-.1.62-.05.14-.19.34-.38.29-.29-.05-.24-.38-.29-.62ZM225.36,37.2c.14-.14.43-.14.58-.29.24-.24-.29-.24-.38-.29-.34.05-.72.34-.77.67-.05.1,0,.19.1.19.19-.05.34-.19.48-.29ZM234.63,33.03c-.67-.24-.67-1.01-.62-1.58.05-.24-.19-.38-.14-.62.05-.19.19-.29.19-.43.1-.19.1-.48.34-.53.1,0,.19.14.34.14.34.1.58.48.62.82.05.29-.05.53-.24.77-.05.14.1.34.14.48.1.34.29.58.29.91-.05.24-.29.29-.43.19-.14-.14-.34-.14-.48-.14ZM238.52,42.48c.19-.19.24-.53.58-.58.05-.05.14,0,.19.05.19.1.34.38.24.58-.05.19-.24.24-.38.38-.14.24-.34.67-.62.43-.34-.24-.24-.58,0-.86ZM245.28,40.23c.05-.14-.19-.14-.24-.24-.14-.05-.24-.24-.38-.29-.1.1,0,.19.05.34.05.14-.05.34-.1.48.14.19.34.38.62.48,0-.24-.05-.53.05-.77ZM246.87,44.16c-.05-.1-.1-.14-.05-.24,0-.91.24.05,1.01-.14.86-.19,0,1.3-.62,1.06-.24-.14-.24-.43-.34-.67Z"/>
  <path class="cls-1" d="M269.28,47.67c.05-.29.24-.58.24-.86-.05-.14-.14-.19-.24-.29-.24-.38-.19-.91,0-1.3l.1-.67c0-.14.05-.29,0-.43-.29-.43-.43-.96-.58-1.44-.34-.67-.53-1.01,0-1.63.05-.1,0-.19,0-.24-.14-.19-.05-.43-.1-.67-.05-.19-.24-.38-.29-.58-.05-.24,0-.48,0-.67,0-.14-.05-.24-.05-.38-.05-.14-.05-.34-.19-.48-.38.24-.96,0-1.25.43.14-.05.29.05.34.19,0,.24-.19.43-.14.67,0,.05.05.05.1.1.53.14.58.48.34.96-.05.34.24.77-.14,1.01-.29.1-.24-.48-.29-.62.05-.38-.14-.77-.53-.67-.14,0-.24-.1-.38-.14-.14-.1-.29-.14-.38-.34s-.19-.34-.29-.48c-.1-.1-.24-.19-.29-.34-.05-.1-.05-.24-.14-.34-.19-.14-.43-.14-.67-.1-.05.1-.1.19-.14.24-.05.1-.14.14-.24.24-.1.14-.14.29-.14.43.05.34.19.67.1.96-.05.19-.19.34-.19.53.53.34.19.72.05,1.2.38.38,0,.86.05,1.3-.05.91-.48.34-.82-.05-.24-.29,0-.72-.1-1.06-.05-.19-.24-.24-.24-.43-.14-.38.05-.82-.05-1.2-.05-.1-.19-.14-.29-.19h-.05s-.05.14-.1.19c-.1.24-.1.53-.14.82-.05.05-.1.1-.1.14-.05.14-.05.24-.05.34,0,.29-.14.72-.48.82-.19,0-.43,0-.62.1l-.14.14c-.1.34-.1.77-.48.96-.1.05-.24.05-.38.1-.14.1-.19.24-.34.38.1.24-.05.53-.19.72-.05.1-.19.19-.14.29l.19.14c.1.1.1.24.19.29.24.14.53.34.48.67-.05.24-.19.58-.48.53-.53-.19-.67-1.01-1.3-1.01-1.2,1.15-1.1-.29-.14-.72-.29-.24-.19-.77-.05-1.06.14-.19.43-.38.62-.24.05-.24,0-.58-.05-.86,0-.24,0-.48-.05-.77-.05-.19-.29-.24-.38-.38-.24-.24-.14-.58.05-.82.24-.43.86-1.06.58-1.54-.24-.19-.48-.34-.48-.62,0-.24.05-.58-.19-.72-.1-.1-.29-.1-.34,0-.05.19.1.43,0,.62s-.24,0-.34-.1c0,.19-.1.34-.24.38.24.43-.14.72-.53.86.05.67-.05,1.01-.58,1.39.1.29.24.62.14.91,0,.19-.05.38-.19.43-.1.19-.1.34-.19.48-.1.29.1.58-.05.86-.1.14-.29.05-.38-.05-.29-.19-.38-.53-.34-.86,0-.34.24-.58.38-.82,0-.1.05-.19.05-.24-.14-.34-.53-.53-.38-.91.1-.24.29-.48.29-.72.05-.29,0-.62-.05-.96,0-.05,0-.14-.1-.19-.19.19-.43.38-.58.62-.05.14-.1.29-.29.34l-.19-.05c-.05.24-.29.48-.19.72.1.34.14.67.24,1.01,0,.24.1.48,0,.72-.24.19-.53,0-.77-.05,0,.19.05.38-.1.58-.14.1-.29.14-.34.29-.14.34,0,.72-.24,1.01-.05.05-.1.1-.19.14-.14.1-.29.14-.38.29.05.24,0,.53-.14.77-.14.19-.05.48-.14.77-.05.14-.19.29-.34.38-1.2.1-.77-1.15-.19-1.63-.19-.24-.19-.53-.1-.82.05-.43.24-.86.62-1.15,0-.19.05-.34.1-.48.1-.24.19-.53.38-.77.14-.19.38-.34.48-.62.14-.29.14-.67.24-1.01.05-.19.19-.43.24-.62.14-.29.1-.62.19-.91.05-.24.19-.43.29-.67.05-.1-.05-.29,0-.38,0-.29-.05-.53-.14-.82-.1-.43-.05-.91.19-1.3-.14-.38,0-.82.05-1.25-.05-.19-.14-.38-.19-.58-.05-.14-.05-.34,0-.53,0-.24.05-.38.05-.58s-.1-.38-.1-.62c0-.38.29-.77.58-1.01-.05-.19-.1-.43-.24-.58-.1-.05-.19-.14-.24-.24-.05-.24-.05-.53-.05-.82s-.05-.62-.05-.96c0-.14,0-.86.19-1.1,0-.14,0-.29.05-.38.1-.19.29-.34.38-.53,0-.1,0-.24-.14-.29-.34-.19-.48-.62-.34-1.01.1-.29.14-.62,0-.86-.1-.43.05-.91-.05-1.3-.14-.48.1-.91,0-1.39-.05-.34.1-.67.14-1.01,0-.29.05-.53.14-.77.1-.19.24-.24.38-.29-.1-.19-.05-.43-.19-.58-.29-.24-.62-.53-.53-.91.05-.1.1-.14.1-.24.14-.53-.05-1.06.05-1.63.05-.34-.19-.62-.1-.96.05-.24.1-.53.19-.77.05-.14.19-.24.1-.38-.1-.19-.19-.38-.14-.58,0-.29-.19-.58-.19-.86-.05-.38.05-.82,0-1.2.05-.34,0-.72,0-1.06.05-.24,0-.62.24-.72l.19.05c.05-.1.14-.14.24-.14.05,0,.14.05.19.14.14.1.24.19.34.34.14.29-.1.58-.05.77.14.19.24.38.24.62.05.1,0,.19-.05.34.1,0,.19,0,.24-.05.05-.38-.1-.77-.14-1.15-.05-.34-.14-.62-.29-.91-.34-.62-.91-1.01-1.15-1.68-.1-.53.14-1.01.1-1.54-.1-1.01-.05-2.02-.19-3.02,0-.34.1-.72.1-1.06-.05-.29-.14-.53-.05-.82,0-.19.19-.29.34-.38.1-.05.29,0,.38,0,.14.05.34.05.48,0,.19,0,.38.05.62,0,.19,0,.38-.1.58-.14.29-.05.58,0,.82,0,.19.05.29.19.43.34.19.1.43.1.67.05.19-.05.34-.29.62-.24.24.05.48-.05.77-.05.24.1.48.1.72.05.48,0,.96.05,1.39-.05.38-.1.77.05,1.15.19.38.19.77,0,1.1-.1.34,0,.62.05.96.05.19.05.43.14.67.14.14.05.34.05.48.1h.14c.14-.1.29-.1.43,0,.38.05.82.1,1.15.34.34.19.72.19,1.06.29.29.05.48.24.67.38.29.14.58.19.86.38.1.1.14.24.19.34.14.14.34.29.53.34.14,0,.29-.1.43-.1.34-.05.34-.1.58.19.19.14.24.38.38.58.14.24.34.43.58.48.29.14.48.43.77.53.67.29,1.39.62,1.78,1.3.14.19.24.38.34.58.24.29.48.53.67.86.29.53.38,1.1.72,1.63.24.38.53.77.67,1.2l.58,1.73c.1.24.1.53.1.82.1.1.14.19.24.34.1.19.05.43-.05.62.05.72.05,1.39-.05,2.06-.1.48.53.43.62.82.05.38-.05.77-.05,1.15.05.53.1,1.1.05,1.63,0,.24-.14.43-.19.62,0,.29.1.53.19.77.05.19-.05.43-.05.62-.05.29-.19.53-.29.77-.05.1-.1.19-.1.29s.05.14.1.24l.14.29c.05.24.14.43.24.67.1.48-.14.91-.29,1.39-.05.34-.14.62-.19.96,0,.1.05.14.05.24.14.34.19.72.14,1.1-.05.19-.14.58-.29.38-.1-.24,0-.58-.1-.82-.05-.19-.24-.53-.38-.19-.14.24-.05.48-.1.72,0,.14,0,.29-.05.43,0,.05,0,.1-.05.14v.43c0,.29-.05.62,0,.86.1.19.19.34.24.53.05.34-.14.67-.05.96.05.58.62,1.34.14,1.82-.1.1-.24.14-.38.1-.62-.43-.29-1.87-.77-2.45-.05.1-.1.24-.19.34-.05.1-.14.19-.19.34,0,.14,0,.29-.05.43,0,.29-.29.48-.24.77,0,.14.1.24.1.38s-.1.29-.1.38c-.05.1,0,.14.05.24.05.14.1.34.05.53,0,.19-.14.43-.34.38-.14-.05-.24-.24-.34-.38-.29-.82-1.06-.58-1.39.1-.05.1,0,.19.1.14.1,0,.14,0,.24.05l.14.19c.34.19.48.43.14.72-.19.19-.34.38-.43.62-.05.19-.14.34-.29.43-.1.1-.19.14-.29.1-.1-.1-.29-.24-.38-.1-.1.19-.38.48-.19.67.14.1.29.14.38.1.14-.1.29-.24.48-.19.14,0,.24.05.38.05.19-.1.48,0,.53.24l-.05.05c.1.1.1.24.05.38,0,.05.05.14.14.14.14,0,.34-.14.53,0,.34.29.14.91-.19,1.1.38.34.67.72.14,1.1.1.48.43.91.19,1.39h.05l.14.38c.24.1.34.29.53.43.1.05.14.14.24.24.14.05.19.29.29.43.14.1.38.19.48.34.19.1.14.38-.05.48-.05.1-.14.05-.24,0l-.43-.34c-.14-.1-.34-.24-.53-.34h-.14c.1.19,0,.43-.1.58,0,.38-.19.96-.62.62-.34-.29-.29-.77-.19-1.2-.14-.34-.43-.72-.34-1.1t.05-.05v-.29c0-.24-.05-.48-.05-.72v-.48c-.05-.43-.58-.62-.72-1.01-.05-.19.05-.43,0-.67v-.05c-.14-.19-.24-.43-.43-.53-.05,0-.1,0-.14-.05-.53.24-.86-.43-1.34-.53.05.24-.1.53-.14.77-.1.38-.14.72-.19,1.1,0,.24-.14.38-.38.19-.24-.24-.05-.62-.05-.91.05-.29-.24-.43-.34-.67-.1-.34.34-.62.1-.91,0-.05-.05-.05-.05-.05-.05-.05-.1-.1-.1-.14-.05-.14.05-.34.05-.53s-.05-.43-.24-.58c-.14.24-.24.48-.53.48-.1.19-.14.38-.29.53-.14.14-.24.38-.38.58,0,.19.05.38-.1.58v.1c-.05.34-.24.58-.24.86.05.24-.05.48-.1.72.05.29.19.53.05.82-.05.19-.1.38-.24.58-.05.05-.19.14-.19.24-.05.43,0,.86.14,1.25.05.14.14.24.19.38.05.1.05.29.1.38,0,.14.1.29.14.43.1.29.05.58,0,.86s-.24.53-.14.82c.19.34.29.72.38,1.1.1.24.34.38.48.53.34.48-.34.86-.67,1.06-.14.24-.24.24-.38.05-.38-.14-.58-.24-.43-.72ZM255.89,37.88c-.05-.14-.24-.1-.34,0-.14.14-.24.34-.29.48v.1c.14.1.29.1.43.1.19.05.38.05.58.05-.53-.29-.14-.38-.38-.72ZM261.41,39.84c.1-.29.38-.43.58-.62.1-.1.14-.19.05-.29-.24-.43-.43-.48-.86-.19-.19.19-.14.48-.34.67-.14.14-.29,0-.38-.1-.1-.05-.24-.1-.34-.05,0,.1,0,.14-.05.19.1.38.34.82.14,1.2-.1.29-.48.48-.38.82.05.1.19.14.34.14.82-.19.86-1.2,1.25-1.78ZM261.41,17.38c.1-.19.29-.34.29-.53.05-.34.05-1.06-.43-.86-.1.24,0,.53-.05.82-.05.19-.19.38-.24.58-.1.24-.19.67.14.77.24-.19.24-.48.29-.77ZM265.59,29.09c.14-.05.24,0,.38,0,.14-.05.19-.29.29-.43.1-.1.19-.19.34-.19.19-.05.48-.1.62-.34.14-.38.29-.77.58-1.06.1-.24.14-.53.29-.77.05-.1.19-.1.24-.19.14-.14.19-.38.43-.53.14-.1.29.05.48.05.24.05.14-.29.1-.43,0-.1-.1-.14-.14-.24v-.14c0-.19,0-.38-.1-.53-.1-.14-.1-.34-.05-.53,0-.1.05-.24.1-.34,0-.24,0-.48.05-.72v-.24c-.24-.38.19-.72.24-1.1,0-.14.05-.29-.05-.43-.05-.1-.14-.19-.14-.29-.05-.29.1-.67.34-.82.14-.05.29-.05.43-.1-.29-.38-.24-.82-.38-1.25l-.24-.38c-.1-.24-.05-.53-.05-.77,0-.38-.19-.67-.29-1.01l.05-.48c.05-.1,0-.24-.1-.38-.05-.1-.1-.14-.1-.24-.05-.19-.14-.34-.1-.43-.05-.19-.24-.29-.38-.43l-.24-.43s-.14-.1-.19-.19c-.1-.14-.05-.34.05-.43.1-.1.14-.19.19-.29.05-.05.14-.1.1-.14-.05-.14-.14-.24-.29-.34-.19,0-.38.1-.48.24-.29.34-.53.19-.58-.19h-.1c-.05.24,0,.48-.1.67-.05.24-.29.58-.53.34-.14-.1-.19-.34-.1-.43.1-.14.05-.29.1-.38,0-.29.1-.58-.1-.77-.05-.1-.05-.19-.05-.24-.1-.1-.19-.1-.29-.1,0,.19-.05.34-.19.43l-.14.34c.1.1.14.24.1.38,0,.24.05.43.05.62,0,.24.05.43,0,.67v.19c.05.34-.05.67-.1.96,0,.34.05.62.05.91,0,.24,0,.48.14.67.1.14.24.34.24.53.05.43-.14,1.01-.67.96-.48-.14-.58-.53-.53-.96,0-.29.24-.48.19-.77,0-.24-.1-.48-.14-.72,0-.29.05-.58.1-.86v-.58c-.1-.1-.14-.24-.14-.34,0-.29,0-.53.14-.77.14-.19.1-.43.05-.62l-.1-.24c0-.1.05-.19,0-.34-.1-.05-.14-.24-.1-.34,0-.1.1-.19,0-.24l-.29-.24c-.1-.14,0-.29,0-.48-.14-.43-.34-.48-.77-.34,0,.14-.1.24-.1.38.24.19.34.24.24.58,0,.14,0,.24-.05.38-.05.19-.14.34-.34.38.05.14.1.29.05.43-.05.14-.05.29-.14.43-.05.05-.14.05-.19-.05-.14.1-.29.05-.43.05-.05.14-.1.24-.24.34.19,0,.34.1.53.1.24,0,.48,0,.72.14.1.05.1.1.14.1.05.05.05.1,0,.1h-.1c.05.1.05.19.05.24.05.24-.1.43-.19.58-.05.05-.1.14-.05.19.34.48.1,1.06.14,1.54,0,.48.14.96.1,1.39,0,.29-.1.53-.1.82.1.53.14,1.2-.19,1.68-.05.05-.05.14-.05.24,0,.19.05.34.14.48.05.29.14.48.19.72,0,.29-.14.53-.1.77.14.34.14.72.1,1.06,0,.38-.14.82-.24,1.2,0,.34,0,.72-.38.82l-.05.34c.1.1.24.14.38.14.1.05.19,0,.29.1.05.1.05.24.05.38,0,.19.1.38,0,.62-.05.14-.14.29-.19.48v.48c.14.1.24.19.24.34-.05.34-.05.67-.1,1.01,0,.14.19.19.29.29.29-.53.91-.67,1.44-.67ZM263.14,45.12c-.05-.19.1-.34.24-.43,0-.05.05-.14.1-.19.1-.14.19-.34.38-.43.24-.05.58-.05.72.19.1.1.05.19.1.29.05.14.1.29.05.48-.05.43-.53.38-.86.48-.14.05-.29.19-.43.1-.14-.1-.24-.29-.29-.48ZM266.07,14.88v-.48c.05-.14.14-.34.34-.34l.19.05c.29.14.24.48.14.67-.14.19-.19.58-.43.58-.29,0-.24-.34-.24-.48ZM269.04,11.67c-.1-.14-.24-.38-.24-.58h-.14s-.05.1-.05.14c-.05.14-.1.29,0,.43.14.19.24.48.34.72.14-.19.14-.48.1-.72ZM272.07,41.62c-.14,0-.24.05-.34,0-.14-.14-.1-.38-.05-.53.1-.29.34-.43.58-.58.1-.14.34-.05.43.05h.05c.1.19,0,.43.1.62.19.24.38.67.14.91-.14.1-.29.14-.38,0-.19-.14-.29-.43-.53-.48ZM273.36,35.86c.19-.1.29-.24.34-.43l-.14-.1c-.29.19-.58.43-.82.62-.1.1-.1.19-.14.24l.29.14c.19-.1.29-.34.48-.48ZM276.72,36.15c-.24-.1-.29-.38-.19-.58-.1-.14,0-.29.1-.29s.19.05.29.1c.05,0,.1.1.1.14.1.14.29.34.24.53-.05.14-.19.34-.34.29-.1-.05-.14-.14-.19-.19Z"/>
</svg>