<svg width="20" height="20" viewBox="0 0 20 20" fill="none" xmlns="http://www.w3.org/2000/svg">
<path d="M12.1429 9.28571C12.1429 8.71739 12.3686 8.17235 12.7705 7.77048C13.1723 7.36862 13.7174 7.14286 14.2857 7.14286H16.4286C16.618 7.14286 16.7997 7.21811 16.9336 7.35207C17.0676 7.48602 17.1429 7.6677 17.1429 7.85714C17.1429 8.04658 17.0676 8.22826 16.9336 8.36222C16.7997 8.49617 16.618 8.57143 16.4286 8.57143H14.2857C14.0963 8.57143 13.9146 8.64668 13.7806 8.78064C13.6467 8.91459 13.5714 9.09627 13.5714 9.28571V10.7143C13.5714 10.9037 13.6467 11.0854 13.7806 11.2194C13.9146 11.3533 14.0963 11.4286 14.2857 11.4286H15C15.5683 11.4286 16.1134 11.6543 16.5152 12.0562C16.9171 12.4581 17.1429 13.0031 17.1429 13.5714V15C17.1429 15.5683 16.9171 16.1134 16.5152 16.5152C16.1134 16.9171 15.5683 17.1429 15 17.1429H12.8571C12.6677 17.1429 12.486 17.0676 12.3521 16.9336C12.2181 16.7997 12.1429 16.618 12.1429 16.4286C12.1429 16.2391 12.2181 16.0574 12.3521 15.9235C12.486 15.7895 12.6677 15.7143 12.8571 15.7143H15C15.1894 15.7143 15.3711 15.639 15.5051 15.5051C15.639 15.3711 15.7143 15.1894 15.7143 15V13.5714C15.7143 13.382 15.639 13.2003 15.5051 13.0663C15.3711 12.9324 15.1894 12.8571 15 12.8571H14.2857C13.7174 12.8571 13.1723 12.6314 12.7705 12.2295C12.3686 11.8277 12.1429 11.2826 12.1429 10.7143V9.28571ZM11.4286 7.85714C11.4286 7.6677 11.3533 7.48602 11.2194 7.35207C11.0854 7.21811 10.9037 7.14286 10.7143 7.14286C10.5248 7.14286 10.3432 7.21811 10.2092 7.35207C10.0753 7.48602 10 7.6677 10 7.85714V15C10 15.1894 9.92475 15.3711 9.79079 15.5051C9.65684 15.639 9.47515 15.7143 9.28571 15.7143H7.85714C7.6677 15.7143 7.48602 15.7895 7.35207 15.9235C7.21811 16.0574 7.14286 16.2391 7.14286 16.4286C7.14286 16.618 7.21811 16.7997 7.35207 16.9336C7.48602 17.0676 7.6677 17.1429 7.85714 17.1429H9.28571C9.85403 17.1429 10.3991 16.9171 10.8009 16.5152C11.2028 16.1134 11.4286 15.5683 11.4286 15V7.85714ZM0 4.28571V15.7143C0 16.8509 0.451529 17.941 1.25526 18.7447C2.05898 19.5485 3.14907 20 4.28571 20H15.7143C16.8509 20 17.941 19.5485 18.7447 18.7447C19.5485 17.941 20 16.8509 20 15.7143V4.28571C20 3.14907 19.5485 2.05898 18.7447 1.25526C17.941 0.451529 16.8509 0 15.7143 0H4.28571C3.14907 0 2.05898 0.451529 1.25526 1.25526C0.451529 2.05898 0 3.14907 0 4.28571ZM4.28571 1.42857H15.7143C16.472 1.42857 17.1988 1.72959 17.7346 2.26541C18.2704 2.80123 18.5714 3.52795 18.5714 4.28571V15.7143C18.5714 16.472 18.2704 17.1988 17.7346 17.7346C17.1988 18.2704 16.472 18.5714 15.7143 18.5714H4.28571C3.52795 18.5714 2.80123 18.2704 2.26541 17.7346C1.72959 17.1988 1.42857 16.472 1.42857 15.7143V4.28571C1.42857 3.52795 1.72959 2.80123 2.26541 2.26541C2.80123 1.72959 3.52795 1.42857 4.28571 1.42857Z" fill="white"/>
</svg>
