<svg width="45" height="35" viewBox="0 0 45 35" fill="none" xmlns="http://www.w3.org/2000/svg">
<path d="M4.5 35C3.2625 35 2.2035 34.572 1.323 33.7159C0.4425 32.8599 0.0015 31.8296 0 30.625V4.375C0 3.17187 0.441 2.14229 1.323 1.28625C2.205 0.430208 3.264 0.00145833 4.5 0H40.5C41.7375 0 42.7972 0.42875 43.6792 1.28625C44.5612 2.14375 45.0015 3.17333 45 4.375V30.625C45 31.8281 44.5597 32.8584 43.6792 33.7159C42.7987 34.5734 41.739 35.0015 40.5 35H4.5ZM22.5 19.6875L4.5 8.75V30.625H40.5V8.75L22.5 19.6875ZM22.5 15.3125L40.5 4.375H4.5L22.5 15.3125ZM4.5 8.75V4.375V30.625V8.75Z" fill="black"/>
</svg>
