<svg width="50" height="30" viewBox="0 0 50 30" fill="none" xmlns="http://www.w3.org/2000/svg">
<path fill-rule="evenodd" clip-rule="evenodd" d="M10.4425 9.53328C10.5302 9.5829 10.603 9.65433 10.6535 9.74035C10.704 9.82637 10.7304 9.92393 10.73 10.0232L10.72 17.2928C10.72 17.3932 10.665 17.4888 10.5775 17.5377C10.534 17.5642 10.4837 17.5782 10.4325 17.5782C10.3813 17.5782 10.331 17.5642 10.2875 17.5377L7.445 15.9408C7.35682 15.8915 7.28354 15.8202 7.23261 15.7341C7.18167 15.6481 7.15489 15.5504 7.155 15.4509V12.0537C7.15511 11.9542 7.12833 11.8565 7.07739 11.7704C7.02646 11.6844 6.95318 11.6131 6.865 11.5638L5.655 10.8804C5.56729 10.8305 5.46767 10.8042 5.36625 10.8042C5.26483 10.8042 5.16521 10.8305 5.0775 10.8804L3.865 11.5662C3.77729 11.6159 3.70451 11.6873 3.65403 11.7733C3.60354 11.8593 3.57714 11.9569 3.5775 12.0561V15.4509C3.57761 15.5504 3.55083 15.6481 3.49989 15.7341C3.44896 15.8202 3.37568 15.8915 3.2875 15.9408L0.44 17.5402C0.397028 17.5657 0.347744 17.5792 0.2975 17.5792C0.247256 17.5792 0.197972 17.5657 0.155 17.5402C0.110011 17.5166 0.07262 17.4811 0.0470114 17.4379C0.0214028 17.3946 0.0085872 17.3452 0.00999987 17.2953L0 10.0256C0 9.82231 0.11 9.63371 0.29 9.53328L5.075 6.83411C5.15385 6.78623 5.24474 6.76079 5.3375 6.76063H5.3875C5.48111 6.76033 5.57293 6.78579 5.6525 6.83411L10.4425 9.53328ZM33.2475 13.9323C33.2696 13.9198 33.2881 13.902 33.3012 13.8806C33.3143 13.8592 33.3217 13.8348 33.3225 13.8098V11.9483C33.3225 11.8993 33.2925 11.8504 33.2475 11.8259L31.6025 10.8951C31.5803 10.8831 31.5554 10.8768 31.53 10.8768C31.5046 10.8768 31.4797 10.8831 31.4575 10.8951L29.815 11.8259C29.7934 11.8386 29.7754 11.8566 29.7627 11.878C29.75 11.8994 29.7431 11.9236 29.7425 11.9483V13.8098C29.7425 13.8588 29.77 13.9078 29.8175 13.9323L31.46 14.8631C31.505 14.8875 31.56 14.8875 31.605 14.8631L33.2475 13.9323ZM33.4775 0.0371772C33.5214 0.0132188 33.5707 0.000439066 33.6209 1.11147e-05C33.6712 -0.000416837 33.7207 0.0115197 33.765 0.0347269L36.615 1.59251C36.7053 1.64127 36.7806 1.71292 36.8329 1.79997C36.8853 1.88701 36.9127 1.98625 36.9125 2.08728V15.5881C36.9126 15.6875 36.8858 15.7852 36.8349 15.8713C36.784 15.9573 36.7107 16.0286 36.6225 16.0779L31.8325 18.7894C31.7448 18.8393 31.6452 18.8655 31.5438 18.8655C31.4423 18.8655 31.3427 18.8393 31.255 18.7894L26.465 16.0804C26.3768 16.0311 26.3035 15.9598 26.2526 15.8737C26.2017 15.7877 26.1749 15.69 26.175 15.5905V10.1726C26.1749 10.0731 26.2017 9.97537 26.2526 9.88933C26.3035 9.80329 26.3768 9.73199 26.465 9.68269L31.255 6.97372C31.3427 6.92382 31.4423 6.89753 31.5438 6.89753C31.6452 6.89753 31.7448 6.92382 31.8325 6.97372L33.0325 7.65219C33.0632 7.66928 33.098 7.6782 33.1333 7.67806C33.1686 7.67793 33.2033 7.66873 33.2339 7.6514C33.2645 7.63407 33.2899 7.60919 33.3076 7.57925C33.3254 7.54931 33.3348 7.51535 33.335 7.48073V0.277212C33.3359 0.227956 33.3494 0.179712 33.3743 0.136913C33.3992 0.0941143 33.4347 0.0581332 33.4775 0.0322777M50 11.4119C50.0004 11.5112 49.974 11.6087 49.9235 11.6947C49.873 11.7808 49.8002 11.8522 49.7125 11.9018L46.84 13.5355C46.7956 13.5595 46.7457 13.5721 46.695 13.5721C46.6443 13.5721 46.5944 13.5595 46.55 13.5355C46.5067 13.5099 46.4708 13.4741 46.4454 13.4313C46.4201 13.3885 46.4062 13.3401 46.405 13.2906V11.9557C46.4041 11.9064 46.3906 11.8582 46.3657 11.8154C46.3408 11.7726 46.3053 11.7366 46.2625 11.7107L44.7625 10.8633C44.719 10.8368 44.6687 10.8228 44.6175 10.8228C44.5663 10.8228 44.516 10.8368 44.4725 10.8633L42.9725 11.7107C42.9297 11.7366 42.8942 11.7726 42.8693 11.8154C42.8444 11.8582 42.8309 11.9064 42.83 11.9557V13.6555C42.83 13.7535 42.885 13.8515 42.975 13.9005L47.7925 16.607C47.8372 16.6317 47.8744 16.6677 47.9003 16.7112C47.9262 16.7546 47.9399 16.804 47.9399 16.8544C47.9399 16.9047 47.9262 16.9541 47.9003 16.9976C47.8744 17.0411 47.8372 17.077 47.7925 17.1018L44.9125 18.6693C44.8256 18.7167 44.7276 18.7411 44.6281 18.7403C44.5286 18.7394 44.4311 18.7133 44.345 18.6644L39.5875 16.0069C39.4993 15.9576 39.426 15.8863 39.3751 15.8003C39.3242 15.7142 39.2974 15.6165 39.2975 15.517V10.0991C39.2971 9.99986 39.3235 9.9023 39.374 9.81628C39.4245 9.73026 39.4973 9.65883 39.585 9.60921L44.375 6.90269C44.4627 6.85279 44.5623 6.8265 44.6637 6.8265C44.7652 6.8265 44.8648 6.85279 44.9525 6.90269L49.7125 9.60921C49.8002 9.65883 49.873 9.73026 49.9235 9.81628C49.974 9.9023 50.0004 9.99986 50 10.0991V11.4119ZM24.7125 30C24.5462 29.9985 24.383 29.9564 24.2375 29.8775L22.7325 29.0007C22.5075 28.8782 22.6175 28.8341 22.69 28.8096C22.9296 28.7367 23.1589 28.6347 23.3725 28.5059C23.4092 28.4896 23.4467 28.492 23.485 28.5132L24.6425 29.1868C24.685 29.2089 24.7425 29.2089 24.7825 29.1868L29.2975 26.6322C29.3183 26.6193 29.3356 26.6016 29.3478 26.5807C29.36 26.5598 29.3668 26.5362 29.3675 26.5121V21.4077C29.3675 21.3587 29.3425 21.3097 29.2975 21.2852L24.785 18.7355C24.7634 18.7243 24.7394 18.7185 24.715 18.7185C24.6906 18.7185 24.6666 18.7243 24.645 18.7355L20.1325 21.2852C20.1109 21.298 20.0929 21.3159 20.0802 21.3374C20.0675 21.3588 20.0606 21.383 20.06 21.4077V26.5097C20.06 26.5587 20.0875 26.6052 20.13 26.6273L21.3675 27.3278C22.0375 27.656 22.4475 27.269 22.4475 26.8795V21.8412C22.4475 21.7678 22.5075 21.7139 22.58 21.7139H23.1525C23.2225 21.7139 23.2825 21.7678 23.2825 21.8412V26.882C23.2825 27.7588 22.7925 28.261 21.945 28.261C21.6825 28.261 21.4775 28.261 20.9025 27.9842L19.72 27.3155C19.5752 27.2336 19.4551 27.1158 19.3717 26.9739C19.2883 26.832 19.2446 26.671 19.245 26.5072V21.4053C19.2446 21.2415 19.2883 21.0805 19.3717 20.9386C19.4551 20.7967 19.5752 20.6788 19.72 20.597L24.24 18.0423C24.3859 17.9651 24.5492 17.9247 24.715 17.9247C24.8808 17.9247 25.0441 17.9651 25.19 18.0423L29.7025 20.5994C29.8469 20.6811 29.9668 20.7986 30.0502 20.94C30.1335 21.0815 30.1775 21.2419 30.1775 21.4053V26.5097C30.1779 26.6734 30.1342 26.8344 30.0508 26.9763C29.9674 27.1182 29.8473 27.2361 29.7025 27.318L25.1875 29.8702C25.0422 29.9499 24.879 29.9929 24.7125 29.9951M26.1075 26.4778C24.1325 26.4778 23.7175 25.5887 23.7175 24.8441C23.7175 24.7707 23.7775 24.7168 23.85 24.7168H24.4325C24.4636 24.7159 24.494 24.7265 24.5176 24.7465C24.5411 24.7664 24.5563 24.7942 24.56 24.8245C24.65 25.4075 24.91 25.7014 26.105 25.7014C27.0575 25.7014 27.4625 25.4883 27.4625 24.996C27.4625 24.7094 27.3475 24.4988 25.8675 24.3592C24.6325 24.2367 23.8675 23.9697 23.8675 23.0022C23.8675 22.1107 24.6375 21.5767 25.925 21.5767C27.37 21.5767 28.085 22.069 28.175 23.1247C28.1767 23.1424 28.1747 23.1603 28.1689 23.1772C28.1632 23.1941 28.1539 23.2096 28.1416 23.2228C28.1294 23.2359 28.1145 23.2464 28.0978 23.2536C28.0812 23.2607 28.0632 23.2644 28.045 23.2643H27.4575C27.4283 23.2649 27.3997 23.2554 27.3769 23.2375C27.354 23.2196 27.3383 23.1944 27.3325 23.1663C27.19 22.554 26.85 22.358 25.9225 22.358C24.8825 22.358 24.7625 22.7108 24.7625 22.9777C24.7625 23.301 24.905 23.3941 26.305 23.5754C27.695 23.7566 28.355 24.0114 28.355 24.9666C28.355 25.9292 27.53 26.4827 26.1025 26.4827L26.1075 26.4778ZM31.6025 21.0672H31.7525C31.8775 21.0672 31.9025 20.984 31.9025 20.9325C31.9025 20.8027 31.81 20.8027 31.7575 20.8027H31.6025V21.0672ZM31.4175 20.6509H31.7525C31.8675 20.6509 32.095 20.6509 32.095 20.9031C32.095 21.077 31.98 21.1138 31.91 21.1358C32.0425 21.1456 32.0525 21.2289 32.07 21.344V21.3538L32.0725 21.3636C32.0825 21.4395 32.0975 21.5645 32.1225 21.6085H31.915L31.9125 21.5767L31.8775 21.3073C31.865 21.2509 31.845 21.224 31.7775 21.224H31.605V21.6085H31.4175V20.6509ZM32.6125 21.126C32.613 21.2953 32.5622 21.4609 32.4665 21.6019C32.3708 21.7428 32.2346 21.8528 32.075 21.9178C31.9155 21.9828 31.7399 21.9999 31.5704 21.967C31.4009 21.9341 31.2452 21.8526 31.1231 21.7329C31.0009 21.6132 30.9177 21.4607 30.8841 21.2946C30.8506 21.1286 30.868 20.9565 30.9344 20.8002C31.0007 20.6439 31.113 20.5104 31.2568 20.4167C31.4007 20.323 31.5697 20.2732 31.7425 20.2737C32.2125 20.2737 32.6125 20.646 32.6125 21.1285M44.5925 11.6446C44.6091 11.6336 44.6287 11.6276 44.6487 11.6276C44.6688 11.6276 44.6884 11.6336 44.705 11.6446L45.6225 12.1639C45.6391 12.1742 45.6529 12.1883 45.6629 12.2049C45.6729 12.2215 45.6788 12.2402 45.68 12.2594V13.2979C45.6783 13.3387 45.6592 13.3698 45.6225 13.391L44.705 13.9127C44.6884 13.9238 44.6688 13.9297 44.6487 13.9297C44.6287 13.9297 44.6091 13.9238 44.5925 13.9127L43.675 13.391C43.6576 13.3824 43.6431 13.3691 43.6333 13.3525C43.6235 13.336 43.6189 13.317 43.62 13.2979V12.2594C43.62 12.2186 43.6383 12.1867 43.675 12.1639L44.5925 11.6446ZM18.8625 7.0521C18.7722 7.00186 18.6701 6.97544 18.5662 6.97544C18.4624 6.97544 18.3603 7.00186 18.27 7.0521L13.35 9.8321C13.2604 9.88392 13.1861 9.95769 13.1344 10.0461C13.0826 10.1346 13.0553 10.2347 13.055 10.3367V15.904C13.055 16.1098 13.17 16.3033 13.355 16.4061L18.27 19.1886C18.3603 19.2388 18.4624 19.2652 18.5662 19.2652C18.6701 19.2652 18.7722 19.2388 18.8625 19.1886L23.7775 16.4061C23.8672 16.3548 23.9418 16.2816 23.9939 16.1936C24.0461 16.1056 24.074 16.0058 24.075 15.904V10.3367C24.0744 10.2345 24.0467 10.1342 23.9945 10.0457C23.9424 9.95725 23.8676 9.88362 23.7775 9.8321L18.8625 7.0521Z" fill="white"/>
</svg>
