<svg width="50" height="50" viewBox="0 0 50 50" fill="none" xmlns="http://www.w3.org/2000/svg">
<path fill-rule="evenodd" clip-rule="evenodd" d="M11.9438 4.25622C14.4792 1.73538 18.6542 2.1833 20.7771 5.0208L23.4063 8.52913C25.1354 10.8375 24.9813 14.0625 22.9292 16.102L22.4333 16.5979C22.3771 16.806 22.3714 17.0246 22.4167 17.2354C22.5479 18.0854 23.2583 19.8854 26.2333 22.8437C29.2083 25.802 31.0208 26.5104 31.8833 26.6437C32.1007 26.6874 32.3251 26.681 32.5396 26.625L33.3896 25.7791C35.2146 23.9666 38.0146 23.6271 40.2729 24.8541L44.2521 27.0208C47.6625 28.8708 48.5229 33.5041 45.7313 36.2812L42.7708 39.2229C41.8375 40.15 40.5833 40.9229 39.0542 41.0666C35.2833 41.4187 26.4979 40.9687 17.2625 31.7875C8.64376 23.2166 6.98959 15.7416 6.77917 12.0583C6.67501 10.1958 7.55417 8.6208 8.67501 7.5083L11.9438 4.25622ZM18.2771 6.89372C17.2208 5.4833 15.2542 5.3708 14.1458 6.47288L10.875 9.72288C10.1875 10.4062 9.85834 11.1604 9.90001 11.8812C10.0667 14.8083 11.4 21.552 19.4667 29.5729C27.9292 37.9854 35.7438 38.2375 38.7646 37.9541C39.3813 37.8979 39.9938 37.5771 40.5667 37.0083L43.525 34.0645C44.7292 32.8687 44.4646 30.6895 42.7604 29.7645L38.7813 27.6C37.6813 27.0041 36.3938 27.2 35.5938 27.9958L34.6458 28.9395L33.5417 27.8312C34.6458 28.9395 34.6438 28.9416 34.6417 28.9416L34.6396 28.9458L34.6333 28.952L34.6188 28.9645L34.5875 28.9937C34.4996 29.0753 34.4048 29.1492 34.3042 29.2145C34.1375 29.325 33.9167 29.4479 33.6396 29.55C33.0771 29.7604 32.3313 29.8729 31.4104 29.7312C29.6042 29.4541 27.2104 28.2229 24.0292 25.0604C20.85 21.8979 19.6083 19.5187 19.3292 17.7146C19.1854 16.7937 19.3 16.0479 19.5125 15.4854C19.6295 15.1689 19.7969 14.8734 20.0083 14.6104L20.075 14.5375L20.1042 14.5062L20.1167 14.4937L20.1229 14.4875L20.1271 14.4833L20.7271 13.8875C21.6188 12.9979 21.7438 11.525 20.9042 10.402L18.2771 6.89372Z" fill="black"/>
</svg>
