<svg width="30" height="30" viewBox="0 0 30 30" fill="none" xmlns="http://www.w3.org/2000/svg">
<path d="M10 16.25V22.5H7.5V7.5H11.875C12.4495 7.5 13.0184 7.61316 13.5492 7.83303C14.08 8.05289 14.5623 8.37515 14.9686 8.78141C15.3748 9.18766 15.6971 9.66996 15.917 10.2008C16.1368 10.7316 16.25 11.3005 16.25 11.875C16.25 12.4495 16.1368 13.0184 15.917 13.5492C15.6971 14.08 15.3748 14.5623 14.9686 14.9686C14.5623 15.3748 14.08 15.6971 13.5492 15.917C13.0184 16.1368 12.4495 16.25 11.875 16.25H10ZM10 10V13.75H11.875C12.3723 13.75 12.8492 13.5525 13.2008 13.2008C13.5525 12.8492 13.75 12.3723 13.75 11.875C13.75 11.3777 13.5525 10.9008 13.2008 10.5492C12.8492 10.1975 12.3723 10 11.875 10H10ZM16.875 15.5662C16.875 14.753 17.198 13.9731 17.7731 13.3981C18.3481 12.8231 19.128 12.5 19.9412 12.5H22.5V15H19.9412C19.8067 14.9999 19.6764 15.0477 19.5739 15.1348C19.4713 15.222 19.4032 15.3429 19.3817 15.4757C19.3602 15.6086 19.3867 15.7448 19.4565 15.8599C19.5262 15.9749 19.6347 16.0614 19.7625 16.1038L21.0287 16.525C21.7194 16.7553 22.3055 17.2239 22.6823 17.8468C23.0591 18.4698 23.202 19.2065 23.0853 19.9251C22.9686 20.6437 22.6001 21.2974 22.0456 21.7692C21.4911 22.2409 20.7868 22.5 20.0588 22.5H16.875V20H20.0588C20.1933 20.0001 20.3236 19.9523 20.4261 19.8652C20.5287 19.778 20.5968 19.6571 20.6183 19.5243C20.6398 19.3914 20.6133 19.2552 20.5435 19.1401C20.4738 19.0251 20.3653 18.9386 20.2375 18.8962L18.9713 18.475C18.3605 18.2719 17.8293 17.8816 17.453 17.3595C17.0767 16.8373 16.8744 16.2099 16.875 15.5662Z" fill="white"/>
<path d="M27.5 2.5H2.5V27.5H27.5V2.5ZM5 25V5H25V25H5Z" fill="white"/>
</svg>
