<svg width="20" height="20" viewBox="0 0 20 20" fill="none" xmlns="http://www.w3.org/2000/svg">
<path d="M10 8.03474C10.9581 8.03474 11.7395 8.90819 11.7395 10C11.7395 11.0398 10.9581 11.9237 10 11.9237C9.04186 11.9237 8.26047 11.0398 8.26047 10C8.26047 8.90819 9.04186 8.03474 10 8.03474ZM5.69302 18.3186C6.27907 18.7137 7.56279 18.1106 9.04186 16.5509C8.55814 15.9374 8.08372 15.2719 7.63721 14.5752C6.88765 14.4944 6.14243 14.3695 5.40465 14.2009C4.93023 16.4261 5.10698 17.9546 5.69302 18.3186ZM6.35349 12.35L6.08372 11.8197C5.9814 12.1212 5.87907 12.4228 5.81395 12.7139C6.06512 12.7763 6.34419 12.8283 6.63256 12.8803L6.35349 12.35ZM12.4372 11.5597L13.1907 10L12.4372 8.44027C12.1581 7.88916 11.8605 7.40045 11.5907 6.91173C11.0884 6.88053 10.5581 6.88053 10 6.88053C9.44186 6.88053 8.91163 6.88053 8.4093 6.91173C8.13953 7.40045 7.84186 7.88916 7.56279 8.44027L6.8093 10L7.56279 11.5597C7.84186 12.1108 8.13953 12.5996 8.4093 13.0883C8.91163 13.1195 9.44186 13.1195 10 13.1195C10.5581 13.1195 11.0884 13.1195 11.5907 13.0883C11.8605 12.5996 12.1581 12.1108 12.4372 11.5597ZM10 4.57213C9.82326 4.80089 9.63721 5.04005 9.45116 5.3208H10.5488C10.3628 5.04005 10.1767 4.80089 10 4.57213ZM10 15.4279C10.1767 15.1991 10.3628 14.9599 10.5488 14.6792H9.45116C9.63721 14.9599 9.82326 15.1991 10 15.4279ZM14.2977 1.68143C13.7209 1.28629 12.4372 1.88939 10.9581 3.44912C11.4419 4.06262 11.9163 4.7281 12.3628 5.42478C13.1256 5.50797 13.8791 5.63275 14.5953 5.79912C15.0698 3.5739 14.893 2.04536 14.2977 1.68143ZM13.6465 7.65L13.9163 8.18031C14.0186 7.87876 14.1209 7.57722 14.186 7.28607C13.9349 7.22368 13.6558 7.17168 13.3674 7.11969L13.6465 7.65ZM14.9953 0.31926C16.3628 1.19271 16.5116 3.49072 15.9349 6.17346C18.2977 6.95332 20 8.2427 20 10C20 11.7573 18.2977 13.0467 15.9349 13.8265C16.5116 16.5093 16.3628 18.8073 14.9953 19.6807C13.6372 20.5542 11.786 19.556 10 17.6531C8.21395 19.556 6.36279 20.5542 4.99535 19.6807C3.63721 18.8073 3.48837 16.5093 4.06512 13.8265C1.70233 13.0467 0 11.7573 0 10C0 8.2427 1.70233 6.95332 4.06512 6.17346C3.48837 3.49072 3.63721 1.19271 4.99535 0.31926C6.36279 -0.554191 8.21395 0.444038 10 2.34691C11.786 0.444038 13.6372 -0.554191 14.9953 0.31926ZM14.7256 10C15.0419 10.7799 15.3209 11.5597 15.5535 12.35C17.507 11.6949 18.6047 10.7591 18.6047 10C18.6047 9.24093 17.507 8.30509 15.5535 7.65C15.3209 8.44027 15.0419 9.22013 14.7256 10ZM5.27442 10C4.95814 9.22013 4.67907 8.44027 4.44651 7.65C2.49302 8.30509 1.39535 9.24093 1.39535 10C1.39535 10.7591 2.49302 11.6949 4.44651 12.35C4.67907 11.5597 4.95814 10.7799 5.27442 10ZM13.6465 12.35L13.3674 12.8803C13.6558 12.8283 13.9349 12.7763 14.186 12.7139C14.1209 12.4228 14.0186 12.1212 13.9163 11.8197L13.6465 12.35ZM10.9581 16.5509C12.4372 18.1106 13.7209 18.7137 14.2977 18.3186C14.893 17.9546 15.0698 16.4261 14.5953 14.2009C13.8791 14.3673 13.1256 14.492 12.3628 14.5752C11.9163 15.2719 11.4419 15.9374 10.9581 16.5509ZM6.35349 7.65L6.63256 7.11969C6.34419 7.17168 6.06512 7.22368 5.81395 7.28607C5.87907 7.57722 5.9814 7.87876 6.08372 8.18031L6.35349 7.65ZM9.04186 3.44912C7.56279 1.88939 6.27907 1.28629 5.69302 1.68143C5.10698 2.04536 4.93023 3.5739 5.40465 5.79912C6.14243 5.63051 6.88765 5.50556 7.63721 5.42478C8.08372 4.7281 8.55814 4.06262 9.04186 3.44912Z" fill="white"/>
</svg>
