<svg width="25" height="26" viewBox="0 0 25 26" fill="none" xmlns="http://www.w3.org/2000/svg">
<path d="M18.9671 25.8395C18.6763 25.9857 18.3488 26.0337 18.0305 25.9766C17.7122 25.9196 17.4191 25.7604 17.1921 25.5214L7.33791 16.1238L3.04546 19.5304C2.852 19.6835 2.61305 19.7611 2.37022 19.7498C2.1274 19.7384 1.89609 19.6389 1.71658 19.4684L0.339609 18.1582C0.23255 18.0557 0.147092 17.9312 0.0886365 17.7926C0.0301814 17.6541 0 17.5044 0 17.353C0 17.2017 0.0301814 17.052 0.0886365 16.9134C0.147092 16.7748 0.23255 16.6504 0.339609 16.5479L4.06088 12.9973L0.339609 9.44666C0.23255 9.34418 0.147092 9.21971 0.0886365 9.08113C0.0301814 8.94254 0 8.79285 0 8.64152C0 8.49018 0.0301814 8.34049 0.0886365 8.20191C0.147092 8.06332 0.23255 7.93886 0.339609 7.83638L1.71658 6.52615C1.89632 6.35598 2.12775 6.25677 2.37057 6.24581C2.61339 6.23484 2.85222 6.31281 3.04546 6.46614L7.33791 9.87073L17.1921 0.475103C17.4201 0.237735 17.7133 0.0798449 18.0312 0.0232316C18.3492 -0.0333818 18.6762 0.0140746 18.9671 0.159049L24.1154 2.7475C24.6558 3.01954 25 3.59164 25 4.21975V13.9974H18.7536V7.06424L11.2765 12.9973L18.7536 18.9303V13.9974H25V21.7768C25 22.4049 24.6558 22.977 24.1154 23.2491L18.9671 25.8395Z" fill="white"/>
</svg>
