<svg width="40" height="40" viewBox="0 0 40 40" fill="none" xmlns="http://www.w3.org/2000/svg">
<path d="M4 40C2.9 40 1.95867 39.5881 1.176 38.7642C0.393333 37.9403 0.00133333 36.9488 0 35.7895V12.6316C0 11.4737 0.392 10.4828 1.176 9.65895C1.96 8.83509 2.90133 8.42246 4 8.42105H12V4.21053C12 3.05263 12.392 2.06175 13.176 1.23789C13.96 0.414035 14.9013 0.00140351 16 0H24C25.1 0 26.042 0.412632 26.826 1.23789C27.61 2.06316 28.0013 3.05403 28 4.21053V8.42105H36C37.1 8.42105 38.042 8.83368 38.826 9.65895C39.61 10.4842 40.0013 11.4751 40 12.6316V35.7895C40 36.9474 39.6087 37.9389 38.826 38.7642C38.0433 39.5895 37.1013 40.0014 36 40H4ZM4 35.7895H36V12.6316H4V35.7895ZM16 8.42105H24V4.21053H16V8.42105Z" fill="black"/>
</svg>
