<svg width="38" height="38" viewBox="0 0 38 38" fill="none" xmlns="http://www.w3.org/2000/svg">
<g filter="url(#filter0_d_29_99)">
<path d="M28.6874 4.16794e-06H9.31265C8.61474 -0.000881736 7.92352 0.139466 7.27857 0.41301C6.63362 0.686553 6.04761 1.08792 5.55412 1.59412C5.06062 2.10032 4.66933 2.7014 4.40265 3.36295C4.13597 4.0245 3.99914 4.73352 4 5.44939V24.5506C3.99914 25.2665 4.13597 25.9755 4.40265 26.637C4.66933 27.2986 5.06062 27.8997 5.55412 28.4059C6.04761 28.9121 6.63362 29.3134 7.27857 29.587C7.92352 29.8605 8.61474 30.0009 9.31265 30H28.6874C29.3853 30.0009 30.0765 29.8605 30.7214 29.587C31.3664 29.3134 31.9524 28.9121 32.4459 28.4059C32.9394 27.8997 33.3307 27.2986 33.5974 26.637C33.864 25.9755 34.0009 25.2665 34 24.5506V5.44939C34.0009 4.73352 33.864 4.0245 33.5974 3.36295C33.3307 2.7014 32.9394 2.10032 32.4459 1.59412C31.9524 1.08792 31.3664 0.686553 30.7214 0.41301C30.0765 0.139466 29.3853 -0.000881736 28.6874 4.16794e-06ZM32.7353 24.0506C32.7388 24.662 32.6244 25.268 32.3988 25.8339C32.1731 26.3998 31.8407 26.9144 31.4205 27.3481C31.0003 27.7818 30.5007 28.126 29.9504 28.3609C29.4001 28.5959 28.81 28.717 28.2139 28.7172H9.78701C8.58441 28.7154 7.43156 28.2246 6.58119 27.3524C5.73083 26.4801 5.25233 25.2976 5.25059 24.064V5.935C5.25233 4.70144 5.73083 3.51892 6.58119 2.64667C7.43156 1.77441 8.58441 1.2836 9.78701 1.28182H28.1989C29.402 1.28207 30.5557 1.7724 31.4064 2.64498C32.2571 3.51757 32.7351 4.70098 32.7353 5.935V24.0506ZM15.8609 14.0384L19.3623 20.935C19.4261 21.0398 19.3876 21.1398 19.2883 21.1398H17.1105C16.9746 21.1398 16.9108 21.1052 16.8518 20.9744C16.0521 19.282 15.2356 17.5896 14.4003 15.7712H14.3769C13.6082 17.5222 12.8153 19.2619 11.9985 20.9898C11.9413 21.0898 11.8776 21.1292 11.7744 21.1292H9.71295C9.58639 21.1292 9.57702 21.0244 9.64076 20.9494L13.0635 14.2576L9.75326 7.48702C9.67451 7.38221 9.75326 7.30624 9.82545 7.30624H11.9741C12.1007 7.30624 12.1504 7.3322 12.1991 7.44567C12.9968 9.15151 13.7765 10.8661 14.5381 12.5893H14.5615C15.289 10.8969 16.0906 9.13905 16.8612 7.46106C16.9249 7.35624 16.9633 7.29085 17.0862 7.29085H19.097C19.1992 7.29085 19.2386 7.37163 19.1758 7.47163L15.8609 14.0384ZM19.9764 16.127C19.9764 13.1422 21.9104 10.8074 24.9862 10.8074C25.2496 10.8074 25.3865 10.8074 25.6359 10.8334V7.43798C25.6359 7.3572 25.6987 7.3072 25.7624 7.3072H27.7349C27.8371 7.3072 27.8624 7.34663 27.8624 7.40721V19.182C27.8624 19.5272 27.8624 19.9628 27.9261 20.433C27.9261 20.5138 27.9008 20.5379 27.8239 20.5792C26.8241 21.0653 25.7318 21.3185 24.6253 21.3206C21.9104 21.335 19.9764 19.6176 19.9764 16.127ZM25.6368 12.846C25.4057 12.7565 25.1601 12.7125 24.9131 12.7162C23.3372 12.7162 22.2385 13.9624 22.2385 16.027C22.2385 18.3858 23.3606 19.332 24.7772 19.332C25.0743 19.332 25.4025 19.2974 25.6368 19.1926V12.846Z" fill="white"/>
</g>
<defs>
<filter id="filter0_d_29_99" x="0" y="0" width="38" height="38" filterUnits="userSpaceOnUse" color-interpolation-filters="sRGB">
<feFlood flood-opacity="0" result="BackgroundImageFix"/>
<feColorMatrix in="SourceAlpha" type="matrix" values="0 0 0 0 0 0 0 0 0 0 0 0 0 0 0 0 0 0 127 0" result="hardAlpha"/>
<feOffset dy="4"/>
<feGaussianBlur stdDeviation="2"/>
<feComposite in2="hardAlpha" operator="out"/>
<feColorMatrix type="matrix" values="0 0 0 0 0 0 0 0 0 0 0 0 0 0 0 0 0 0 0.25 0"/>
<feBlend mode="normal" in2="BackgroundImageFix" result="effect1_dropShadow_29_99"/>
<feBlend mode="normal" in="SourceGraphic" in2="effect1_dropShadow_29_99" result="shape"/>
</filter>
</defs>
</svg>
